<svg width="572" height="585" viewBox="0 0 572 585" fill="none" xmlns="http://www.w3.org/2000/svg">
<rect width="572" height="585" rx="5" fill="#211331"/>
<path d="M339.58 177.297C341.781 176.649 344.112 176.498 346.385 176.856C348.659 177.215 350.811 178.073 352.668 179.361C354.526 180.649 356.036 182.331 357.077 184.272C358.119 186.212 358.662 188.357 358.663 190.532V274.143C353.858 272.86 348.936 272 343.962 271.577V232.15L241.048 262.504V361.445C241.048 369.258 238.252 376.842 233.114 382.968C227.976 389.095 220.796 393.404 212.738 395.199C204.68 396.994 196.215 396.169 188.716 392.858C181.216 389.547 175.122 383.943 171.419 376.955C167.716 369.967 166.622 362.004 168.314 354.356C170.007 346.709 174.386 339.824 180.743 334.818C187.1 329.812 195.061 326.978 203.338 326.775C211.615 326.572 219.722 329.012 226.346 333.699V220.885C226.345 217.927 227.346 215.046 229.202 212.663C231.059 210.279 233.674 208.518 236.667 207.637L339.58 177.297V177.297ZM241.048 247.965L343.962 217.611V190.532L241.048 220.885V247.965ZM204.293 340.636C198.445 340.636 192.835 342.828 188.7 346.731C184.564 350.633 182.24 355.926 182.24 361.445C182.24 366.964 184.564 372.257 188.7 376.159C192.835 380.062 198.445 382.254 204.293 382.254C210.142 382.254 215.751 380.062 219.887 376.159C224.023 372.257 226.346 366.964 226.346 361.445C226.346 355.926 224.023 350.633 219.887 346.731C215.751 342.828 210.142 340.636 204.293 340.636ZM402.769 347.572C402.769 364.129 395.799 380.008 383.392 391.715C370.985 403.423 354.157 410 336.611 410C319.064 410 302.237 403.423 289.829 391.715C277.422 380.008 270.452 364.129 270.452 347.572C270.452 331.015 277.422 315.137 289.829 303.429C302.237 291.722 319.064 285.144 336.611 285.144C354.157 285.144 370.985 291.722 383.392 303.429C395.799 315.137 402.769 331.015 402.769 347.572V347.572ZM369.469 341.524L325.452 318.633C324.333 318.052 323.072 317.757 321.795 317.775C320.518 317.794 319.268 318.126 318.168 318.74C317.068 319.353 316.157 320.226 315.524 321.273C314.891 322.32 314.558 323.504 314.558 324.71V370.49C314.558 371.695 314.891 372.88 315.524 373.927C316.157 374.974 317.068 375.847 318.168 376.46C319.268 377.074 320.518 377.406 321.795 377.425C323.072 377.443 324.333 377.147 325.452 376.566L369.469 353.676C370.622 353.077 371.583 352.198 372.252 351.129C372.922 350.06 373.275 348.841 373.275 347.6C373.275 346.358 372.922 345.14 372.252 344.071C371.583 343.002 370.622 342.122 369.469 341.524Z" fill="#D20450"/>
</svg>
