<svg width="104" height="110" viewBox="0 0 104 110" fill="none" xmlns="http://www.w3.org/2000/svg">
<mask id="mask0" mask-type="alpha" maskUnits="userSpaceOnUse" x="4" y="15" width="96" height="95">
<path d="M52 110C78.108 110 99.2728 88.8934 99.2728 62.8571C99.2728 36.8209 78.108 15.7143 52 15.7143C25.892 15.7143 4.72729 36.8209 4.72729 62.8571C4.72729 88.8934 25.892 110 52 110Z" fill="white"/>
</mask>
<g mask="url(#mask0)">
<path d="M52 110C78.108 110 99.2728 88.8934 99.2728 62.8571C99.2728 36.8209 78.108 15.7143 52 15.7143C25.892 15.7143 4.72729 36.8209 4.72729 62.8571C4.72729 88.8934 25.892 110 52 110Z" fill="#E6E6E6"/>
<path d="M99.2728 15.7143H4.72729V110H99.2728V15.7143Z" fill="#65C9FF"/>
</g>
<mask id="mask1" mask-type="alpha" maskUnits="userSpaceOnUse" x="0" y="0" width="104" height="110">
<path d="M4.72727 62.8571C4.72727 88.8934 25.892 110 52 110C78.108 110 99.2727 88.8934 99.2727 62.8571H104V0H0V62.8571H4.72727Z" fill="white"/>
</mask>
<g mask="url(#mask1)">
<mask id="mask2" mask-type="alpha" maskUnits="userSpaceOnUse" x="12" y="14" width="80" height="96">
<path d="M61.4546 70.9543V78.1786H63.0303C78.6951 78.1786 91.394 90.8425 91.394 106.464V110H12.6061V106.464C12.6061 90.8425 25.3049 78.1786 40.9697 78.1786H42.5455V70.9543C35.755 67.7374 30.8739 61.1628 30.0596 53.3819C27.765 53.0584 26 51.0919 26 48.7143V43.2143C26 40.8784 27.7036 38.9392 29.9394 38.5652V36.1429C29.9394 23.9926 39.8163 14.1429 52 14.1429C64.1838 14.1429 74.0606 23.9926 74.0606 36.1429V38.5652C76.2964 38.9392 78 40.8784 78 43.2143V48.7143C78 51.0919 76.235 53.0584 73.9404 53.3819C73.1261 61.1628 68.245 67.7374 61.4546 70.9543Z" fill="white"/>
</mask>
<g mask="url(#mask2)">
<path d="M61.4546 70.9543V78.1786H63.0303C78.6951 78.1786 91.394 90.8425 91.394 106.464V110H12.6061V106.464C12.6061 90.8425 25.3049 78.1786 40.9697 78.1786H42.5455V70.9543C35.755 67.7374 30.8739 61.1628 30.0596 53.3819C27.765 53.0584 26 51.0919 26 48.7143V43.2143C26 40.8784 27.7036 38.9392 29.9394 38.5652V36.1429C29.9394 23.9926 39.8163 14.1429 52 14.1429C64.1838 14.1429 74.0606 23.9926 74.0606 36.1429V38.5652C76.2964 38.9392 78 40.8784 78 43.2143V48.7143C78 51.0919 76.235 53.0584 73.9404 53.3819C73.1261 61.1628 68.245 67.7374 61.4546 70.9543Z" fill="#D0C6AC"/>
<path d="M104 14.1429H0V110H104V14.1429Z" fill="#D08B5B"/>
<path fill-rule="evenodd" clip-rule="evenodd" d="M74.0607 45.1786V54.2143C74.0607 66.3646 64.1838 76.2143 52.0001 76.2143C39.8163 76.2143 29.9395 66.3646 29.9395 54.2143V45.1786V51.0714C29.9395 63.2217 39.8163 73.0714 52.0001 73.0714C64.1838 73.0714 74.0607 63.2217 74.0607 51.0714V45.1786Z" fill="black" fill-opacity="0.1"/>
</g>
<mask id="mask3" mask-type="alpha" maskUnits="userSpaceOnUse" x="26" y="78" width="52" height="32">
<path fill-rule="evenodd" clip-rule="evenodd" d="M37.0303 78.449V95.8571H66.9697V78.449C70.6581 78.9601 74.1196 80.1785 77.2121 81.9625L77.2121 110H73.6666H30.3333H26.7878V81.9625C29.8803 80.1785 33.3418 78.9601 37.0303 78.449Z" fill="white"/>
</mask>
<g mask="url(#mask3)">
<path fill-rule="evenodd" clip-rule="evenodd" d="M37.0303 78.449V95.8571H66.9697V78.449C70.6581 78.9601 74.1196 80.1785 77.2121 81.9625L77.2121 110H73.6666H30.3333H26.7878V81.9625C29.8803 80.1785 33.3418 78.9601 37.0303 78.449Z" fill="#B7C1DB"/>
<path d="M104 66.7857H0V110H104V66.7857Z" fill="#FF488E"/>
<path d="M31.909 101.357C32.9969 101.357 33.8787 100.478 33.8787 99.3929C33.8787 98.308 32.9969 97.4286 31.909 97.4286C30.8212 97.4286 29.9393 98.308 29.9393 99.3929C29.9393 100.478 30.8212 101.357 31.909 101.357Z" fill="#F4F4F4"/>
<path d="M72.0909 101.357C73.1787 101.357 74.0606 100.478 74.0606 99.3929C74.0606 98.308 73.1787 97.4286 72.0909 97.4286C71.0031 97.4286 70.1212 98.308 70.1212 99.3929C70.1212 100.478 71.0031 101.357 72.0909 101.357Z" fill="#F4F4F4"/>
</g>
<mask id="mask4" mask-type="alpha" maskUnits="userSpaceOnUse" x="44" y="57" width="16" height="9">
<path fill-rule="evenodd" clip-rule="evenodd" d="M44.5615 58.586C44.9783 62.3149 48.1496 65.2143 52 65.2143C55.8622 65.2143 59.0412 62.297 59.4422 58.5514C59.4744 58.25 59.1369 57.75 58.7138 57.75C52.8464 57.75 48.3513 57.75 45.3372 57.75C44.9116 57.75 44.5198 58.213 44.5615 58.586Z" fill="white"/>
</mask>
<g mask="url(#mask4)">
<path fill-rule="evenodd" clip-rule="evenodd" d="M44.5615 58.586C44.9783 62.3149 48.1496 65.2143 52 65.2143C55.8622 65.2143 59.0412 62.297 59.4422 58.5514C59.4744 58.25 59.1369 57.75 58.7138 57.75C52.8464 57.75 48.3513 57.75 45.3372 57.75C44.9116 57.75 44.5198 58.213 44.5615 58.586Z" fill="black" fill-opacity="0.7"/>
<path d="M56.3332 53.4286H48.0605C46.9727 53.4286 46.0908 54.308 46.0908 55.3929V57.75C46.0908 58.8348 46.9727 59.7143 48.0605 59.7143H56.3332C57.4211 59.7143 58.3029 58.8348 58.3029 57.75V55.3929C58.3029 54.308 57.4211 53.4286 56.3332 53.4286Z" fill="white"/>
<path d="M50.0302 70.7143C52.4235 70.7143 54.3636 68.7795 54.3636 66.3929C54.3636 64.0062 52.4235 62.0714 50.0302 62.0714C47.637 62.0714 45.6969 64.0062 45.6969 66.3929C45.6969 68.7795 47.637 70.7143 50.0302 70.7143Z" fill="#FF4F6D"/>
<path d="M53.9697 70.7143C56.3629 70.7143 58.303 68.7795 58.303 66.3929C58.303 64.0062 56.3629 62.0714 53.9697 62.0714C51.5765 62.0714 49.6364 64.0062 49.6364 66.3929C49.6364 68.7795 51.5765 70.7143 53.9697 70.7143Z" fill="#FF4F6D"/>
</g>
<path fill-rule="evenodd" clip-rule="evenodd" d="M47.2727 51.0714C47.2727 52.8072 49.3892 54.2143 52 54.2143C54.6108 54.2143 56.7273 52.8072 56.7273 51.0714" fill="black" fill-opacity="0.16"/>
<path d="M44.1047 39.2857C43.0998 39.2857 42.1056 40.0635 41.5605 40.7867C41.0132 40.0635 40.0212 39.2857 39.0163 39.2857C36.8539 39.2857 35.4545 40.5955 35.4545 42.2876C35.4545 44.5386 37.1925 45.8744 39.0163 47.2909C39.6677 47.7767 40.8996 49.0198 41.0517 49.2921C41.2037 49.5645 41.8813 49.5741 42.0694 49.2921C42.2574 49.0102 43.4523 47.7767 44.1047 47.2909C45.9275 45.8744 47.6666 44.5386 47.6666 42.2876C47.6666 40.5955 46.2672 39.2857 44.1047 39.2857Z" fill="#FF5353" fill-opacity="0.8"/>
<path d="M64.9835 39.2857C63.9786 39.2857 62.9844 40.0635 62.4393 40.7867C61.892 40.0635 60.9 39.2857 59.8951 39.2857C57.7326 39.2857 56.3333 40.5955 56.3333 42.2876C56.3333 44.5386 58.0713 45.8744 59.8951 47.2909C60.5464 47.7767 61.7784 49.0198 61.9305 49.2921C62.0825 49.5645 62.7601 49.5741 62.9481 49.2921C63.1362 49.0102 64.3311 47.7767 64.9835 47.2909C66.8063 45.8744 68.5454 44.5386 68.5454 42.2876C68.5454 40.5955 67.146 39.2857 64.9835 39.2857Z" fill="#FF5353" fill-opacity="0.8"/>
<path d="M36.0814 37.7779C37.8526 35.2925 41.6012 34.0424 45.4398 35.2769C45.8539 35.4101 46.2979 35.1833 46.4315 34.7703C46.565 34.3573 46.3376 33.9145 45.9234 33.7813C41.4292 32.336 36.9655 33.8246 34.797 36.8676C34.5449 37.2213 34.6281 37.7118 34.9828 37.9632C35.3375 38.2146 35.8293 38.1316 36.0814 37.7779Z" fill="black" fill-opacity="0.6"/>
<path d="M67.9061 40.5263C66.3639 38.3622 62.1358 37.1486 58.4938 38.0405C58.0713 38.144 57.6446 37.8863 57.5408 37.4649C57.437 37.0434 57.6955 36.6179 58.118 36.5144C62.3476 35.4786 67.2436 36.8839 69.1906 39.616C69.4426 39.9697 69.3595 40.4602 69.0048 40.7116C68.6501 40.963 68.1582 40.88 67.9061 40.5263Z" fill="black" fill-opacity="0.6"/>
<mask id="mask5" mask-type="alpha" maskUnits="userSpaceOnUse" x="0" y="0" width="104" height="110">
<path d="M104 0H0V110H104V0Z" fill="white"/>
</mask>
<g mask="url(#mask5)">
<mask id="mask6" mask-type="alpha" maskUnits="userSpaceOnUse" x="5" y="5" width="95" height="104">
<path fill-rule="evenodd" clip-rule="evenodd" d="M39.6767 78.2074C40.1053 78.1883 40.5363 78.1786 40.9696 78.1786H42.5454V70.9543C37.9082 68.7575 34.1614 64.9948 31.9922 60.3514C30.9032 56.9697 30.968 53.3056 30.7275 49.8246C30.4103 45.2358 30.6834 40.7582 31.7266 36.2402C32.6679 32.1641 34.0209 29.9777 37.0945 26.7114C38.8118 24.8862 41.3903 24.7806 43.9568 24.133C46.5541 23.4771 48.9249 22.479 50.5493 20.6009C54.1276 24.6911 63.6888 23.219 67.188 27.6766C71.4431 33.0971 71.4907 36.5946 71.9913 42.8575C72.3666 47.5527 71.7831 56.0434 71.6196 61.1404C69.4063 65.4206 65.8261 68.8833 61.4545 70.9543V78.1786H63.0302C65.6443 78.1786 68.1757 78.5312 70.5794 79.1914C69.7717 80.4383 68.809 81.6189 67.8016 82.7166C66.2923 84.3617 64.7756 86.0634 63.0742 87.5749C61.1278 89.3041 59.2657 90.5593 58.084 92.7143C57.5491 93.6896 56.6118 94.7154 57.6037 95.7853C58.5094 96.7624 59.9374 96.561 60.9068 95.8542C62.3397 94.8092 63.4035 93.1597 64.724 91.9587C63.4487 94.2433 61.6742 97.649 62.5853 100.211C62.8951 101.082 63.2097 101.064 63.6887 101.645C64.445 101.662 64.7439 102.003 64.5857 102.668C64.6565 102.859 64.7274 103.048 64.7985 103.239C65.3719 104.258 66.4695 104.971 67.8633 104.491C72.4173 102.922 67.164 95.8633 72.1779 93.7651C73.0751 94.8767 71.7501 97.9997 71.7143 99.3657C71.6704 101.05 71.7623 104.871 74.3307 105.329C77.6777 105.926 76.3868 102.737 76.5189 101.381C76.6724 99.8029 77.6458 97.7224 78.4379 96.3252C77.9561 97.8099 77.0557 101.1 79.5473 101.774C82.4298 102.554 82.1005 99.1868 82.538 97.7862C82.6281 99.8587 85.3135 104.759 87.7399 100.888C88.9902 98.8942 88.1374 95.6081 88.0003 93.4816C89.739 95.2729 91.1283 92.951 91.0882 91.6626C91.7492 93.5295 94.2331 98.735 96.4343 94.603C97.7728 92.0907 96.3452 88.7161 95.456 86.2904C97.7976 86.4947 97.3272 84.2333 96.9784 83.1101C96.4636 81.4517 96.7384 81.2082 96.8444 79.4935C100.094 81.3811 99.9948 76.2589 99.8154 75.0025C99.3642 71.8393 96.8968 69.0068 94.9926 66.339C93.6271 64.4253 91.0788 61.0935 91.8259 58.7859C92.5967 59.7555 94.3894 59.7454 95.102 58.7302C95.7054 57.8706 95.066 56.4532 94.7748 55.5944C93.9787 53.245 92.3878 51.727 90.9495 49.709C88.1494 45.7801 88.5521 40.6211 88.2932 36.2289C87.9703 30.7491 86.7907 25.3545 81.8009 21.3682C79.1274 19.2325 75.869 17.4736 73.3824 15.2076C72.7042 14.5896 72.4175 13.8241 71.7809 13.2284C71.0664 12.5599 70.733 12.7182 70.1429 11.7665C69.0917 10.0716 67.8571 8.48454 65.3167 8.40494C63.6547 8.35312 61.5526 9.75194 60.0546 9.5475C58.8246 9.37993 58.0478 7.63101 57.0384 7.04406C55.4761 6.1355 54.3858 6.48828 52.716 7.0145C50.2307 7.79769 48.6468 8.07069 46.1156 7.13453C44.3932 6.49736 42.7678 5.16746 40.734 5.64026C39.1388 6.01138 38.4261 7.29533 37.4866 8.2794C36.517 9.29534 36.9855 8.95948 35.5682 9.18511C34.1184 9.41608 32.9734 9.62568 31.8737 10.5725C30.096 12.1029 31.3274 14.4833 29.9224 15.8325C29.1639 16.5608 27.5843 16.9077 26.706 17.6608C25.7471 18.4828 24.963 19.4818 24.2446 20.4543C22.8455 22.3489 21.8903 24.4136 20.8646 26.4574C18.9565 30.2608 17.2555 34.1853 16.5305 38.2715C16.1581 40.3718 15.5305 42.4265 15.147 44.5226C14.8513 46.1391 14.9774 47.9095 14.3999 49.4791C13.7147 51.3411 12.0763 53.0525 11.1887 54.8838C10.0117 57.3128 9.2211 59.6432 8.97079 62.2581C8.72497 64.829 9.4091 67.0945 9.71081 69.6151C9.88553 71.0753 9.5834 71.2411 8.57637 72.6193C7.80145 73.6799 7.01646 74.7301 6.51819 75.9107C5.58782 78.1164 5.63942 80.2624 7.25821 82.2016C8.3691 83.5323 12.1032 84.9253 11.7975 81.9588C11.6555 80.5807 9.91787 79.9572 10.2498 78.3761C10.4795 77.281 11.5988 76.5233 12.9574 76.1848C13.9171 75.9458 14.3897 75.9563 14.8226 77.0057C15.2151 77.9569 14.6948 80.0334 14.5742 81.033C14.5259 81.4347 14.4543 81.7868 14.4057 82.1588C14.0638 84.781 14.0008 87.1936 12.5615 89.6015C11.6773 91.0809 9.94742 93.1657 11.9199 94.5916C13.4796 95.7194 16.1708 95.0322 17.3868 93.8522C18.6696 95.4343 18.3844 97.1615 17.9045 98.9079C17.6067 99.9922 16.7922 101.58 18.0743 102.457C19.8107 103.644 22.6451 101.774 23.947 100.831C24.6996 102.507 25.4058 108.619 28.3732 104.976C29.2391 103.913 30.6806 102.876 30.9551 101.623C31.4105 99.5449 31.0836 97.3574 31.2722 95.258C32.2191 98.007 32.8628 99.103 33.4424 101.925C33.791 103.622 33.9276 109.318 37.4504 108.568C40.161 107.991 38.4275 104.434 38.0812 102.983C37.4181 100.206 37.0981 99.0304 36.4573 96.2499C37.4551 98.0672 38.327 99.9317 39.2856 101.763C40.2274 103.563 44.4378 107.274 45.6696 105.711C46.9014 104.149 43.8986 101.922 43.2155 100.031C41.7939 96.0928 40.0715 92.1715 39.6631 88.0458C39.4668 86.0621 39.8351 84.2302 39.9965 82.2696C40.1068 80.9301 39.9409 79.5578 39.6767 78.2074Z" fill="white"/>
</mask>
<g mask="url(#mask6)">
<path fill-rule="evenodd" clip-rule="evenodd" d="M39.6767 78.2074C40.1053 78.1883 40.5363 78.1786 40.9696 78.1786H42.5454V70.9543C37.9082 68.7575 34.1614 64.9948 31.9922 60.3514C30.9032 56.9697 30.968 53.3056 30.7275 49.8246C30.4103 45.2358 30.6834 40.7582 31.7266 36.2402C32.6679 32.1641 34.0209 29.9777 37.0945 26.7114C38.8118 24.8862 41.3903 24.7806 43.9568 24.133C46.5541 23.4771 48.9249 22.479 50.5493 20.6009C54.1276 24.6911 63.6888 23.219 67.188 27.6766C71.4431 33.0971 71.4907 36.5946 71.9913 42.8575C72.3666 47.5527 71.7831 56.0434 71.6196 61.1404C69.4063 65.4206 65.8261 68.8833 61.4545 70.9543V78.1786H63.0302C65.6443 78.1786 68.1757 78.5312 70.5794 79.1914C69.7717 80.4383 68.809 81.6189 67.8016 82.7166C66.2923 84.3617 64.7756 86.0634 63.0742 87.5749C61.1278 89.3041 59.2657 90.5593 58.084 92.7143C57.5491 93.6896 56.6118 94.7154 57.6037 95.7853C58.5094 96.7624 59.9374 96.561 60.9068 95.8542C62.3397 94.8092 63.4035 93.1597 64.724 91.9587C63.4487 94.2433 61.6742 97.649 62.5853 100.211C62.8951 101.082 63.2097 101.064 63.6887 101.645C64.445 101.662 64.7439 102.003 64.5857 102.668C64.6565 102.859 64.7274 103.048 64.7985 103.239C65.3719 104.258 66.4695 104.971 67.8633 104.491C72.4173 102.922 67.164 95.8633 72.1779 93.7651C73.0751 94.8767 71.7501 97.9997 71.7143 99.3657C71.6704 101.05 71.7623 104.871 74.3307 105.329C77.6777 105.926 76.3868 102.737 76.5189 101.381C76.6724 99.8029 77.6458 97.7224 78.4379 96.3252C77.9561 97.8099 77.0557 101.1 79.5473 101.774C82.4298 102.554 82.1005 99.1868 82.538 97.7862C82.6281 99.8587 85.3135 104.759 87.7399 100.888C88.9902 98.8942 88.1374 95.6081 88.0003 93.4816C89.739 95.2729 91.1283 92.951 91.0882 91.6626C91.7492 93.5295 94.2331 98.735 96.4343 94.603C97.7728 92.0907 96.3452 88.7161 95.456 86.2904C97.7976 86.4947 97.3272 84.2333 96.9784 83.1101C96.4636 81.4517 96.7384 81.2082 96.8444 79.4935C100.094 81.3811 99.9948 76.2589 99.8154 75.0025C99.3642 71.8393 96.8968 69.0068 94.9926 66.339C93.6271 64.4253 91.0788 61.0935 91.8259 58.7859C92.5967 59.7555 94.3894 59.7454 95.102 58.7302C95.7054 57.8706 95.066 56.4532 94.7748 55.5944C93.9787 53.245 92.3878 51.727 90.9495 49.709C88.1494 45.7801 88.5521 40.6211 88.2932 36.2289C87.9703 30.7491 86.7907 25.3545 81.8009 21.3682C79.1274 19.2325 75.869 17.4736 73.3824 15.2076C72.7042 14.5896 72.4175 13.8241 71.7809 13.2284C71.0664 12.5599 70.733 12.7182 70.1429 11.7665C69.0917 10.0716 67.8571 8.48454 65.3167 8.40494C63.6547 8.35312 61.5526 9.75194 60.0546 9.5475C58.8246 9.37993 58.0478 7.63101 57.0384 7.04406C55.4761 6.1355 54.3858 6.48828 52.716 7.0145C50.2307 7.79769 48.6468 8.07069 46.1156 7.13453C44.3932 6.49736 42.7678 5.16746 40.734 5.64026C39.1388 6.01138 38.4261 7.29533 37.4866 8.2794C36.517 9.29534 36.9855 8.95948 35.5682 9.18511C34.1184 9.41608 32.9734 9.62568 31.8737 10.5725C30.096 12.1029 31.3274 14.4833 29.9224 15.8325C29.1639 16.5608 27.5843 16.9077 26.706 17.6608C25.7471 18.4828 24.963 19.4818 24.2446 20.4543C22.8455 22.3489 21.8903 24.4136 20.8646 26.4574C18.9565 30.2608 17.2555 34.1853 16.5305 38.2715C16.1581 40.3718 15.5305 42.4265 15.147 44.5226C14.8513 46.1391 14.9774 47.9095 14.3999 49.4791C13.7147 51.3411 12.0763 53.0525 11.1887 54.8838C10.0117 57.3128 9.2211 59.6432 8.97079 62.2581C8.72497 64.829 9.4091 67.0945 9.71081 69.6151C9.88553 71.0753 9.5834 71.2411 8.57637 72.6193C7.80145 73.6799 7.01646 74.7301 6.51819 75.9107C5.58782 78.1164 5.63942 80.2624 7.25821 82.2016C8.3691 83.5323 12.1032 84.9253 11.7975 81.9588C11.6555 80.5807 9.91787 79.9572 10.2498 78.3761C10.4795 77.281 11.5988 76.5233 12.9574 76.1848C13.9171 75.9458 14.3897 75.9563 14.8226 77.0057C15.2151 77.9569 14.6948 80.0334 14.5742 81.033C14.5259 81.4347 14.4543 81.7868 14.4057 82.1588C14.0638 84.781 14.0008 87.1936 12.5615 89.6015C11.6773 91.0809 9.94742 93.1657 11.9199 94.5916C13.4796 95.7194 16.1708 95.0322 17.3868 93.8522C18.6696 95.4343 18.3844 97.1615 17.9045 98.9079C17.6067 99.9922 16.7922 101.58 18.0743 102.457C19.8107 103.644 22.6451 101.774 23.947 100.831C24.6996 102.507 25.4058 108.619 28.3732 104.976C29.2391 103.913 30.6806 102.876 30.9551 101.623C31.4105 99.5449 31.0836 97.3574 31.2722 95.258C32.2191 98.007 32.8628 99.103 33.4424 101.925C33.791 103.622 33.9276 109.318 37.4504 108.568C40.161 107.991 38.4275 104.434 38.0812 102.983C37.4181 100.206 37.0981 99.0304 36.4573 96.2499C37.4551 98.0672 38.327 99.9317 39.2856 101.763C40.2274 103.563 44.4378 107.274 45.6696 105.711C46.9014 104.149 43.8986 101.922 43.2155 100.031C41.7939 96.0928 40.0715 92.1715 39.6631 88.0458C39.4668 86.0621 39.8351 84.2302 39.9965 82.2696C40.1068 80.9301 39.9409 79.5578 39.6767 78.2074Z" fill="#8D5A5A"/>
<path d="M109.909 5H5.90906V115H109.909V5Z" fill="#2C1B18"/>
<path fill-rule="evenodd" clip-rule="evenodd" d="M39.6768 78.2074C40.1053 78.1883 40.5363 78.1786 40.9696 78.1786H42.5454V70.9543C37.9082 68.7575 34.1614 64.9948 31.9922 60.3514C32.202 61.003 32.4547 61.6441 32.7606 62.2715C35.0278 66.92 37.9829 71.076 39.1921 76.0532C39.3637 76.7592 39.5345 77.4801 39.6768 78.2074ZM70.5794 79.1914C68.1758 78.5312 65.6443 78.1786 63.0302 78.1786H61.4545V70.9543C65.7487 68.9199 69.2793 65.5428 71.5008 61.367C71.4703 62.5431 71.4968 63.713 71.6476 64.8433C72.0692 68.0035 73.224 70.8581 72.688 74.107C72.3946 75.8873 71.6143 77.5938 70.5794 79.1914Z" fill="black" fill-opacity="0.24"/>
<path fill-rule="evenodd" clip-rule="evenodd" d="M25.3542 48.0261C25.3049 47.0746 24.5741 43.8866 25.4833 43.3358C26.4799 42.7317 26.2721 46.3634 26.2824 46.7354C26.2996 47.3394 26.7595 51.8957 25.9171 51.8755C25.0773 51.8554 25.3865 48.6469 25.3542 48.0261ZM28.6768 70.7137C28.6734 71.112 28.2543 71.0879 27.9552 70.9836C27.5858 70.8549 27.8119 70.0078 27.7925 69.73C27.7411 68.9997 27.3895 66.8473 27.9265 66.2442C29.0001 65.0388 28.6811 70.1524 28.6768 70.7137ZM18.5628 75.8849C19.3227 75.8634 18.6193 61.0223 17.4513 61.0388C16.631 61.0503 17.9877 75.8992 18.5628 75.8849ZM19.4421 83.4885C18.4976 83.4885 18.6712 86.8129 19.2275 87.0787C20.0706 87.4814 20.4986 83.4885 19.4421 83.4885ZM25.4444 84.8787C25.4528 85.2943 24.9802 85.3008 24.6648 85.1709C24.3068 85.0234 24.4567 83.7939 24.4425 83.5209C24.398 82.6617 23.6481 79.3283 24.3301 78.7159C25.1078 78.0176 25.1247 78.7839 25.3339 79.3046C25.95 80.8378 25.4112 83.2458 25.4444 84.8787ZM80.853 53.5595C80.8963 54.134 81.274 57.8878 80.6464 58.1739C79.5661 58.6665 80.0314 56.347 80.0357 56.0474C80.0779 53.1257 79.6541 50.2285 79.3319 47.3223C79.2706 46.7705 78.2976 42.5196 79.0103 42.1674C80.0768 41.6404 79.9177 43.0497 79.9787 43.507C80.4235 46.834 80.6201 50.2167 80.853 53.5595ZM79.5848 66.6236C78.5872 66.4264 78.0651 69.8032 78.5204 70.1653C79.2756 70.7665 80.6276 66.8302 79.5848 66.6236ZM79.4792 81.4727C79.0306 81.3838 75.763 87.6533 76.032 88.0079C76.5439 88.6831 81.086 81.7927 79.4792 81.4727ZM71.434 84.3694C70.7323 84.0543 67.757 88.5932 68.5165 88.9341C69.2052 89.2429 72.2832 84.7493 71.434 84.3694ZM88.016 67.3542C87.1687 67.3542 87.2064 71.9986 87.8584 72.2917C88.5324 72.5944 89.0174 67.3542 88.016 67.3542ZM76.0853 24.6885C75.8456 24.3468 73.2588 21.302 75.1116 21.737C76.0142 21.9489 77.2578 24.6256 77.6649 25.4341C77.8989 25.8985 79.2344 27.9717 77.8192 27.8249C77.4342 27.7852 76.4052 25.1453 76.0853 24.6885ZM66.9885 18.6043C66.6551 18.7539 66.6606 18.8943 67.0052 19.0253C67.3388 18.8757 67.333 18.7355 66.9885 18.6043ZM33.7286 21.7982C32.9387 22.5224 29.9692 26.7162 28.9517 26.7582C27.0976 26.8347 30.6371 23.2127 31.0385 22.7518C31.2178 22.5451 32.0177 21.5373 32.5047 21.2895C33.0014 21.0365 34.6491 20.952 33.7286 21.7982ZM22.9485 32.9924C22.0886 32.824 20.6499 37.025 21.1518 37.532C21.9096 38.298 23.9123 33.1831 22.9485 32.9924ZM32.7729 79.747C32.9354 80.2738 34.5975 84.0996 34.1797 84.6031C33.541 85.372 33.3577 84.2822 33.1487 83.8302C32.6847 82.8263 31.4792 80.355 31.6729 79.2983C31.8612 78.2736 32.6087 79.2191 32.7729 79.747ZM29.54 88.7135C28.6359 88.7135 28.7402 92.5643 29.2785 92.7931C30.1123 93.1475 30.6489 88.7135 29.54 88.7135ZM93.2813 85.4254C93.335 85.6624 94.0905 87.6108 93.0203 87.3286C92.4049 87.1664 92.31 85.4488 92.1528 84.9282C91.6687 83.323 90.0728 81.3286 89.9343 79.7447C89.8005 78.214 90.6593 78.7974 91.319 80.0939C92.2 81.8255 92.8605 83.579 93.2813 85.4254ZM85.5199 85.2307C84.6801 85.227 84.6394 89.4631 85.1646 89.71C85.8989 90.0552 86.5911 85.2307 85.5199 85.2307ZM87.9468 50.5428C88.5699 50.3808 86.6036 45.3078 85.907 45.3636C84.8456 45.4491 87.0005 50.786 87.9468 50.5428ZM77.3831 72.5791C77.0495 72.7287 77.0553 72.8691 77.3998 73.0001C77.7332 72.8505 77.7276 72.7101 77.3831 72.5791ZM67.8427 94.2808C68.1553 94.2808 68.2844 93.8001 67.8225 93.7892C67.5172 93.7917 67.356 94.2808 67.8427 94.2808ZM29.0272 72.5327C29.0387 71.7829 28.0544 72.3328 28.0606 72.9654C28.0734 74.2279 29.0064 73.6515 29.0272 72.5327ZM26.5983 53.7755C26.2816 53.7755 26.1518 54.2612 26.6184 54.2728C26.9272 54.2705 27.0901 53.7755 26.5983 53.7755ZM19.0613 78.3329C19.0307 77.5703 18.3915 78.3499 18.4273 78.3509C18.5408 78.3538 19.0853 78.9077 19.0613 78.3329ZM20.721 38.5249C19.7883 38.5249 19.9236 40.7852 20.5189 40.9302C21.5116 41.1722 21.6473 38.5249 20.721 38.5249ZM25.6899 87.3423C24.7895 87.3423 24.7287 90.412 25.3501 90.6029C26.3156 90.8992 26.6276 87.3423 25.6899 87.3423ZM18.3011 89.5448C17.9576 89.6985 17.9632 89.8431 18.3178 89.9782C18.6615 89.8245 18.6557 89.6802 18.3011 89.5448ZM85.2703 90.8611C84.3564 90.8611 84.3922 94.6142 84.9532 94.8677C85.7373 95.2223 86.3274 90.8611 85.2703 90.8611ZM76.0088 94.3492C75.0592 94.1599 74.5618 97.2585 75.0044 97.6061C75.7341 98.1792 76.9842 94.5435 76.0088 94.3492ZM67.9407 97.213C67.1538 97.213 67.3472 98.6173 67.8011 98.8263C68.5868 99.1879 68.8189 97.213 67.9407 97.213ZM39.9767 13.1643C39.3183 13.1643 35.1863 15.0281 36.7306 15.5803C37.6747 15.9178 41.654 13.1643 39.9767 13.1643Z" fill="white" fill-opacity="0.3"/>
</g>
</g>
</g>
</svg>
