<svg width="98" height="104" viewBox="0 0 98 104" fill="none" xmlns="http://www.w3.org/2000/svg">
<mask id="mask0" mask-type="alpha" maskUnits="userSpaceOnUse" x="4" y="14" width="90" height="90">
<path d="M48.7735 103.4C73.2616 103.4 93.1131 83.5598 93.1131 59.0857C93.1131 34.6116 73.2616 14.7714 48.7735 14.7714C24.2854 14.7714 4.43384 34.6116 4.43384 59.0857C4.43384 83.5598 24.2854 103.4 48.7735 103.4Z" fill="white"/>
</mask>
<g mask="url(#mask0)">
<path d="M48.7735 103.4C73.2616 103.4 93.1131 83.5598 93.1131 59.0857C93.1131 34.6116 73.2616 14.7714 48.7735 14.7714C24.2854 14.7714 4.43384 34.6116 4.43384 59.0857C4.43384 83.5598 24.2854 103.4 48.7735 103.4Z" fill="#E6E6E6"/>
<path d="M93.1131 14.7714H4.43384V103.4H93.1131V14.7714Z" fill="#65C9FF"/>
</g>
<mask id="mask1" mask-type="alpha" maskUnits="userSpaceOnUse" x="0" y="0" width="98" height="104">
<path d="M4.43396 59.0857C4.43396 83.5598 24.2855 103.4 48.7736 103.4C73.2617 103.4 93.1132 83.5598 93.1132 59.0857H97.5472V0H0V59.0857H4.43396Z" fill="white"/>
</mask>
<g mask="url(#mask1)">
<mask id="mask2" mask-type="alpha" maskUnits="userSpaceOnUse" x="11" y="13" width="75" height="91">
<path d="M57.6413 66.697V73.4879H59.1193C73.8122 73.4879 85.7231 85.392 85.7231 100.076V103.4H11.8237V100.076C11.8237 85.392 23.7346 73.4879 38.4275 73.4879H39.9055V66.697C33.5363 63.6731 28.9581 57.493 28.1943 50.179C26.0421 49.8749 24.3866 48.0264 24.3866 45.7914V40.6214C24.3866 38.4257 25.9845 36.6029 28.0816 36.2513V33.9743C28.0816 22.553 37.3456 13.2943 48.7734 13.2943C60.2012 13.2943 69.4652 22.553 69.4652 33.9743V36.2513C71.5623 36.6029 73.1602 38.4257 73.1602 40.6214V45.7914C73.1602 48.0264 71.5047 49.8749 69.3525 50.179C68.5887 57.493 64.0105 63.6731 57.6413 66.697Z" fill="white"/>
</mask>
<g mask="url(#mask2)">
<path d="M57.6413 66.697V73.4879H59.1193C73.8122 73.4879 85.7231 85.392 85.7231 100.076V103.4H11.8237V100.076C11.8237 85.392 23.7346 73.4879 38.4275 73.4879H39.9055V66.697C33.5363 63.6731 28.9581 57.493 28.1943 50.179C26.0421 49.8749 24.3866 48.0264 24.3866 45.7914V40.6214C24.3866 38.4257 25.9845 36.6029 28.0816 36.2513V33.9743C28.0816 22.553 37.3456 13.2943 48.7734 13.2943C60.2012 13.2943 69.4652 22.553 69.4652 33.9743V36.2513C71.5623 36.6029 73.1602 38.4257 73.1602 40.6214V45.7914C73.1602 48.0264 71.5047 49.8749 69.3525 50.179C68.5887 57.493 64.0105 63.6731 57.6413 66.697Z" fill="#D0C6AC"/>
<path d="M97.5472 13.2943H0V103.4H97.5472V13.2943Z" fill="#AE5D29"/>
<path fill-rule="evenodd" clip-rule="evenodd" d="M69.4653 42.4679V50.9614C69.4653 62.3827 60.2013 71.6414 48.7735 71.6414C37.3457 71.6414 28.0817 62.3827 28.0817 50.9614V42.4679V48.0071C28.0817 59.4284 37.3457 68.6871 48.7735 68.6871C60.2013 68.6871 69.4653 59.4284 69.4653 48.0071V42.4679Z" fill="black" fill-opacity="0.1"/>
</g>
<mask id="mask3" mask-type="alpha" maskUnits="userSpaceOnUse" x="11" y="67" width="75" height="37">
<path fill-rule="evenodd" clip-rule="evenodd" d="M39.9055 67.6055C33.2846 68.3459 28.185 70.3681 28.0831 75.5725C18.5288 79.6062 11.8237 89.0586 11.8237 100.076V103.4H85.7231V100.076C85.7231 89.0586 79.018 79.6062 69.4637 75.5725C69.3618 70.3681 64.2622 68.3459 57.6413 67.6055V74.5957C57.6413 79.4905 53.671 83.4586 48.7734 83.4586C43.8758 83.4586 39.9055 79.4905 39.9055 74.5957V67.6055Z" fill="white"/>
</mask>
<g mask="url(#mask3)">
<path fill-rule="evenodd" clip-rule="evenodd" d="M39.9055 67.6055C33.2846 68.3459 28.185 70.3681 28.0831 75.5725C18.5288 79.6062 11.8237 89.0586 11.8237 100.076V103.4H85.7231V100.076C85.7231 89.0586 79.018 79.6062 69.4637 75.5725C69.3618 70.3681 64.2622 68.3459 57.6413 67.6055V74.5957C57.6413 79.4905 53.671 83.4586 48.7734 83.4586C43.8758 83.4586 39.9055 79.4905 39.9055 74.5957V67.6055Z" fill="#B7C1DB"/>
<path d="M97.5472 62.7786H0V103.4H97.5472V62.7786Z" fill="#FF5C5C"/>
<path fill-rule="evenodd" clip-rule="evenodd" d="M37.6887 85.5779V103.4H35.1022V84.2526C35.9165 84.7363 36.7822 85.1797 37.6887 85.5779ZM62.4449 84.2526V99.1532C62.4449 99.867 61.8659 100.446 61.1517 100.446C60.4375 100.446 59.8585 99.867 59.8585 99.1532V85.5779C60.7649 85.1797 61.6307 84.7363 62.4449 84.2526Z" fill="#F4F4F4"/>
<path fill-rule="evenodd" clip-rule="evenodd" d="M33.6096 67.4775C28.0484 68.5288 24.2021 70.6233 24.2021 74.7094C24.2021 81.9888 36.4095 87.89 48.7737 87.89C61.1379 87.89 73.3452 81.9888 73.3452 74.7094C73.3452 70.6233 69.499 68.5288 63.9378 67.4775C67.2947 68.7146 69.4655 70.7943 69.4655 74.2548C69.4655 81.7853 59.1857 87.89 48.7737 87.89C38.3617 87.89 28.0819 81.7853 28.0819 74.2548C28.0819 70.7943 30.2527 68.7146 33.6096 67.4775Z" fill="black" fill-opacity="0.16"/>
</g>
<path fill-rule="evenodd" clip-rule="evenodd" d="M43.6006 55.0236C43.6006 57.8789 45.9166 60.1936 48.7735 60.1936C51.6305 60.1936 53.9465 57.8789 53.9465 55.0236" fill="black" fill-opacity="0.7"/>
<path fill-rule="evenodd" clip-rule="evenodd" d="M44.3397 48.0071C44.3397 49.6387 46.3249 50.9614 48.7737 50.9614C51.2225 50.9614 53.2076 49.6387 53.2076 48.0071" fill="black" fill-opacity="0.16"/>
<mask id="mask4" mask-type="alpha" maskUnits="userSpaceOnUse" x="33" y="38" width="12" height="6">
<path fill-rule="evenodd" clip-rule="evenodd" d="M39.1667 43.2242C42.7176 43.2242 44.3397 44.868 44.3397 42.306C44.3397 39.744 42.0237 38.0364 39.1667 38.0364C36.3098 38.0364 33.9938 39.744 33.9938 42.306C33.9938 44.868 35.6159 43.2242 39.1667 43.2242Z" fill="white"/>
</mask>
<g mask="url(#mask4)">
<path fill-rule="evenodd" clip-rule="evenodd" d="M39.1667 43.2242C42.7176 43.2242 44.3397 44.868 44.3397 42.306C44.3397 39.744 42.0237 38.0364 39.1667 38.0364C36.3098 38.0364 33.9938 39.744 33.9938 42.306C33.9938 44.868 35.6159 43.2242 39.1667 43.2242Z" fill="white"/>
<path d="M39.1666 43.945C40.391 43.945 41.3835 42.953 41.3835 41.7293C41.3835 40.5056 40.391 39.5136 39.1666 39.5136C37.9422 39.5136 36.9496 40.5056 36.9496 41.7293C36.9496 42.953 37.9422 43.945 39.1666 43.945Z" fill="black" fill-opacity="0.7"/>
</g>
<mask id="mask5" mask-type="alpha" maskUnits="userSpaceOnUse" x="53" y="38" width="11" height="6">
<path fill-rule="evenodd" clip-rule="evenodd" d="M58.3806 43.2242C61.9315 43.2242 63.5535 44.868 63.5535 42.306C63.5535 39.744 61.2375 38.0364 58.3806 38.0364C55.5237 38.0364 53.2076 39.744 53.2076 42.306C53.2076 44.868 54.8297 43.2242 58.3806 43.2242Z" fill="white"/>
</mask>
<g mask="url(#mask5)">
<path fill-rule="evenodd" clip-rule="evenodd" d="M58.3806 43.2242C61.9315 43.2242 63.5535 44.868 63.5535 42.306C63.5535 39.744 61.2375 38.0364 58.3806 38.0364C55.5237 38.0364 53.2076 39.744 53.2076 42.306C53.2076 44.868 54.8297 43.2242 58.3806 43.2242Z" fill="white"/>
<path d="M58.3804 43.945C59.6048 43.945 60.5974 42.953 60.5974 41.7293C60.5974 40.5056 59.6048 39.5136 58.3804 39.5136C57.156 39.5136 56.1635 40.5056 56.1635 41.7293C56.1635 42.953 57.156 43.945 58.3804 43.945Z" fill="black" fill-opacity="0.7"/>
</g>
<path fill-rule="evenodd" clip-rule="evenodd" d="M39.6225 37.8228L39.2859 37.9715C37.349 38.74 34.4132 38.4179 32.6181 37.5567C32.4086 37.4561 32.5518 37.131 32.7665 37.1475C38.279 37.5726 41.9902 34.1395 43.251 31.815C43.2884 31.7461 43.4014 31.7383 43.4293 31.8026C44.2818 33.7667 41.7851 36.9669 39.6225 37.8228Z" fill="black" fill-opacity="0.6"/>
<path fill-rule="evenodd" clip-rule="evenodd" d="M57.9247 37.8228L58.2613 37.9715C60.1981 38.74 63.1339 38.4179 64.929 37.5567C65.1385 37.4561 64.9953 37.131 64.7806 37.1475C59.2681 37.5726 55.5569 34.1395 54.2961 31.815C54.2587 31.7461 54.1457 31.7383 54.1178 31.8026C53.2653 33.7667 55.762 36.9669 57.9247 37.8228Z" fill="black" fill-opacity="0.6"/>
<mask id="mask6" mask-type="alpha" maskUnits="userSpaceOnUse" x="0" y="-4" width="98" height="104">
<path d="M97.5472 -4H0V99.4H97.5472V-4Z" fill="white"/>
</mask>
<g mask="url(#mask6)">
<mask id="mask7" mask-type="alpha" maskUnits="userSpaceOnUse" x="23" y="1" width="51" height="26">
<path fill-rule="evenodd" clip-rule="evenodd" d="M71.5562 15.6417C72.5909 18.2271 73.1601 21.0489 73.1601 24.0036V26.9579H24.3865V24.0036C24.3865 21.04 24.9592 18.2101 25.9998 15.6183C23.6338 10.6467 23.1744 6.56323 24.6216 3.36799C27.3946 2.52723 30.6067 3.19424 34.2579 5.36904C37.8681 2.91283 42.2292 1.47714 46.9258 1.47714H50.6208C55.3216 1.47714 59.6863 2.91537 63.2983 5.37555C66.954 3.19558 70.1698 2.52639 72.9456 3.36799C74.395 6.56824 73.9319 10.6595 71.5562 15.6417Z" fill="white"/>
</mask>
<g mask="url(#mask7)">
<path fill-rule="evenodd" clip-rule="evenodd" d="M71.5562 15.6417C72.5909 18.2271 73.1601 21.0489 73.1601 24.0036V26.9579H24.3865V24.0036C24.3865 21.04 24.9592 18.2101 25.9998 15.6183C23.6338 10.6467 23.1744 6.56323 24.6216 3.36799C27.3946 2.52723 30.6067 3.19424 34.2579 5.36904C37.8681 2.91283 42.2292 1.47714 46.9258 1.47714H50.6208C55.3216 1.47714 59.6863 2.91537 63.2983 5.37555C66.954 3.19558 70.1698 2.52639 72.9456 3.36799C74.395 6.56824 73.9319 10.6595 71.5562 15.6417Z" fill="#D8D8D8"/>
<path d="M121.195 1.47714H23.6477V104.877H121.195V1.47714Z" fill="#3C4F5C"/>
</g>
<mask id="mask8" mask-type="alpha" maskUnits="userSpaceOnUse" x="23" y="3" width="51" height="13">
<path fill-rule="evenodd" clip-rule="evenodd" d="M34.2579 5.36903C30.5788 7.8721 27.6796 11.435 25.9998 15.6183C23.6338 10.6467 23.1744 6.56322 24.6216 3.36798C27.3946 2.52722 30.6067 3.19423 34.2579 5.36903L34.2579 5.36903ZM71.5562 15.6417C69.8793 11.4519 66.9797 7.88293 63.2983 5.37554C66.954 3.19557 70.1698 2.52638 72.9456 3.36798C74.395 6.56823 73.9319 10.6595 71.5562 15.6417Z" fill="white"/>
</mask>
<g mask="url(#mask8)">
<path fill-rule="evenodd" clip-rule="evenodd" d="M34.2579 5.36903C30.5788 7.8721 27.6796 11.435 25.9998 15.6183C23.6338 10.6467 23.1744 6.56322 24.6216 3.36798C27.3946 2.52722 30.6067 3.19423 34.2579 5.36903L34.2579 5.36903ZM71.5562 15.6417C69.8793 11.4519 66.9797 7.88293 63.2983 5.37554C66.954 3.19557 70.1698 2.52638 72.9456 3.36798C74.395 6.56823 73.9319 10.6595 71.5562 15.6417Z" fill="black" fill-opacity="0.24"/>
</g>
<mask id="mask9" mask-type="alpha" maskUnits="userSpaceOnUse" x="26" y="6" width="45" height="7">
<path fill-rule="evenodd" clip-rule="evenodd" d="M31.7255 7.37062C30.0728 8.88005 28.6459 10.6322 27.5012 12.5707C26.4202 9.57639 26.2352 7.5044 26.9462 6.35471C27.9258 5.93131 29.5189 6.26995 31.7255 7.37062ZM69.9651 12.4352C68.829 10.5418 67.4226 8.82903 65.799 7.35017C67.9432 6.29707 69.496 5.97834 70.4577 6.39398C71.1547 7.52117 70.9906 9.53492 69.9651 12.4352Z" fill="white"/>
</mask>
<g mask="url(#mask9)">
<path fill-rule="evenodd" clip-rule="evenodd" d="M31.7255 7.37062C30.0728 8.88005 28.6459 10.6322 27.5012 12.5707C26.4202 9.57639 26.2352 7.5044 26.9462 6.35471C27.9258 5.93131 29.5189 6.26995 31.7255 7.37062ZM69.9651 12.4352C68.829 10.5418 67.4226 8.82903 65.799 7.35017C67.9432 6.29707 69.496 5.97834 70.4577 6.39398C71.1547 7.52117 70.9906 9.53492 69.9651 12.4352Z" fill="white" fill-opacity="0.3"/>
</g>
<path fill-rule="evenodd" clip-rule="evenodd" d="M24.4918 22.6931C30.3835 18.3968 38.4864 16.2486 48.8005 16.2486C59.114 16.2486 67.2009 18.3965 73.0611 22.6925V22.6925C73.8203 23.249 74.2688 24.1337 74.2688 25.0746V36.3266C74.2688 37.1424 73.607 37.8037 72.7908 37.8037C72.5116 37.8037 72.2381 37.7247 72.002 37.5758C65.8528 33.6976 58.209 31.7586 49.0707 31.7586C39.8624 31.7586 32.0132 33.7274 25.5232 37.6651C24.8254 38.0884 23.9164 37.8663 23.4928 37.1689C23.3524 36.9379 23.2782 36.6727 23.2782 36.4024L23.2782 25.0797C23.2782 24.1361 23.7292 23.2493 24.4918 22.6931Z" fill="black"/>
<path fill-rule="evenodd" clip-rule="evenodd" d="M24.4918 22.6931C30.3835 18.3968 38.4864 16.2486 48.8005 16.2486C59.114 16.2486 67.2009 18.3965 73.0611 22.6925V22.6925C73.8203 23.249 74.2688 24.1337 74.2688 25.0746V36.3266C74.2688 37.1424 73.607 37.8037 72.7908 37.8037C72.5116 37.8037 72.2381 37.7247 72.002 37.5758C65.8528 33.6976 58.209 31.7586 49.0707 31.7586C39.8624 31.7586 32.0132 33.7274 25.5232 37.6651C24.8254 38.0884 23.9164 37.8663 23.4928 37.1689C23.3524 36.9379 23.2782 36.6727 23.2782 36.4024L23.2782 25.0797C23.2782 24.1361 23.7292 23.2493 24.4918 22.6931Z" fill="#F4F4F4"/>
<g filter="url(#filter0_d)">
<path fill-rule="evenodd" clip-rule="evenodd" d="M45.7115 41.5446C45.7115 45.1276 42.6631 48.0335 37.5836 48.0335H36.5674C31.4878 48.0335 29.4556 45.1265 29.4556 41.5446C29.4556 37.9606 29.9301 35.0558 37.0419 35.0558H38.1252C45.2371 35.0558 45.7115 37.9606 45.7115 41.5446Z" fill="black" fill-opacity="0.7"/>
<path style="mix-blend-mode:screen" fill-rule="evenodd" clip-rule="evenodd" d="M45.7115 41.5446C45.7115 45.1276 42.6631 48.0335 37.5836 48.0335H36.5674C31.4878 48.0335 29.4556 45.1265 29.4556 41.5446C29.4556 37.9606 29.9301 35.0558 37.0419 35.0558H38.1252C45.2371 35.0558 45.7115 37.9606 45.7115 41.5446Z" fill="url(#paint0_linear)"/>
<path fill-rule="evenodd" clip-rule="evenodd" d="M68.4608 41.5446C68.4608 45.1276 65.4135 48.0335 60.3328 48.0335H59.3167C54.2371 48.0335 52.2048 45.1265 52.2048 41.5446C52.2048 37.9606 52.6793 35.0558 59.7912 35.0558H60.8745C67.9852 35.0558 68.4608 37.9606 68.4608 41.5446Z" fill="black" fill-opacity="0.7"/>
<path style="mix-blend-mode:screen" fill-rule="evenodd" clip-rule="evenodd" d="M68.4608 41.5446C68.4608 45.1276 65.4135 48.0335 60.3328 48.0335H59.3167C54.2371 48.0335 52.2048 45.1265 52.2048 41.5446C52.2048 37.9606 52.6793 35.0558 59.7912 35.0558H60.8745C67.9852 35.0558 68.4608 37.9606 68.4608 41.5446Z" fill="url(#paint1_linear)"/>
<path d="M37.5836 49.115H36.5675C31.4359 49.115 28.3723 46.2848 28.3723 41.5446C28.3723 37.714 29.0418 33.9743 37.0419 33.9743H38.1252C46.1254 33.9743 46.7949 37.714 46.7949 41.5446C46.7949 46.0014 43.0077 49.115 37.5836 49.115ZM37.0419 36.1362C30.5389 36.1362 30.5389 38.523 30.5389 41.5446C30.5389 44.0115 31.5843 46.952 36.5675 46.952H37.5836C41.7315 46.952 44.6283 44.7285 44.6283 41.5446C44.6283 38.523 44.6283 36.1362 38.1252 36.1362H37.0419Z" fill="#252C2F"/>
<path d="M60.333 49.115H59.3169C54.1853 49.115 51.1217 46.2848 51.1217 41.5446C51.1217 37.714 51.7912 33.9743 59.7913 33.9743H60.8746C68.8748 33.9743 69.5443 37.714 69.5443 41.5446C69.5443 46.0014 65.7571 49.115 60.333 49.115ZM59.7913 36.1362C53.2883 36.1362 53.2883 38.523 53.2883 41.5446C53.2883 44.0115 54.3348 46.952 59.3169 46.952H60.333C64.4809 46.952 67.3777 44.7285 67.3777 41.5446C67.3777 38.523 67.3777 36.1362 60.8746 36.1362H59.7913Z" fill="#252C2F"/>
<path d="M26.209 36.1372C26.4625 35.8842 29.2358 33.9743 37.042 33.9743C43.5873 33.9743 44.9728 34.6686 47.0701 35.7176L47.2236 35.7951C47.3694 35.8477 48.1151 36.1066 48.9873 36.1351C49.7819 36.1002 50.4616 35.8801 50.6602 35.8096C53.054 34.6196 55.3971 33.9743 60.8746 33.9743C68.6808 33.9743 71.454 35.8842 71.7075 36.1372C72.3066 36.1372 72.7908 36.6207 72.7908 37.2187V38.3002C72.7908 38.8983 72.3066 39.3817 71.7075 39.3817C71.7075 39.3817 69.5409 39.3817 69.5409 40.4632C69.5409 41.5446 68.4576 38.8983 68.4576 38.3002V37.2468C67.1365 36.73 64.7715 36.1372 60.8746 36.1372C56.5328 36.1372 54.3705 36.5549 52.5157 37.3363L52.5364 37.3874L51.6142 37.7595L52.5355 38.1318L51.7226 40.1367L50.7184 39.7309C50.6287 39.6947 50.4352 39.6296 50.1669 39.5619C49.4189 39.3734 48.6499 39.316 47.9698 39.4587C47.7203 39.511 47.4888 39.5896 47.2764 39.6957L46.3075 40.1795L45.3382 38.2451L46.307 37.7613L46.3094 37.7601L45.3812 37.3853L45.4108 37.3122C43.8112 36.5503 42.3362 36.1372 37.042 36.1372C33.1453 36.1372 30.7803 36.7297 29.4589 37.2465V38.3002C29.4589 38.8983 28.3756 41.5446 28.3756 40.4632C28.3756 39.3817 26.209 39.3817 26.209 39.3817C25.611 39.3817 25.1257 38.8983 25.1257 38.3002V37.2187C25.1257 36.6207 25.611 36.1372 26.209 36.1372Z" fill="#252C2F"/>
</g>
</g>
</g>
<defs>
<filter id="filter0_d" x="21.1257" y="31.9743" width="55.6651" height="23.1407" filterUnits="userSpaceOnUse" color-interpolation-filters="sRGB">
<feFlood flood-opacity="0" result="BackgroundImageFix"/>
<feColorMatrix in="SourceAlpha" type="matrix" values="0 0 0 0 0 0 0 0 0 0 0 0 0 0 0 0 0 0 127 0"/>
<feOffset dy="2"/>
<feGaussianBlur stdDeviation="2"/>
<feColorMatrix type="matrix" values="0 0 0 0 0 0 0 0 0 0 0 0 0 0 0 0 0 0 0.2 0"/>
<feBlend mode="normal" in2="BackgroundImageFix" result="effect1_dropShadow"/>
<feBlend mode="normal" in="SourceGraphic" in2="effect1_dropShadow" result="shape"/>
</filter>
<linearGradient id="paint0_linear" x1="37.5836" y1="35.0558" x2="37.5836" y2="48.0335" gradientUnits="userSpaceOnUse">
<stop stop-color="white" stop-opacity="0.5"/>
<stop offset="0.705058" stop-opacity="0.5"/>
</linearGradient>
<linearGradient id="paint1_linear" x1="60.3328" y1="35.0558" x2="60.3328" y2="48.0335" gradientUnits="userSpaceOnUse">
<stop stop-color="white" stop-opacity="0.5"/>
<stop offset="0.705058" stop-opacity="0.5"/>
</linearGradient>
</defs>
</svg>
