<svg width="184" height="174" viewBox="0 0 184 174" fill="none" xmlns="http://www.w3.org/2000/svg">
<g clip-path="url(#clip0)">
<path d="M5.45004 103.358C5.45004 103.358 5.29341 102.898 5.04004 102.041" stroke="#1CC5B7" stroke-width="9" stroke-miterlimit="10"/>
<path d="M4.29799 99.3677C-1.30157 77.8006 -18.759 -21.5971 156.244 40.4544" stroke="#1CC5B7" stroke-width="9" stroke-miterlimit="10" stroke-dasharray="12.04 12.04"/>
<path d="M157.555 40.9153L158.856 41.3761" stroke="#1CC5B7" stroke-width="9" stroke-miterlimit="10"/>
<path d="M137.421 117.573C137.422 112.913 135.685 108.42 132.549 104.973C129.413 101.527 125.105 99.3747 120.466 98.9384C115.828 98.5021 111.194 99.8128 107.471 102.614C103.748 105.415 101.204 109.506 100.336 114.084L42.8457 112.525L43.4768 122.405C43.4768 122.405 35.279 141.327 78.3641 146.368V165.493H128.173V133.695C130.986 132.048 133.319 129.693 134.941 126.865C136.563 124.037 137.418 120.834 137.421 117.573Z" fill="url(#paint0_linear)"/>
<path d="M45.4506 122.82C45.4506 122.82 37.6006 140.94 78.8614 145.774V164.097H126.562V115.571L44.8379 113.356L45.4506 122.82Z" fill="#BA867C"/>
<path d="M69.2907 47.2034C68.047 49.1667 66.077 50.5579 63.8111 51.073C61.5453 51.588 59.1677 51.1851 57.1979 49.9523L31.5864 33.0696C29.6237 31.8254 28.2331 29.8547 27.7182 27.5881C27.2033 25.3215 27.606 22.9431 28.8385 20.9726C30.0822 19.0118 32.0504 17.6225 34.3141 17.1075C36.5777 16.5926 38.953 16.9938 40.9221 18.2237L66.5336 35.1065C68.4978 36.3492 69.8904 38.3192 70.407 40.5859C70.9237 42.8526 70.5223 45.2318 69.2907 47.2034Z" fill="url(#paint1_linear)"/>
<path d="M67.8719 46.2794C66.7158 48.1044 64.8847 49.3975 62.7785 49.8763C60.6724 50.3551 58.4624 49.9806 56.6314 48.8348L32.8165 33.141C30.9922 31.9845 29.6995 30.1527 29.2209 28.0459C28.7422 25.939 29.1165 23.7283 30.2621 21.8966C31.4182 20.0716 33.2493 18.7785 35.3555 18.2997C37.4616 17.8209 39.6716 18.1954 41.5026 19.3413L65.3129 35.0373C67.1373 36.1931 68.4305 38.0241 68.91 40.1305C69.3895 42.2368 69.0163 44.4474 67.8719 46.2794Z" fill="#BA867C"/>
<path d="M117.505 136.11C127.399 136.11 135.419 128.087 135.419 118.19C135.419 108.294 127.399 100.271 117.505 100.271C107.612 100.271 99.5918 108.294 99.5918 118.19C99.5918 128.087 107.612 136.11 117.505 136.11Z" fill="#BA867C"/>
<path d="M114.281 0H45.6581C44.0997 0 42.8364 1.26373 42.8364 2.82262V131.271C42.8364 132.83 44.0997 134.094 45.6581 134.094H114.281C115.839 134.094 117.103 132.83 117.103 131.271V2.82262C117.103 1.26373 115.839 0 114.281 0Z" fill="url(#paint2_linear)"/>
<path d="M112.956 1.81339H46.9822C45.247 1.81339 43.8403 3.22051 43.8403 4.95628V129.142C43.8403 130.878 45.247 132.285 46.9822 132.285H112.956C114.691 132.285 116.098 130.878 116.098 129.142V4.95628C116.098 3.22051 114.691 1.81339 112.956 1.81339Z" fill="white"/>
<path d="M98.1224 5.08301C97.9134 6.46666 97.2162 7.7298 96.1571 8.64394C95.0979 9.55807 93.7467 10.0628 92.3478 10.0669H67.3928C65.9943 10.0623 64.6436 9.55728 63.5849 8.64319C62.5263 7.7291 61.8294 6.46627 61.6205 5.08301H48.399C48.0385 5.08271 47.6815 5.15347 47.3484 5.29124C47.0153 5.42902 46.7126 5.63111 46.4576 5.88597C46.2027 6.14083 46.0004 6.44346 45.8624 6.77656C45.7244 7.10966 45.6533 7.46671 45.6533 7.82729V126.262C45.653 126.623 45.7238 126.98 45.8615 127.313C45.9992 127.646 46.2012 127.949 46.456 128.204C46.7108 128.459 47.0133 128.661 47.3463 128.799C47.6793 128.938 48.0362 129.009 48.3967 129.009H111.542C111.902 129.009 112.259 128.938 112.593 128.8C112.926 128.663 113.228 128.461 113.483 128.206C113.738 127.951 113.941 127.648 114.079 127.315C114.217 126.982 114.288 126.625 114.288 126.264V7.82959C114.288 7.46901 114.217 7.11191 114.08 6.77869C113.942 6.44548 113.74 6.14268 113.485 5.8876C113.23 5.63253 112.928 5.43018 112.595 5.29213C112.262 5.15407 111.905 5.08301 111.544 5.08301H98.1224Z" fill="#282852"/>
<path d="M87.6629 6.64523H72.4812C72.2268 6.64523 72.0205 6.85156 72.0205 7.10607V7.19132C72.0205 7.44584 72.2268 7.65216 72.4812 7.65216H87.6629C87.9173 7.65216 88.1236 7.44584 88.1236 7.19132V7.10607C88.1236 6.85156 87.9173 6.64523 87.6629 6.64523Z" fill="#DBDBDB"/>
<path d="M91.5439 7.65218C91.8772 7.65218 92.1474 7.3819 92.1474 7.04849C92.1474 6.71508 91.8772 6.44479 91.5439 6.44479C91.2106 6.44479 90.9404 6.71508 90.9404 7.04849C90.9404 7.3819 91.2106 7.65218 91.5439 7.65218Z" fill="#DBDBDB"/>
<path d="M129.087 121.35C123.888 122.552 120.32 119.161 119.118 113.962L107.172 69.5931C106.601 67.0863 107.045 64.4554 108.407 62.2748C109.768 60.0942 111.937 58.5411 114.44 57.9547C116.945 57.3835 119.576 57.8275 121.755 59.1895C123.935 60.5516 125.488 62.7211 126.074 65.2244L135.822 110.732C137.024 115.939 134.283 120.147 129.087 121.35Z" fill="url(#paint3_linear)"/>
<path d="M124.734 66.3128C123.72 61.9248 119.343 59.1896 114.956 60.2034C110.57 61.2173 107.835 65.5963 108.849 69.9843L119.833 117.541C120.847 121.929 125.224 124.664 129.611 123.65C133.997 122.636 136.732 118.257 135.718 113.869L124.734 66.3128Z" fill="#BA867C"/>
<path d="M135.345 158.101H67.1646V174H135.345V158.101Z" fill="url(#paint4_linear)"/>
<path d="M133.502 159.945H69.0073V172.387H133.502V159.945Z" fill="#282852"/>
<path d="M95.181 42.0236L89.897 38.0443L92.2004 35.0489L88.3561 32.0304L85.9536 35.0765L80.5199 30.9866C80.3129 30.8312 80.0612 30.7473 79.8024 30.7473C79.5436 30.7473 79.2919 30.8312 79.0849 30.9866L64.6817 41.7126C64.1358 42.1734 63.6245 42.701 63.6199 43.9084H63.6038L63.5669 60.434V61.169C63.5663 61.4057 63.6123 61.6401 63.7023 61.8589C63.7922 62.0778 63.9244 62.2768 64.0912 62.4445C64.2581 62.6122 64.4563 62.7455 64.6746 62.8366C64.8929 62.9277 65.127 62.9749 65.3635 62.9755H66.073L79.7298 63.0055L94.0984 63.0377C94.335 63.0383 94.5693 62.9923 94.7881 62.9023C95.0069 62.8123 95.2058 62.6801 95.3735 62.5132C95.5412 62.3463 95.6743 62.148 95.7654 61.9297C95.8565 61.7113 95.9037 61.4771 95.9043 61.2405L95.9435 44.0098H95.9734C95.9734 42.8001 95.7269 42.4845 95.181 42.0236Z" fill="url(#paint5_linear)"/>
<path d="M94.5547 44.261C94.5547 43.1596 94.3244 42.8785 93.8314 42.4522L80.4556 32.3898C80.2666 32.2479 80.0366 32.1712 79.8003 32.1712C79.5639 32.1712 79.334 32.2479 79.145 32.3898L66.0041 42.178C65.688 42.4039 65.4337 42.7056 65.2646 43.0555C65.0956 43.4054 65.0172 43.7922 65.0367 44.1803H65.0228L64.9883 59.2589V59.9294C64.9877 60.3653 65.16 60.7837 65.4675 61.0926C65.775 61.4015 66.1925 61.5756 66.6283 61.5769H67.2756L79.7369 61.6045L92.8456 61.6345C93.2813 61.6351 93.6996 61.4626 94.0084 61.155C94.3172 60.8474 94.4913 60.4298 94.4925 59.9939L94.527 44.2725L94.5547 44.261Z" fill="url(#paint6_linear)"/>
<path d="M65.2642 44.2407L94.2477 44.3065L94.2115 60.2583C94.2113 60.3847 94.1861 60.5099 94.1374 60.6267C94.0888 60.7434 94.0176 60.8494 93.928 60.9387C93.8384 61.0279 93.7321 61.0986 93.6152 61.1467C93.4982 61.1949 93.373 61.2195 93.2465 61.2192L66.2969 61.1581C66.0153 61.1574 65.7454 61.0449 65.5467 60.8452C65.348 60.6456 65.2368 60.3751 65.2374 60.0934L65.2734 44.2407L65.2642 44.2407Z" fill="#6A6B9B"/>
<path opacity="0.2" d="M65.2642 44.2407L94.2477 44.3065L94.2115 60.2583C94.2113 60.3847 94.1861 60.5099 94.1374 60.6267C94.0888 60.7434 94.0176 60.8494 93.928 60.9387C93.8384 61.0279 93.7321 61.0986 93.6152 61.1467C93.4982 61.1949 93.373 61.2195 93.2465 61.2192L66.2969 61.1581C66.0153 61.1574 65.7454 61.0449 65.5467 60.8452C65.348 60.6456 65.2368 60.3751 65.2374 60.0934L65.2734 44.2407L65.2642 44.2407Z" fill="white"/>
<path d="M65.2666 44.2356L65.2344 58.8879C65.2338 59.1835 65.2914 59.4763 65.4039 59.7497C65.5165 60.0231 65.6817 60.2716 65.8903 60.481C66.0988 60.6905 66.3465 60.8568 66.6193 60.9705C66.8922 61.0842 67.1847 61.143 67.4802 61.1437L91.963 61.199" fill="#F5F5F5"/>
<path d="M94.2525 44.3001L94.2203 58.9616C94.2196 59.2573 94.1608 59.5499 94.0472 59.8228C93.9335 60.0957 93.7673 60.3435 93.5579 60.5521C93.3485 60.7607 93.1 60.926 92.8268 61.0386C92.5535 61.1512 92.2607 61.2088 91.9652 61.2082L67.4824 61.1529" fill="white"/>
<path d="M79.1425 32.7723L66.2435 42.2886C65.9337 42.5065 65.684 42.7993 65.5177 43.1398C65.3513 43.4802 65.2738 43.8571 65.2922 44.2356L94.2897 44.3278C94.2897 43.2563 94.0593 42.9752 93.5802 42.5697L80.4394 32.7769C80.2528 32.6359 80.0256 32.5592 79.7917 32.5583C79.5579 32.5575 79.3301 32.6326 79.1425 32.7723Z" fill="#393B73"/>
<path opacity="0.2" d="M79.1425 32.7723L66.2435 42.2886C65.9337 42.5065 65.684 42.7993 65.5177 43.1398C65.3513 43.4802 65.2738 43.8571 65.2922 44.2356L94.2897 44.3278C94.2897 43.2563 94.0593 42.9752 93.5802 42.5697L80.4394 32.7769C80.2528 32.6359 80.0256 32.5592 79.7917 32.5583C79.5579 32.5575 79.3301 32.6326 79.1425 32.7723Z" fill="#6A6B9B"/>
<path d="M91.1132 36.0834L87.6051 33.3322L79.1263 44.0743L74.5702 40.5397L71.7163 44.1688L78.3478 49.2357L79.9924 50.556L91.1132 36.0834Z" fill="url(#paint7_linear)"/>
<path d="M90.8554 36.0166L87.6768 33.5788L79.2532 44.5674L74.575 40.9798L72.1357 44.1596L78.4033 48.9615L80.011 50.1665L90.8554 36.0166Z" fill="#1CC5B7"/>
<path d="M63.79 71.3857C62.5552 73.3343 60.5999 74.7149 58.3509 75.226C56.102 75.7372 53.7422 75.3374 51.787 74.1139L30.0199 59.9363C28.072 58.7011 26.6919 56.7451 26.1809 54.4954C25.6699 52.2457 26.0696 49.8851 27.2927 47.9292C28.5274 45.9807 30.4828 44.6001 32.7317 44.0889C34.9807 43.5777 37.3404 43.9776 39.2957 45.2011L61.0628 59.3787C63.0107 60.6138 64.3908 62.5699 64.9018 64.8196C65.4128 67.0693 65.0131 69.4298 63.79 71.3857Z" fill="url(#paint8_linear)"/>
<path d="M62.6339 70.6392C61.4778 72.4642 59.6467 73.7573 57.5405 74.2361C55.4344 74.7149 53.2244 74.3404 51.3934 73.1945L31.006 59.9156C29.1816 58.759 27.8889 56.9273 27.4103 54.8204C26.9317 52.7136 27.306 50.5028 28.4515 48.6712C29.6076 46.8462 31.4388 45.5531 33.5449 45.0743C35.6511 44.5955 37.861 44.9699 39.6921 46.1158L60.0795 59.3948C61.9038 60.5513 63.1965 62.3831 63.6751 64.49C64.1538 66.5968 63.7794 68.8075 62.6339 70.6392Z" fill="#BA867C"/>
<path d="M59.3496 94.8008C58.1209 96.7408 56.1746 98.1155 53.9359 98.6245C51.6972 99.1335 49.3481 98.7355 47.4019 97.5174L30.2231 86.3998C28.2838 85.1707 26.9096 83.2237 26.4007 80.9843C25.8919 78.7448 26.2897 76.3949 27.5074 74.448C28.7361 72.508 30.6824 71.1333 32.9211 70.6243C35.1598 70.1153 37.5089 70.5133 39.4551 71.7314L56.6316 82.8513C58.5707 84.08 59.9449 86.0264 60.4542 88.2653C60.9634 90.5042 60.5663 92.8538 59.3496 94.8008Z" fill="url(#paint9_linear)"/>
<path d="M55.0373 118.336C53.7977 120.293 51.8338 121.681 49.5748 122.195C47.3158 122.708 44.9453 122.307 42.9813 121.078L32.3419 113.313C30.3848 112.073 28.9979 110.108 28.4843 107.848C27.9707 105.588 28.3721 103.217 29.6009 101.252C30.842 99.2962 32.8065 97.9108 35.0654 97.3987C37.3244 96.8867 39.694 97.2897 41.6569 98.5197L52.2963 106.283C54.2515 107.522 55.637 109.486 56.1506 111.744C56.6641 114.002 56.2639 116.372 55.0373 118.336Z" fill="url(#paint10_linear)"/>
<path d="M54.178 117.757C53.0219 119.582 51.1908 120.875 49.0846 121.354C46.9785 121.833 44.7685 121.459 42.9375 120.313L33.0167 113.073C31.1924 111.916 29.8997 110.085 29.4211 107.978C28.9424 105.871 29.3167 103.66 30.4622 101.829C31.6184 100.004 33.4495 98.7104 35.5557 98.2316C37.6618 97.7528 39.8718 98.1273 41.7028 99.2732L51.6236 106.513C53.4479 107.669 54.7406 109.501 55.2192 111.608C55.6979 113.715 55.3235 115.926 54.178 117.757Z" fill="#BA867C"/>
<path d="M103.464 74.5563H56.4746V88.6118H103.464V74.5563Z" fill="url(#paint11_linear)"/>
<path d="M101.851 75.9388H58.0869V86.0772H101.851V75.9388Z" fill="#1CC5B7"/>
<path d="M183.173 49.4292L184 49.5583L183.871 49.4362H183.94L183.832 49.3993L168.839 35.1756L165.2 40.9199L162.173 46.1596L163.576 46.3785L162.954 49.2173L183.173 49.4292Z" fill="url(#paint12_linear)"/>
<path d="M165.829 41.2194L163.064 46.0144L183.334 49.3163L170.279 40.2217L165.829 41.2194Z" fill="#6A6B9B"/>
<path opacity="0.2" d="M165.829 41.2194L163.064 46.0144L183.334 49.3163L170.279 40.2217L165.829 41.2194Z" fill="black"/>
<path d="M169.157 35.9659L183.334 49.3163L165.829 41.2194L169.157 35.9659Z" fill="#282852"/>
<path d="M163.811 48.8324L183.279 49.2034L165.105 42.7471L163.811 48.8324Z" fill="#282852"/>
<path d="M58.4048 94.1994C57.2486 96.0244 55.4175 97.3175 53.3113 97.7963C51.2052 98.2751 48.9952 97.9006 47.1642 96.7548L31.0035 86.2938C29.1792 85.1373 27.8865 83.3055 27.4079 81.1986C26.9292 79.0918 27.3036 76.8811 28.4491 75.0494C29.6034 73.2225 31.4337 71.927 33.5399 71.446C35.6462 70.965 37.8572 71.3377 39.6896 72.4825L55.8503 82.9435C57.6778 84.1001 58.9727 85.934 59.4515 88.0437C59.9303 90.1533 59.5539 92.3668 58.4048 94.1994Z" fill="#BA867C"/>
</g>
<defs>
<linearGradient id="paint0_linear" x1="90.1367" y1="165.502" x2="90.1367" y2="98.8584" gradientUnits="userSpaceOnUse">
<stop stop-color="#808080" stop-opacity="0.25"/>
<stop offset="0.54" stop-color="#808080" stop-opacity="0.12"/>
<stop offset="1" stop-color="#808080" stop-opacity="0.1"/>
</linearGradient>
<linearGradient id="paint1_linear" x1="17767.6" y1="10167.2" x2="17767.6" y2="5029.44" gradientUnits="userSpaceOnUse">
<stop stop-color="#808080" stop-opacity="0.25"/>
<stop offset="0.54" stop-color="#808080" stop-opacity="0.12"/>
<stop offset="1" stop-color="#808080" stop-opacity="0.1"/>
</linearGradient>
<linearGradient id="paint2_linear" x1="40510.8" y1="87733" x2="40510.8" y2="9695.73" gradientUnits="userSpaceOnUse">
<stop stop-color="#808080" stop-opacity="0.25"/>
<stop offset="0.54" stop-color="#808080" stop-opacity="0.12"/>
<stop offset="1" stop-color="#808080" stop-opacity="0.1"/>
</linearGradient>
<linearGradient id="paint3_linear" x1="21283.2" y1="38394.6" x2="21283.2" y2="20682.3" gradientUnits="userSpaceOnUse">
<stop stop-color="#808080" stop-opacity="0.25"/>
<stop offset="0.54" stop-color="#808080" stop-opacity="0.12"/>
<stop offset="1" stop-color="#808080" stop-opacity="0.1"/>
</linearGradient>
<linearGradient id="paint4_linear" x1="43516.6" y1="13298.8" x2="43516.6" y2="12201.8" gradientUnits="userSpaceOnUse">
<stop stop-color="#808080" stop-opacity="0.25"/>
<stop offset="0.54" stop-color="#808080" stop-opacity="0.12"/>
<stop offset="1" stop-color="#808080" stop-opacity="0.1"/>
</linearGradient>
<linearGradient id="paint5_linear" x1="79.769" y1="63.0354" x2="79.769" y2="30.7447" gradientUnits="userSpaceOnUse">
<stop stop-opacity="0.12"/>
<stop offset="0.55" stop-opacity="0.09"/>
<stop offset="1" stop-opacity="0.02"/>
</linearGradient>
<linearGradient id="paint6_linear" x1="16168.3" y1="10045.5" x2="16168.3" y2="6278.38" gradientUnits="userSpaceOnUse">
<stop stop-color="#808080" stop-opacity="0.25"/>
<stop offset="0.54" stop-color="#808080" stop-opacity="0.12"/>
<stop offset="1" stop-color="#808080" stop-opacity="0.1"/>
</linearGradient>
<linearGradient id="paint7_linear" x1="10709" y1="5069.23" x2="10712" y2="3780.38" gradientUnits="userSpaceOnUse">
<stop stop-opacity="0.12"/>
<stop offset="0.55" stop-opacity="0.09"/>
<stop offset="1" stop-opacity="0.02"/>
</linearGradient>
<linearGradient id="paint8_linear" x1="15533.3" y1="12668" x2="15533.3" y2="8341.76" gradientUnits="userSpaceOnUse">
<stop stop-color="#808080" stop-opacity="0.25"/>
<stop offset="0.54" stop-color="#808080" stop-opacity="0.12"/>
<stop offset="1" stop-color="#808080" stop-opacity="0.1"/>
</linearGradient>
<linearGradient id="paint9_linear" x1="13367.8" y1="14326.5" x2="13367.8" y2="10817.9" gradientUnits="userSpaceOnUse">
<stop stop-color="#808080" stop-opacity="0.25"/>
<stop offset="0.54" stop-color="#808080" stop-opacity="0.12"/>
<stop offset="1" stop-color="#808080" stop-opacity="0.1"/>
</linearGradient>
<linearGradient id="paint10_linear" x1="10765.5" y1="15328.9" x2="10765.5" y2="12565.3" gradientUnits="userSpaceOnUse">
<stop stop-color="#808080" stop-opacity="0.25"/>
<stop offset="0.54" stop-color="#808080" stop-opacity="0.12"/>
<stop offset="1" stop-color="#808080" stop-opacity="0.1"/>
</linearGradient>
<linearGradient id="paint11_linear" x1="16370.2" y1="5479.87" x2="16370.2" y2="4622.49" gradientUnits="userSpaceOnUse">
<stop stop-opacity="0.12"/>
<stop offset="0.55" stop-opacity="0.09"/>
<stop offset="1" stop-opacity="0.02"/>
</linearGradient>
<linearGradient id="paint12_linear" x1="15248.4" y1="15251.4" x2="15750" y2="14460.1" gradientUnits="userSpaceOnUse">
<stop stop-color="#808080" stop-opacity="0.25"/>
<stop offset="0.54" stop-color="#808080" stop-opacity="0.12"/>
<stop offset="1" stop-color="#808080" stop-opacity="0.1"/>
</linearGradient>
<clipPath id="clip0">
<rect width="184" height="174" fill="white"/>
</clipPath>
</defs>
</svg>
