<svg width="93" height="40" viewBox="0 0 93 40" fill="none" xmlns="http://www.w3.org/2000/svg">
<rect width="93" height="40" rx="20" fill="white"/>
<rect x="57" y="4" width="32" height="32" rx="16" fill="#050211"/>
<g clip-path="url(#clip0)">
<path d="M68.7574 25.3033L67.6969 26.3638C67.4044 26.6566 66.9289 26.6566 66.6364 26.3638C66.3435 26.0709 66.3435 25.5961 66.6364 25.3033L67.6969 24.2428C67.8432 24.0961 68.0352 24.023 68.2272 24.023C68.4192 24.023 68.6112 24.0961 68.7574 24.2428C69.0503 24.5356 69.0503 25.0104 68.7574 25.3033Z" fill="white"/>
<path d="M66.25 20.75H64.75C64.336 20.75 64 20.414 64 20C64 19.586 64.336 19.25 64.75 19.25H66.25C66.664 19.25 67 19.586 67 20C67 20.414 66.664 20.75 66.25 20.75Z" fill="white"/>
<path d="M68.7574 15.7572C68.4649 16.0501 67.9894 16.0501 67.6969 15.7572L66.6364 14.6967C66.3435 14.4039 66.3435 13.9291 66.6364 13.6362C66.7827 13.4896 66.9747 13.4165 67.1667 13.4165C67.3587 13.4165 67.5507 13.4896 67.6969 13.6362L68.7574 14.6967C69.0503 14.9896 69.0503 15.4644 68.7574 15.7572Z" fill="white"/>
<path d="M73 14C72.586 14 72.25 13.664 72.25 13.25V11.75C72.25 11.336 72.586 11 73 11C73.414 11 73.75 11.336 73.75 11.75V13.25C73.75 13.664 73.414 14 73 14Z" fill="white"/>
<path d="M79.3638 14.6967L78.3033 15.7572C78.0108 16.0501 77.5353 16.0501 77.2428 15.7572C76.95 15.4644 76.95 14.9896 77.2428 14.6967L78.3033 13.6362C78.4496 13.4896 78.6416 13.4165 78.8336 13.4165C79.0256 13.4165 79.2176 13.4896 79.3638 13.6362C79.6567 13.9291 79.6567 14.4039 79.3638 14.6967Z" fill="white"/>
<path d="M81.25 20.75H79.75C79.336 20.75 79 20.414 79 20C79 19.586 79.336 19.25 79.75 19.25H81.25C81.664 19.25 82 19.586 82 20C82 20.414 81.664 20.75 81.25 20.75Z" fill="white"/>
<path d="M79.3638 26.3638C79.0713 26.6566 78.5958 26.6566 78.3033 26.3638L77.2428 25.3033C76.95 25.0104 76.95 24.5356 77.2428 24.2428C77.3891 24.0961 77.5811 24.023 77.7731 24.023C77.9651 24.023 78.1571 24.0961 78.3033 24.2428L79.3638 25.3033C79.6567 25.5961 79.6567 26.0709 79.3638 26.3638Z" fill="white"/>
<path d="M73 29C72.586 29 72.25 28.664 72.25 28.25V26.75C72.25 26.336 72.586 26 73 26C73.414 26 73.75 26.336 73.75 26.75V28.25C73.75 28.664 73.414 29 73 29Z" fill="white"/>
<path d="M73 24.875C70.312 24.875 68.125 22.688 68.125 20C68.125 17.312 70.312 15.125 73 15.125C75.688 15.125 77.875 17.312 77.875 20C77.875 22.688 75.688 24.875 73 24.875ZM73 16.625C71.1392 16.625 69.625 18.1393 69.625 20C69.625 21.8608 71.1392 23.375 73 23.375C74.8607 23.375 76.375 21.8608 76.375 20C76.375 18.1393 74.8607 16.625 73 16.625Z" fill="white"/>
</g>
<defs>
<clipPath id="clip0">
<rect width="18" height="18" fill="white" transform="matrix(1 0 0 -1 64 29)"/>
</clipPath>
</defs>
</svg>
