<svg width="1087" height="842" viewBox="0 0 1087 842" fill="none" xmlns="http://www.w3.org/2000/svg">
<g id="form-user-icon" clip-path="url(#clip0)">
<path id="Vector" opacity="0.1" d="M54.88 39.2C25.12 58.4 3.01003 92.93 0.310026 130.73C-3.59997 185.73 31.49 234.49 68.89 271.23C106.29 307.97 149.4 341.12 171.2 390.79C195.12 445.4 186.95 515.13 151.2 561.31C135.82 581.19 114.4 601.31 117.31 627.23C120.03 651.41 144.66 666.5 166.8 665.37C188.94 664.24 208.99 651.45 228.32 639.53C297.62 596.78 373.14 560.16 452.6 559.47C537.79 558.74 618.25 599.12 695.46 638.68L806.46 695.57C829.54 707.4 853.21 719.41 878.57 721.96C903.93 724.51 929.68 717.26 952.2 704.15C976.3 690.15 998.2 667.21 1003.13 637.73C1009.66 598.55 985.13 561.31 981.81 521.64C978.55 482.39 996.36 444.76 1017.09 412.64C1037.82 380.52 1062.32 350.46 1075.75 313.91C1103.34 238.79 1076.47 148.53 1023.41 92.31C970.35 36.09 895.99 9.79999 822.62 2.17999C795.11 -0.680011 767.26 -1.16001 739.93 3.34999C685.51 12.35 635.59 40.63 583.93 61.35C491.59 98.35 388.39 111.19 294.81 78.1C219.48 51.5 132.8 -11.06 54.88 39.2Z" fill="#6C63FF"/>
<path id="Vector_2" opacity="0.1" d="M532 841.46C696.029 841.46 829 819.522 829 792.46C829 765.398 696.029 743.46 532 743.46C367.971 743.46 235 765.398 235 792.46C235 819.522 367.971 841.46 532 841.46Z" fill="#6C63FF"/>
<path id="Vector_3" d="M733.99 440.23V38.46H307.87V561.94H733.99V511.37C733.99 511.37 734.12 455.19 734.12 455.13C734.4 440.73 734.4 454.73 733.99 440.23Z" fill="#A1A3B2"/>
<path id="Vector_4" d="M721.87 53.46H320.17V546.94H721.87V53.46Z" fill="#F4F5F6"/>
<g id="Group" opacity="0.2">
<path id="Vector_5" opacity="0.2" d="M703.4 196.46V164.91C703.4 164.28 703.46 163.58 703.46 162.82C704.623 161.484 705.306 159.798 705.4 158.03C705.4 156.73 705.27 155.17 706.3 154.37C707.07 153.77 708.17 153.91 709.14 153.73C712.39 153.12 713.58 148.94 713.01 145.73C712.44 142.52 710.82 139.34 711.11 136.04C711.43 132.48 713.89 129.55 715.98 126.65C718.07 123.75 719.98 120.14 718.86 116.73C718.09 114.27 715.95 112.51 714.72 110.24C713.13 107.3 713.19 103.76 713.57 100.44C713.95 97.12 714.57 93.76 714.09 90.44C713.61 87.12 711.51 83.81 708.28 82.96C707.287 82.851 706.327 82.5377 705.46 82.04C704.79 81.3212 704.279 80.4694 703.96 79.54C702.52 76.7 699.3 75.24 696.18 74.54C689.72 73.18 684.05 75.94 677.73 75.67C672.9 75.46 663.49 70.67 664.55 79.12C664.782 81.2336 664.44 83.3707 663.56 85.3065C662.68 87.2422 661.295 88.9051 659.55 90.12C656.45 92.2 651.85 93.45 651.43 97.12C651.08 100.23 654.12 102.58 655.43 105.44C657.5 110.11 654.61 115.44 651.43 119.44C650.521 120.375 649.828 121.498 649.4 122.73C648.73 125.32 650.6 127.83 652.46 129.73C654.32 131.63 656.46 133.73 656.46 136.42C656.46 139.11 654.3 141.35 652.67 143.57C651.04 145.79 650.02 149.22 652.06 151.06C653.43 152.29 655.94 152.59 656.2 154.41C656.36 155.5 655.53 156.41 654.86 157.34C650.5 163.13 652.7 172.65 659.15 175.95C661.479 177.018 663.983 177.651 666.54 177.82L665.96 197.82C662.89 198.09 661.06 198.29 661.06 198.29C661.06 198.29 656.51 199.08 649.14 200.08V145.24L646.14 133.92L643.14 127.36L640.14 121.36L637.76 117.78L634.18 120.78L640.18 126.14L646.18 136.87V169.65L640.82 147V144L636.05 140.42L633.05 136.84L636.05 145.18L640.82 151.18L641.4 157.73H637.82L634.24 152.96L636.03 160.71H642.59L644.38 166.71V179.82L637.82 168.5L628.3 166.73L637.84 170.31L644.4 182.79V200.73C639.28 201.38 633.26 202.06 626.71 202.65L626.82 200.99C628.01 200.39 626.22 197.41 626.22 197.41V193.83C632.78 200.98 638.14 195.62 638.14 195.62L630.4 189.05H615.5L611.92 186.05V183.05L610.13 183.65L609.53 185.44L607.15 184.84L606.55 183.05H605.4L606 185.43C606.6 187.81 604.21 191.43 604.21 191.43C603.61 194.43 608.38 193.81 608.38 193.81C608.55 194.405 608.853 194.954 609.265 195.417C609.677 195.879 610.188 196.242 610.76 196.48V203.73C590.83 204.73 569.21 204.28 554.44 199.44C519.87 188.12 490.67 196.44 490.67 196.44C490.67 196.44 478.8 199.09 461.67 201.02L459.21 172.02C459.529 172.189 459.883 172.281 460.244 172.29C460.605 172.299 460.963 172.223 461.29 172.07C463.14 171.07 462.29 168.32 462.72 166.28C463.4 162.97 467.48 161.75 469.61 159.12C471.74 156.49 471.78 152.46 474.08 149.92C475.217 148.896 476.408 147.934 477.65 147.04C481.96 143.24 481.34 135.3 476.51 132.2C475.687 131.769 474.915 131.245 474.21 130.64C471.88 128.25 473.63 124.27 473.21 120.96C472.82 118.11 470.67 115.75 468.15 114.36C463.23 111.73 456.95 110.73 451.55 109.73C451.881 110.695 451.843 111.749 451.444 112.688C451.046 113.628 450.314 114.387 449.39 114.82C448.495 115.138 447.55 115.294 446.6 115.28C445.275 115.242 443.958 115.505 442.75 116.05C442.154 116.338 441.67 116.815 441.374 117.406C441.077 117.997 440.984 118.67 441.11 119.32C441.408 119.942 441.742 120.547 442.11 121.13C443.03 123.21 441.33 125.45 439.79 127.13C438.25 128.81 436.67 131.19 437.79 133.13C438.49 134.35 440.02 134.9 440.79 136.08C442.21 138.24 440.45 141 438.9 143.08C437.35 145.16 436.06 148.35 438.01 150.08C438.774 150.595 439.614 150.987 440.5 151.24C446.74 153.83 446.92 163.57 452.88 166.75C453.664 167.092 454.423 167.49 455.15 167.94C455.52 168.208 455.856 168.52 456.15 168.87C456.25 175.72 456.49 193.49 456.3 201.64C450.04 202.24 443.22 202.72 436.14 202.92V188.63C437.32 188.02 438.35 186.98 439.59 186.43C441.38 185.64 443.43 185.93 445.39 185.79C447.35 185.65 449.56 184.79 450.02 182.86C450.105 181.959 450.105 181.051 450.02 180.15C450.02 179.24 450.53 178.22 451.42 178.06C451.125 176.959 450.706 175.896 450.17 174.89C449.03 172.01 449.73 168.62 448.4 165.82C447.437 164.135 446.124 162.675 444.55 161.54L442.28 159.64C439.46 157.28 436.57 154.89 433.15 153.52C432.24 153.16 431.3 152.88 430.37 152.6C429.73 152.95 429.71 153.9 429.92 154.6C430.266 155.3 430.368 156.095 430.21 156.86C430.036 157.169 429.797 157.436 429.508 157.641C429.219 157.847 428.889 157.987 428.54 158.05C427.499 158.272 426.473 158.563 425.47 158.92C424.968 159.104 424.521 159.412 424.171 159.816C423.821 160.22 423.58 160.707 423.47 161.23C422.225 161.003 420.939 161.223 419.84 161.85C418.84 162.6 418.69 164.49 419.84 164.94C418.868 165.81 418.21 166.976 417.968 168.258C417.725 169.539 417.912 170.865 418.5 172.03C419.32 173.55 420.82 174.72 421.21 176.4C421.56 177.89 420.94 179.53 421.49 180.97C421.886 181.665 422.24 182.383 422.55 183.12C422.71 183.75 422.55 184.43 422.79 185.04C423.022 185.544 423.386 185.976 423.844 186.289C424.302 186.602 424.836 186.786 425.39 186.82C426.49 186.98 427.62 186.82 428.7 187.1C430.23 187.44 431.6 188.48 433.07 188.9L432.07 202.99C423.841 203.124 415.611 202.79 407.42 201.99L406.72 169.31L406.82 169.24C407.044 169.013 407.203 168.73 407.28 168.42C407.97 166.05 406.17 163.02 407.91 161.27C408.76 160.42 410.12 160.33 411.04 159.56C413.04 157.93 411.84 154.56 413.25 152.43C413.97 151.35 415.25 150.79 416.25 149.95C417.058 149.204 417.71 148.304 418.167 147.303C418.624 146.302 418.876 145.22 418.91 144.12C418.964 141.92 418.65 139.726 417.98 137.63C417.51 135.95 416.98 134.17 417.49 132.5C418.06 130.64 419.83 129.34 420.49 127.5C421.49 124.5 419.21 121.45 417.06 119.1C413.73 115.46 411.2 114.1 406.41 113.51C404.83 113.3 403.41 112.59 401.83 112.41C398.83 112.08 399.24 112.96 398.29 115.09C397.5 116.86 394.42 115.9 393.2 117.4C392.926 117.85 392.775 118.364 392.763 118.891C392.751 119.417 392.877 119.938 393.13 120.4C393.644 121.308 394.028 122.285 394.27 123.3C394.45 124.8 393.58 126.22 393.27 127.71C393.09 128.874 393.275 130.066 393.799 131.12C394.324 132.175 395.163 133.041 396.2 133.6C394.836 134.99 393.975 136.795 393.754 138.73C393.533 140.665 393.964 142.618 394.98 144.28C395.829 145.303 396.551 146.424 397.13 147.62C398.13 150.62 395.64 154.37 397.42 157.04C397.75 157.54 398.22 157.95 398.56 158.44C399.9 160.44 399.03 163.09 399.56 165.44C399.841 166.472 400.398 167.408 401.171 168.146C401.945 168.885 402.906 169.398 403.95 169.63L405.03 201.8C402.363 201.493 399.697 201.12 397.03 200.68C392.45 199.92 387.97 199.29 383.62 198.78V183.86C384.8 183.25 385.83 182.21 387.07 181.66C388.86 180.87 390.91 181.16 392.87 181.02C394.83 180.88 397.04 180.02 397.5 178.09C397.585 177.189 397.585 176.281 397.5 175.38C397.5 174.47 398.01 173.45 398.9 173.29C398.605 172.189 398.186 171.126 397.65 170.12C396.51 167.24 397.21 163.85 395.88 161.05C394.942 159.357 393.653 157.884 392.1 156.73L389.83 154.83C387.01 152.47 384.12 150.08 380.7 148.71C379.79 148.35 378.85 148.07 377.92 147.79C377.28 148.14 377.26 149.09 377.47 149.79C377.816 150.49 377.918 151.285 377.76 152.05C377.586 152.359 377.346 152.626 377.058 152.831C376.769 153.037 376.439 153.177 376.09 153.24C375.049 153.462 374.023 153.753 373.02 154.11C372.518 154.294 372.071 154.602 371.721 155.006C371.371 155.41 371.13 155.897 371.02 156.42C369.775 156.193 368.489 156.413 367.39 157.04C366.39 157.79 366.24 159.68 367.39 160.13C366.418 161 365.76 162.166 365.518 163.448C365.275 164.729 365.462 166.055 366.05 167.22C366.87 168.74 368.37 169.91 368.76 171.59C369.11 173.08 368.49 174.72 369.04 176.16C369.436 176.855 369.79 177.573 370.1 178.31C370.26 178.94 370.1 179.62 370.34 180.23C370.572 180.734 370.936 181.166 371.394 181.479C371.852 181.792 372.386 181.976 372.94 182.01C374.04 182.17 375.17 182.01 376.25 182.29C377.78 182.63 379.15 183.67 380.62 184.09L379.62 198.26C373.93 197.67 368.49 197.26 363.38 197.03V169.38L362.19 153.29L372.32 137.79L362.19 150.9L362.55 141.49L363.55 141.76C364.29 141.96 365.24 142.1 365.69 141.47C366.14 140.84 365.74 139.65 366.43 139.21C366.711 139.069 367.029 139.02 367.34 139.07L370.62 139.25C371.88 137.56 368.85 135.55 369.06 133.45C369.2 132.06 370.7 131.26 372.06 130.87C373.42 130.48 374.94 130.18 375.72 129.02C376.89 127.3 375.67 124.85 376.43 122.92C376.891 122.071 377.444 121.277 378.08 120.55C378.393 120.18 378.592 119.727 378.653 119.246C378.713 118.764 378.632 118.276 378.42 117.84C377.992 117.351 377.439 116.987 376.82 116.79C375.412 116.127 374.154 115.183 373.122 114.018C372.09 112.852 371.307 111.488 370.82 110.01C370.596 109.5 370.575 108.925 370.76 108.4C371.12 107.67 372.07 107.5 372.76 107.14C375.09 105.96 375.14 102.57 374.08 100.14C373.533 98.7465 372.578 97.5508 371.34 96.71C370.716 96.3005 369.992 96.07 369.246 96.0436C368.5 96.0171 367.761 96.1957 367.11 96.56C366.475 97.0495 365.892 97.6024 365.37 98.21C364.646 98.8947 363.791 99.425 362.855 99.7689C361.92 100.113 360.925 100.263 359.93 100.21C358.43 100.13 356.62 98.9 357.19 97.5C357.76 96.1 359.9 96.5 361.19 95.63C361.628 95.2777 361.978 94.8291 362.214 94.3191C362.45 93.8092 362.565 93.2517 362.55 92.69C362.74 89.39 361.01 86.09 361.77 82.88C361.978 82.2272 362.132 81.5582 362.23 80.88C362.34 79.27 361.23 77.88 360.03 76.76C358.722 75.8111 357.577 74.656 356.64 73.34C355.64 71.5 355.56 69.23 353.28 68.46C351.27 68.0031 349.167 68.2029 347.28 69.03C345.56 69.88 345.28 70.76 345.74 72.53C346.26 74.47 347.05 76.46 343.74 75.84C342.52 75.62 340.99 75.34 340.29 76.36C339.74 77.17 340.13 78.25 340.23 79.23C340.33 80.21 339.6 81.49 338.69 81.13C338.64 82.42 340.82 82.43 341.49 83.54C341.669 83.9557 341.682 84.4238 341.528 84.8492C341.374 85.2746 341.063 85.6253 340.66 85.83C339.835 86.2097 338.924 86.3649 338.02 86.28C337.431 85.5921 336.906 84.8524 336.45 84.07C335.87 83.37 334.66 82.99 334.12 83.72C333.928 84.0501 333.834 84.4283 333.85 84.81L333.61 89.58C333.57 89.9608 333.59 90.3455 333.67 90.72C333.804 91.0958 333.975 91.4575 334.18 91.8C334.572 92.6235 334.711 93.5448 334.579 94.4473C334.447 95.3498 334.051 96.1929 333.44 96.87L334.78 97.46C334.26 98.72 332.25 97.85 331.03 98.46C330.03 98.92 329.84 100.16 329.78 101.23C329.663 103.092 329.814 104.961 330.23 106.78C330.68 108.64 331.31 111.02 329.74 112.13C329.098 112.478 328.401 112.715 327.68 112.83C327.32 112.891 326.982 113.046 326.701 113.279C326.42 113.513 326.206 113.817 326.08 114.16C325.92 114.87 326.83 115.67 327.38 115.16L326.92 117.94C327.503 118.162 328.137 118.218 328.75 118.1C329.13 119.9 327.22 121.24 325.68 122.24C324.14 123.24 322.57 125.24 323.68 126.69C324.08 127.2 324.75 127.49 325.02 128.08C325.17 128.592 325.221 129.129 325.17 129.66C325.3 132.2 328.32 133.86 328.5 136.4C330.89 136.67 332.34 133.99 333.87 132.13C333.94 132.02 334.032 131.925 334.14 131.853C334.249 131.781 334.371 131.732 334.5 131.71C334.724 131.737 334.932 131.84 335.09 132L337.01 133.56C337.348 132.288 337.42 130.961 337.22 129.66C338.145 129.628 339.071 129.668 339.99 129.78L339.58 135.34V165.14L340.69 196.77C333.844 196.907 327.008 197.388 320.21 198.21V211.32H721.91V198.88C717.18 197.43 710.56 196.73 703.4 196.46ZM360.4 155.08L358.34 140.35L359.94 140.79L360.4 155.08ZM340.73 165.21V129.96C341.824 130.139 342.899 130.42 343.94 130.8C344.557 131.002 345.138 131.303 345.66 131.69C345.79 131.79 345.91 131.9 346.02 132.01L346.09 134.21L344.9 162.82V196.73H342.39L340.73 165.21ZM349.08 196.73V133.63C349.564 133.64 350.044 133.548 350.491 133.36C350.937 133.172 351.338 132.893 351.67 132.54C351.971 133.919 352.724 135.158 353.81 136.06C353.445 136.427 353.181 136.883 353.045 137.382C352.908 137.882 352.903 138.408 353.03 138.91L356.64 139.91L359.2 156.91L360.4 169.98L358.75 196.9C355.4 196.78 352.12 196.73 349.08 196.73ZM625.03 200.37L624.83 202.79L625.83 202.7L624.21 202.84L623.54 199.15L625.03 200.37ZM620.86 197.37L622.05 199.75V203C619.35 203.22 616.58 203.41 613.77 203.58L614.9 197.37H620.86ZM612.3 196.8C612.569 196.825 612.841 196.825 613.11 196.8L612.54 203.68L611.54 203.74L612.3 196.8ZM689.99 161.8C690.92 162.416 691.815 163.084 692.67 163.8V196.3C690.83 196.3 689 196.37 687.2 196.43L685.93 161.61L685.99 161.56C686.614 161.221 687.321 161.066 688.029 161.114C688.737 161.162 689.418 161.41 689.99 161.83V161.8ZM684.05 166.86C684.48 165.69 684.52 164.28 684.92 163.13V196.55L681.34 196.71V169.6C681.952 169.357 682.509 168.991 682.975 168.525C683.441 168.059 683.807 167.502 684.05 166.89V166.86ZM671.81 170.73C672.3 169.27 673.29 168.03 674.71 168.27C675.483 168.524 676.203 168.921 676.83 169.44C677.303 169.726 677.825 169.919 678.37 170.01V196.93C676.02 197.07 673.81 197.22 671.81 197.37V170.73ZM695.65 196.37V165.37C696.474 165.571 697.324 165.642 698.17 165.58C698.09 166.34 698.04 166.77 698.04 166.77L699.66 196.43C698.33 196.34 696.99 196.33 695.65 196.34V196.37Z" fill="#6C63FF"/>
<path id="Vector_6" opacity="0.2" d="M430.18 152.55L430.37 152.61L430.18 152.55Z" fill="#6C63FF"/>
<path id="Vector_7" opacity="0.2" d="M435.4 153.39L430.55 152.61C432.091 153.219 433.746 153.486 435.4 153.39V153.39Z" fill="#6C63FF"/>
<path id="Vector_8" opacity="0.2" d="M377.73 147.73L377.92 147.79L377.73 147.73Z" fill="#6C63FF"/>
<path id="Vector_9" opacity="0.2" d="M382.95 148.62L378.1 147.84C379.641 148.449 381.296 148.716 382.95 148.62V148.62Z" fill="#6C63FF"/>
</g>
<g id="Group_2" opacity="0.2">
<path id="Vector_10" opacity="0.2" d="M674.53 451.73L674.72 451.79L674.53 451.73Z" fill="#6C63FF"/>
<path id="Vector_11" opacity="0.2" d="M679.76 452.58L674.91 451.8C676.451 452.409 678.106 452.676 679.76 452.58Z" fill="#6C63FF"/>
<path id="Vector_12" opacity="0.2" d="M622.09 446.97L622.28 447.03L622.09 446.97Z" fill="#6C63FF"/>
<path id="Vector_13" opacity="0.2" d="M627.31 447.81L622.46 447.03C624.001 447.639 625.656 447.906 627.31 447.81V447.81Z" fill="#6C63FF"/>
<path id="Vector_14" opacity="0.2" d="M705.63 471.28C707.48 470.28 706.63 467.53 707.06 465.49C707.74 462.18 711.82 460.96 713.95 458.33C716.08 455.7 716.12 451.67 718.42 449.13C719.557 448.106 720.749 447.144 721.99 446.25C726.3 442.45 725.68 434.51 720.85 431.41C720.027 430.979 719.255 430.455 718.55 429.85C716.22 427.46 717.97 423.48 717.55 420.17C717.16 417.32 715.01 414.96 712.49 413.57C707.62 410.88 701.34 409.94 695.95 408.93C696.281 409.896 696.243 410.949 695.844 411.888C695.446 412.828 694.714 413.587 693.79 414.02C692.895 414.338 691.95 414.494 691 414.48C689.675 414.442 688.358 414.705 687.15 415.25C686.554 415.538 686.071 416.015 685.774 416.606C685.477 417.198 685.384 417.87 685.51 418.52C685.808 419.142 686.142 419.747 686.51 420.33C687.43 422.41 685.73 424.65 684.19 426.33C682.65 428.01 681.07 430.39 682.19 432.33C682.89 433.55 684.42 434.1 685.19 435.28C686.61 437.44 684.85 440.2 683.3 442.28C681.75 444.36 680.46 447.55 682.41 449.28C683.174 449.795 684.014 450.187 684.9 450.44C691.14 453.03 691.32 462.77 697.28 465.95C698.064 466.292 698.823 466.69 699.55 467.14C699.92 467.408 700.256 467.72 700.55 468.07C700.64 474.34 700.85 489.77 700.74 498.59L685.01 498.08L681.43 497.92V487.27C682.231 486.64 683.088 486.085 683.99 485.61C685.78 484.82 687.83 485.11 689.79 484.97C691.75 484.83 693.96 483.97 694.42 482.04C694.505 481.139 694.505 480.231 694.42 479.33C694.42 478.42 694.93 477.4 695.82 477.24C695.525 476.139 695.106 475.076 694.57 474.07C693.43 471.19 694.13 467.8 692.8 465C691.822 463.313 690.491 461.857 688.9 460.73L686.63 458.83C683.81 456.47 680.92 454.08 677.5 452.71C676.59 452.35 675.65 452.07 674.72 451.79C674.08 452.14 674.06 453.09 674.27 453.79C674.616 454.49 674.718 455.285 674.56 456.05C674.386 456.359 674.147 456.626 673.858 456.831C673.569 457.037 673.239 457.177 672.89 457.24C671.849 457.462 670.823 457.753 669.82 458.11C669.318 458.294 668.871 458.602 668.521 459.006C668.171 459.41 667.93 459.897 667.82 460.42C666.575 460.193 665.289 460.413 664.19 461.04C663.19 461.79 663.04 463.68 664.19 464.13C663.218 465 662.56 466.166 662.318 467.448C662.075 468.73 662.262 470.055 662.85 471.22C663.67 472.74 665.17 473.91 665.56 475.59C665.91 477.08 665.29 478.72 665.84 480.16C666.236 480.855 666.59 481.573 666.9 482.31C667.06 482.94 666.9 483.62 667.14 484.23C667.372 484.734 667.736 485.166 668.194 485.479C668.652 485.792 669.186 485.976 669.74 486.01C670.84 486.17 671.97 486.01 673.05 486.29C674.83 486.68 676.41 488.03 678.15 488.29L677.5 497.73L651.68 496.57L651.08 468.57L651.18 468.5C651.404 468.273 651.563 467.99 651.64 467.68C652.33 465.31 650.53 462.28 652.27 460.53C653.12 459.68 654.48 459.59 655.4 458.82C657.4 457.19 656.2 453.82 657.61 451.69C658.33 450.61 659.61 450.05 660.61 449.21C661.419 448.464 662.07 447.564 662.527 446.563C662.984 445.562 663.236 444.48 663.27 443.38C663.324 441.18 663.01 438.986 662.34 436.89C661.87 435.21 661.34 433.43 661.85 431.76C662.42 429.9 664.19 428.6 664.85 426.76C665.85 423.76 663.57 420.71 661.42 418.36C658.09 414.72 655.56 413.36 650.77 412.77C649.19 412.56 647.77 411.85 646.19 411.67C643.19 411.34 643.6 412.22 642.65 414.35C641.86 416.12 638.78 415.16 637.56 416.66C637.286 417.11 637.135 417.624 637.123 418.151C637.111 418.677 637.237 419.198 637.49 419.66C638.004 420.568 638.388 421.545 638.63 422.56C638.81 424.06 637.94 425.48 637.63 426.97C637.45 428.134 637.635 429.326 638.16 430.38C638.684 431.435 639.523 432.301 640.56 432.86C639.212 434.255 638.367 436.058 638.157 437.986C637.947 439.915 638.384 441.858 639.4 443.51C640.249 444.533 640.971 445.654 641.55 446.85C642.55 449.85 640.06 453.6 641.84 456.27C642.17 456.77 642.64 457.18 642.98 457.67C644.32 459.67 643.45 462.32 643.98 464.67C644.261 465.702 644.818 466.638 645.592 467.376C646.365 468.115 647.326 468.628 648.37 468.86L649.3 496.53L627.13 495.53V483.4C628.72 482.97 629.93 481.53 631.48 480.84C633.27 480.05 635.32 480.34 637.28 480.2C639.24 480.06 641.45 479.2 641.91 477.27C641.995 476.369 641.995 475.461 641.91 474.56C641.91 473.65 642.42 472.63 643.31 472.47C643.015 471.369 642.596 470.306 642.06 469.3C640.92 466.42 641.62 463.03 640.29 460.23C639.327 458.545 638.014 457.085 636.44 455.95L634.17 454.05C631.35 451.69 628.46 449.3 625.04 447.93C624.13 447.57 623.19 447.29 622.26 447.01C621.62 447.36 621.6 448.31 621.81 449.01C622.156 449.71 622.258 450.505 622.1 451.27C621.926 451.579 621.687 451.846 621.398 452.051C621.109 452.257 620.779 452.397 620.43 452.46C619.389 452.682 618.363 452.973 617.36 453.33C616.858 453.514 616.411 453.822 616.061 454.226C615.711 454.63 615.47 455.117 615.36 455.64C614.115 455.413 612.829 455.633 611.73 456.26C610.73 457.01 610.58 458.9 611.73 459.35C610.758 460.22 610.1 461.386 609.858 462.668C609.615 463.95 609.802 465.275 610.39 466.44C611.21 467.96 612.71 469.13 613.1 470.81C613.45 472.3 612.83 473.94 613.38 475.38C613.776 476.075 614.13 476.793 614.44 477.53C614.6 478.16 614.44 478.84 614.68 479.45C614.912 479.954 615.276 480.386 615.734 480.699C616.192 481.012 616.726 481.196 617.28 481.23C618.38 481.39 619.51 481.23 620.59 481.51C621.711 481.85 622.793 482.306 623.82 482.87L622.94 495.25L607.71 494.57V468.57L606.52 452.48L616.65 436.98L606.52 450.09L606.88 440.68L607.88 440.95C608.62 441.15 609.57 441.29 610.02 440.66C610.47 440.03 610.07 438.84 610.76 438.4C611.041 438.259 611.36 438.21 611.67 438.26L614.95 438.44C616.21 436.75 613.18 434.74 613.39 432.64C613.53 431.25 615.03 430.45 616.39 430.06C617.75 429.67 619.27 429.37 620.05 428.21C621.22 426.49 620 424.04 620.76 422.11C621.217 421.258 621.767 420.46 622.4 419.73C622.713 419.36 622.912 418.907 622.973 418.426C623.033 417.944 622.952 417.456 622.74 417.02C622.313 416.531 621.759 416.167 621.14 415.97C619.732 415.307 618.474 414.363 617.442 413.198C616.41 412.032 615.627 410.668 615.14 409.19C614.916 408.68 614.895 408.105 615.08 407.58C615.44 406.85 616.39 406.68 617.08 406.32C619.41 405.14 619.46 401.75 618.4 399.32C617.854 397.926 616.898 396.731 615.66 395.89C615.036 395.481 614.312 395.25 613.566 395.224C612.82 395.197 612.081 395.376 611.43 395.74C610.796 396.23 610.212 396.782 609.69 397.39C608.966 398.075 608.111 398.605 607.175 398.949C606.24 399.293 605.245 399.443 604.25 399.39C602.75 399.31 600.94 398.08 601.51 396.68C602.08 395.28 604.22 395.68 605.51 394.81C605.948 394.458 606.298 394.009 606.534 393.499C606.77 392.989 606.885 392.432 606.87 391.87C607.06 388.57 605.33 385.27 606.09 382.06C606.298 381.407 606.452 380.738 606.55 380.06C606.66 378.45 605.55 377.06 604.35 375.94C603.042 374.991 601.897 373.836 600.96 372.52C599.96 370.68 599.88 368.41 597.6 367.64C595.591 367.183 593.488 367.383 591.6 368.21C589.88 369.06 589.6 369.94 590.06 371.71C590.58 373.65 591.37 375.64 588.06 375.02C586.84 374.8 585.31 374.52 584.61 375.54C584.06 376.35 584.45 377.43 584.55 378.41C584.65 379.39 583.92 380.67 583.01 380.31C582.96 381.6 585.14 381.61 585.81 382.72C585.989 383.136 586.002 383.604 585.848 384.029C585.694 384.455 585.383 384.805 584.98 385.01C584.155 385.39 583.244 385.545 582.34 385.46C581.751 384.772 581.226 384.032 580.77 383.25C580.19 382.55 578.98 382.17 578.44 382.9C578.248 383.23 578.154 383.608 578.17 383.99L577.93 388.76C577.89 389.141 577.91 389.526 577.99 389.9C578.124 390.276 578.295 390.638 578.5 390.98C578.892 391.804 579.031 392.725 578.899 393.627C578.767 394.53 578.371 395.373 577.76 396.05L579.1 396.64C578.58 397.9 576.57 397.03 575.35 397.64C574.35 398.1 574.16 399.34 574.1 400.41C573.983 402.272 574.134 404.141 574.55 405.96C575 407.82 575.63 410.2 574.06 411.31C573.418 411.658 572.721 411.895 572 412.01C571.64 412.071 571.302 412.226 571.021 412.459C570.74 412.693 570.526 412.997 570.4 413.34C570.24 414.05 571.15 414.85 571.7 414.34L571.24 417.12C571.823 417.342 572.457 417.398 573.07 417.28C573.45 419.08 571.54 420.42 570 421.42C568.46 422.42 566.89 424.42 568 425.87C568.4 426.38 569.07 426.67 569.34 427.26C569.49 427.772 569.541 428.309 569.49 428.84C569.62 431.38 572.64 433.04 572.82 435.58C575.21 435.85 576.66 433.17 578.19 431.31C578.26 431.2 578.352 431.105 578.46 431.033C578.569 430.961 578.691 430.912 578.82 430.89C579.044 430.917 579.252 431.02 579.41 431.18L581.33 432.74C581.668 431.468 581.74 430.141 581.54 428.84C582.465 428.808 583.391 428.848 584.31 428.96L583.9 434.52V464.32L584.98 495.2C569.98 497.98 534.6 503.54 515.66 497.99C504.822 494.906 493.658 493.113 482.4 492.65L474.4 427.32C476.198 426.53 477.644 425.107 478.46 423.32C479.11 422.06 479.73 420.57 481.08 420.11C482.088 419.911 483.132 420.015 484.08 420.41C488.165 421.734 492.578 421.636 496.6 420.13C504.1 416.96 507.39 408.33 509.9 400.59C510.74 398 511.36 394.65 509.2 393.01C508 392.1 506.2 392.01 505.27 390.86C504.689 389.907 504.372 388.816 504.35 387.7C503.886 385.088 502.569 382.704 500.606 380.92C498.643 379.136 496.144 378.053 493.5 377.84C490.99 371.49 485.02 367 478.6 364.68C472.201 362.356 465.397 361.356 458.6 361.74C457.91 369.12 445.29 378.06 458.84 381.36C457.22 381.508 455.691 382.17 454.474 383.249C453.258 384.329 452.419 385.769 452.08 387.36C451.836 389.016 452.158 390.707 452.992 392.158C453.827 393.609 455.126 394.737 456.68 395.36L451.87 407.23C451.304 408.381 450.964 409.631 450.87 410.91C450.87 413.38 452.64 415.44 454.31 417.26C457.66 420.9 461.15 424.63 465.66 426.65L472.45 492.65C470.7 492.71 469.73 492.79 469.73 492.79C469.73 492.79 467.73 493.29 464.2 494.07L462.78 483.72C465.63 479.41 464.43 473.17 460.78 469.43C459.789 468.29 458.456 467.5 456.98 467.18C453.76 466.68 451.12 469.55 449.14 472.18L449.42 472.02C448.701 472.926 448.3 474.044 448.28 475.2C448.28 477.32 449.28 479.3 450.28 481.2C450.606 482.039 451.204 482.744 451.98 483.2C453.51 483.88 455.66 482.59 456.84 483.79C456.883 483.841 456.923 483.894 456.96 483.95L458.74 495.34C454.53 496.23 449.34 497.27 443.58 498.34L438.81 466.52L439.23 466.7C441.42 467.64 444.23 467.91 446 466.34C446.768 465.494 447.438 464.565 448 463.57C449.86 460.97 453 459.57 455.24 457.34C457.48 455.11 458.78 451.02 456.4 448.88C455.893 448.536 455.445 448.114 455.07 447.63C454.812 447.05 454.716 446.411 454.79 445.78C454.813 443.409 454.476 441.049 453.79 438.78C453.397 437.093 452.526 435.554 451.28 434.35C450.647 433.764 449.848 433.391 448.993 433.281C448.138 433.172 447.27 433.332 446.51 433.74C446.86 433.51 440.88 425.9 438.91 426.05C437.39 426.17 434.32 430.62 432.26 431.83C429.96 433.18 418.57 435.51 425.11 439.16C423.58 441.87 418.67 444.84 419.74 448.49C420.12 449.8 421.27 450.74 421.86 451.97C423.11 454.57 421.61 457.56 420.86 460.33C420.11 463.1 420.8 467.07 423.67 467.33C421.95 467.42 421.04 469.68 421.67 471.27C422.3 472.86 423.97 473.8 425.56 474.44C427.213 474.931 428.774 475.691 430.18 476.69L432.18 473.38L436.37 499.51C426.94 501.03 416.55 502.38 406.67 502.98C408.17 497.6 404.67 465.91 401.32 439.39C405.96 440.92 407.68 431.83 412.57 431.14C414.31 430.89 416 431.84 417.75 431.96C421.75 432.24 424.82 428.23 425.33 424.3C425.84 420.37 424.55 416.46 423.86 412.56C423.17 408.66 423.2 404.22 425.86 401.26C430.42 402.02 434.07 396.63 433.44 392.05C432.81 387.47 429.44 383.79 426.28 380.44L414.13 367.33C415.13 368.33 401.82 373.17 400.72 373.38C395.765 374.254 390.706 374.355 385.72 373.68C382.49 373.27 379.45 371.44 376.48 373.62C373.25 375.98 373.02 381.1 377.14 382.48C376.55 386.12 372.83 388.22 372.23 391.87C371.32 397.48 379.53 402.45 376.99 407.53C372.589 408.783 368.723 411.451 365.99 415.12L357.53 416.68C356.805 416.734 356.112 416.994 355.53 417.43C354.13 418.71 355.3 421.02 356.6 422.43C362.527 428.732 370.377 432.889 378.92 434.25C380.633 434.372 382.309 434.813 383.86 435.55C384.69 436.04 385.43 436.74 386.23 437.25V502.25L392.63 503.09L388.73 437.89C391.34 437.6 393.73 434.64 396.33 435.37C396.946 435.567 397.506 435.91 397.96 436.37C397.96 466.3 396.37 503.18 396.37 503.18C393.47 503.18 390.68 503.08 388.02 502.88C378.43 502.14 368.27 501.88 358.82 501.82L359.89 492.94C360.167 490.649 359.976 488.325 359.33 486.11L357.33 479.33H359.09C362.09 482.91 361.77 501.68 361.77 501.68H363.56V482.58L364.16 473.64C364.16 473.64 368.93 463.51 370.72 471.26C372.51 479.01 377.28 475.43 377.28 475.43C379.07 470.66 375.49 464.11 375.49 464.11C375.812 462.052 375.849 459.959 375.6 457.89C377.44 458 384.87 457.89 385.92 450.11C385.92 450.11 379.36 456.67 377.58 455.47C377.58 455.47 382.35 451.3 381.75 450.11C381.15 448.92 374.6 451.9 374.6 451.9V453.69L369.83 452.5C369.83 452.5 359.7 447.14 357.31 446.5C357.31 446.5 363.31 453.65 368.63 454.25L369.45 456.25C367.945 455.522 366.374 454.936 364.76 454.5C362.38 453.9 366.55 457.5 366.55 457.5H364.76C364.76 457.5 360.11 455.16 352.4 458.73C344.69 462.3 345.84 458.73 339.29 458.73C332.74 458.73 330.95 465.29 330.95 465.29C329.4 471.55 335.4 481.73 335.4 481.73L335.1 502.01L338.38 501.4L337.78 479.94H339.57L343.15 488.28L341.81 502.01C329.09 502.31 320.19 502.89 320.19 502.89V510.64H721.89V499.26L705.89 498.74L703.56 471.22C703.877 471.389 704.229 471.482 704.588 471.493C704.947 471.503 705.304 471.43 705.63 471.28V471.28ZM344.91 495.98L345.11 494.89C346.127 489.474 344.985 483.876 341.93 479.29H355.16L357.4 488.83L355.93 501.78C352.56 501.78 349.3 501.78 346.22 501.87L344.91 495.98ZM604.76 454.26L602.7 439.53L604.3 439.97L604.76 454.26ZM596.03 431.73C596.331 433.109 597.084 434.348 598.17 435.25C597.805 435.617 597.541 436.073 597.405 436.572C597.268 437.072 597.263 437.598 597.39 438.1L601 439.1L603.56 456.1L604.75 469.21L603.2 494.45L593.42 494.01V432.81C593.907 432.824 594.39 432.735 594.84 432.549C595.29 432.362 595.695 432.083 596.03 431.73ZM585.09 464.4V429.15C586.184 429.329 587.259 429.61 588.3 429.99C588.917 430.192 589.498 430.493 590.02 430.88C590.15 430.98 590.27 431.09 590.38 431.2L590.45 433.4L589.26 462.01V494.45L586.7 494.95L585.09 464.4Z" fill="#6C63FF"/>
</g>
<path id="Vector_15" opacity="0.2" d="M374.03 241.66C378.42 241.98 382.94 242.37 388.52 242.36C393.52 242.36 397.67 242.02 402.25 241.84C411.62 241.47 422.44 241.72 432.53 241.58C439.03 241.49 445.47 241.24 451.94 241.34C456.37 241.41 460.29 241.64 464.53 241.78C468.766 241.957 473.008 241.914 477.24 241.65L482.07 243.82C482.841 244.161 483.668 244.357 484.51 244.4C486.525 244.583 488.55 244.62 490.57 244.51C491.39 245.29 484.67 246.06 476.3 246.16C470.67 246.23 464.94 246.02 459.3 246.11C452.87 246.21 447.89 246.67 441.98 246.93C436.61 247.16 430.38 247.22 424.61 247.09C418.01 246.94 412.31 246.57 406.06 246.32C390.96 245.73 373.06 245.92 358.59 245.21C357.41 245.15 356.2 245.08 355.59 244.97C354.46 244.78 355.49 244.54 355.73 244.33C356.18 243.92 353.73 243.54 352.15 243.15C350.57 242.76 350.08 242.26 353.49 242C361.04 241.41 364.2 240.95 374.03 241.66Z" fill="#6C63FF"/>
<path id="Vector_16" opacity="0.2" d="M567.72 331.65C572.11 331.97 576.63 332.36 582.21 332.35C587.21 332.35 591.36 332.01 595.94 331.83C605.31 331.46 616.13 331.71 626.22 331.57C632.72 331.48 639.16 331.23 645.63 331.33C650.06 331.4 653.98 331.63 658.22 331.77C662.456 331.947 666.699 331.904 670.93 331.64L675.76 333.81C676.531 334.151 677.358 334.347 678.2 334.39C680.215 334.573 682.24 334.61 684.26 334.5C685.08 335.28 678.36 336.05 669.99 336.15C664.36 336.22 658.63 336.01 652.99 336.1C646.56 336.2 641.58 336.66 635.67 336.92C630.3 337.15 624.07 337.21 618.3 337.08C611.7 336.93 606 336.56 599.75 336.31C584.65 335.72 566.75 335.91 552.28 335.2C551.1 335.14 549.89 335.07 549.28 334.96C548.15 334.77 549.18 334.53 549.42 334.32C549.87 333.91 547.42 333.53 545.84 333.14C544.26 332.75 543.77 332.25 547.18 331.99C554.73 331.4 557.9 330.95 567.72 331.65Z" fill="#6C63FF"/>
<path id="Vector_17" opacity="0.2" d="M621.76 256.93C624.03 257.382 626.336 257.633 628.65 257.68C631.02 257.68 633 257.32 635.18 257.13C639.63 256.73 644.78 257 649.57 256.85C652.66 256.76 655.72 256.49 658.79 256.6C660.9 256.68 662.79 256.92 664.79 257.07C666.789 257.255 668.802 257.208 670.79 256.93L673.09 259.24C673.399 259.567 673.806 259.785 674.25 259.86C675.197 260.056 676.17 260.096 677.13 259.98C677.52 260.81 674.33 261.64 670.35 261.74C667.67 261.81 664.95 261.59 662.29 261.69C659.23 261.8 656.87 262.29 654.06 262.57C651.317 262.822 648.561 262.879 645.81 262.74C642.67 262.58 639.97 262.18 636.99 261.92C629.81 261.29 621.3 261.5 614.43 260.73C613.943 260.696 613.46 260.612 612.99 260.48C612.46 260.27 612.99 260.02 613.05 259.79C613.26 259.35 612.1 258.94 611.35 258.53C610.6 258.12 610.35 257.58 611.99 257.3C615.59 256.66 617.09 256.17 621.76 256.93Z" fill="#6C63FF"/>
<path id="Vector_18" opacity="0.2" d="M443.56 317.09C445.65 317.09 447.8 317.2 450.45 317.2C452.82 317.2 454.8 317.15 456.98 317.12C461.43 317.06 466.58 317.12 471.37 317.12C474.46 317.12 477.52 317.07 480.59 317.12C482.7 317.12 484.59 317.12 486.59 317.19C488.59 317.26 491.1 317.19 492.59 317.19L494.89 317.52C495.274 317.574 495.662 317.604 496.05 317.61C496.75 317.61 498.05 317.61 498.93 317.61C499.32 317.73 496.13 317.85 492.15 317.86C489.47 317.86 486.75 317.86 484.09 317.86C481.03 317.86 478.67 317.95 475.86 317.99C473.31 317.99 470.35 317.99 467.61 317.99C464.47 317.99 461.77 317.91 458.79 317.87C451.61 317.78 443.1 317.81 436.23 317.7H434.79C434.26 317.7 434.79 317.63 434.85 317.6C434.292 317.476 433.722 317.416 433.15 317.42C432.39 317.36 432.15 317.28 433.79 317.24C437.4 317.06 438.89 316.99 443.56 317.09Z" fill="#6C63FF"/>
<path id="Vector_19" opacity="0.2" d="M531.91 235.44C533 235.44 534.13 235.55 535.52 235.55C536.91 235.55 537.8 235.5 538.94 235.47C541.27 235.41 543.94 235.47 546.48 235.47C548.1 235.47 549.7 235.42 551.31 235.47C552.41 235.47 553.39 235.47 554.45 235.54C555.51 235.61 556.82 235.54 557.61 235.54L558.81 235.87C559.009 235.924 559.214 235.954 559.42 235.96C559.79 235.96 560.48 235.96 560.93 235.96C561.13 236.08 559.46 236.2 557.37 236.21C555.97 236.21 554.54 236.21 553.15 236.21C551.55 236.21 550.31 236.3 548.84 236.34C547.37 236.38 545.95 236.34 544.51 236.34C542.87 236.34 541.45 236.26 539.89 236.22C536.13 236.13 531.67 236.16 528.06 236.05H527.31C527.03 236.05 527.31 235.98 527.31 235.95C527.31 235.92 526.81 235.83 526.42 235.77C526.03 235.71 525.9 235.63 526.75 235.59C528.465 235.435 530.189 235.385 531.91 235.44V235.44Z" fill="#6C63FF"/>
<path id="Vector_20" d="M632.06 395.13C627.12 380.53 618.13 352.49 618.53 342.78C618.81 336.06 613.6 326.64 608.35 318.93L611.35 310.73L611 310.1L611.35 309.1C611.35 309.1 607.35 302.17 606.83 297.79C606.847 297.642 606.874 297.495 606.91 297.35C607.08 296.79 607.02 296.5 606.8 296.35C606.817 296.13 606.854 295.913 606.91 295.7C608.02 291.96 599.13 299.97 599.13 299.97L599.56 301.19L599.13 301.57L600.13 304.29C598.19 303.21 595.94 301.98 593.47 300.68C594.474 298.848 594.915 296.761 594.74 294.68C594.819 291.532 594.042 288.421 592.49 285.68C590.07 281.19 586.43 277.36 584.24 272.76C584.064 272.403 583.92 272.032 583.81 271.65C583.852 271.538 583.906 271.431 583.97 271.33C584.38 270.67 585.19 270.33 585.79 269.85C586.332 269.301 586.731 268.627 586.953 267.888C587.174 267.149 587.211 266.367 587.06 265.61C587.146 264.458 587.045 263.3 586.76 262.18C585.236 255.501 582.636 249.114 579.06 243.27C577.35 240.47 575.39 237.73 574.56 234.59C573.56 230.95 574.23 227.07 573.38 223.41C572.46 219.41 569.9 216.04 567.38 212.77L547.7 187.04C546.837 185.775 545.773 184.66 544.55 183.74C540.85 181.25 536.34 182.74 532.61 184.31C528.27 186.11 526.31 184.13 521.81 184.31C519.5 184.41 517.08 185.56 516.24 187.63C515.67 189.03 515.89 190.63 515.56 192.09C514.83 195.33 511.72 197.32 509.25 199.74C505.655 202.777 502.763 206.558 500.774 210.823C498.785 215.088 497.746 219.734 497.73 224.44C497.732 226.912 498.021 229.375 498.59 231.78C494.85 237.52 491.14 243.21 491.47 249.78C491.434 250.399 491.434 251.021 491.47 251.64C491.55 252.9 491.79 254.17 491.88 255.42C491.853 255.849 491.786 256.274 491.68 256.69C490.55 260.87 485.63 262.69 481.59 264.61C476.213 267.168 471.483 270.906 467.751 275.547C464.02 280.187 461.384 285.609 460.04 291.41C456.63 293.02 453.46 294.53 450.77 295.85L451.44 295.26L444.09 291.52C444.09 291.52 440.76 302.74 436.31 305.41C435.88 305.697 435.561 306.121 435.403 306.613C435.245 307.105 435.258 307.636 435.44 308.12C434.75 310.41 437.76 314.69 440.44 317.89C437.44 323.7 434.75 329.89 434.11 334.78C432.44 347.6 425.77 367.36 425.77 367.36C425.77 367.36 412.99 387.65 425.77 409.55C438.55 431.45 459.67 418.63 459.67 418.63C459.67 418.63 457.92 428.7 456.07 438.63C454.07 448 452.57 455.92 452.57 455.92C450.57 466.08 449.1 483.84 449.1 483.84C449.1 483.84 442.99 558.61 439.65 563.42C438.48 565.11 446.77 570.15 462.46 574.88C462.733 575.78 463.017 576.727 463.31 577.72C466.86 589.99 471.31 609.35 469.94 625.37C469.94 625.37 471.05 633.92 467.72 651.01C464.39 668.1 463.83 717.23 471.61 740.2V761.74C470.26 762.5 468.93 765.02 470.22 772.74L471.89 780.22C471.89 780.22 466.33 770.07 459.11 788.22C451.89 806.37 478.01 820.22 490.23 821.33C492.747 821.589 495.286 821.535 497.79 821.17C498.717 821.026 499.601 820.679 500.378 820.154C501.155 819.629 501.806 818.938 502.285 818.131C502.764 817.325 503.059 816.422 503.148 815.488C503.237 814.555 503.118 813.613 502.8 812.73L501.8 810.11C501.8 810.11 506.8 794.11 501.24 787.68C501.24 787.68 508.47 765.78 504.57 763.11C504.57 763.11 503.66 762.99 501.92 764.48C501.85 764.12 501.77 763.66 501.68 763.09C500.91 758.5 499.49 747.78 502.07 742.82C505.4 736.41 508.18 700.63 508.18 700.63L509.29 660.57L515.4 638.12C515.4 638.12 519.29 623.7 517.62 611.95C516.62 604.77 518.28 593.95 519.74 586.71C519.93 585.77 520.11 584.89 520.29 584.08C525.64 584.33 531.2 584.44 536.97 584.38C537.15 585.21 537.33 586.1 537.52 587.05H537.8C539.24 594.33 540.85 604.88 539.85 611.95C538.18 623.7 542.07 638.12 542.07 638.12L548.18 660.55L549.29 700.61C549.29 700.61 552.07 736.39 555.4 742.8C558.02 747.8 556.52 758.8 555.76 763.29L555.68 763.75C555.59 764.25 555.52 764.63 555.47 764.88C553.42 762.95 552.35 763.09 552.35 763.09C548.46 765.76 555.68 787.66 555.68 787.66C550.12 794.07 555.12 810.09 555.12 810.09L554.12 812.71C553.802 813.598 553.686 814.546 553.779 815.485C553.873 816.424 554.174 817.33 554.662 818.138C555.149 818.946 555.81 819.636 556.596 820.157C557.383 820.677 558.276 821.017 559.21 821.15C561.714 821.515 564.253 821.569 566.77 821.31C579 820.24 605.12 806.31 597.89 788.2C590.66 770.09 585.11 780.2 585.11 780.2L586.78 772.72C587.89 766.04 587.06 763.24 585.95 762.11V740.11C593.73 717.11 593.18 668.01 589.84 650.92C586.5 633.83 587.62 625.28 587.62 625.28C586.37 610.86 589.87 593.74 593.17 581.52C593.44 580.52 593.72 579.52 593.98 578.59C599.98 577.443 606.103 576.11 612.35 574.59C612.35 574.59 605.68 536.67 612.35 524.39C617.7 514.54 599.11 458.7 591.53 436.94L589.65 428.73C593.84 430.29 608.91 434.73 620.75 422.4C623.95 419.08 626.44 416.33 628.38 414.06C630.591 411.5 632.095 408.406 632.74 405.085C633.386 401.764 633.151 398.332 632.06 395.13V395.13ZM588.62 428.51L588.52 428.23L588.74 428.33L588.62 428.51Z" fill="url(#paint0_linear)"/>
<path id="Vector_21" d="M520.07 587.42C518.67 594.69 517.07 605.42 518.07 612.58C519.67 624.29 515.94 638.67 515.94 638.67L510.08 661.03L509.02 700.96C509.02 700.96 506.36 736.63 503.16 743.02C500.68 747.97 502.04 758.66 502.78 763.23C502.99 764.57 503.16 765.38 503.16 765.38C498.9 797.32 473.88 767.51 473.88 767.51V740.35C466.43 717.46 466.96 668.48 470.15 651.44C473.34 634.4 472.28 625.89 472.28 625.89C473.61 609.89 469.28 590.62 465.93 578.39C463.93 571.05 462.17 566.26 462.17 566.26L521.8 579.57C521.8 579.57 520.96 582.8 520.07 587.42Z" fill="#636E7E"/>
<path id="Vector_22" opacity="0.1" d="M503.13 765.37C498.87 797.31 473.85 767.5 473.85 767.5V760.22C474.13 760.062 474.441 759.965 474.762 759.936C475.082 759.906 475.405 759.945 475.71 760.05C474.46 764.15 476.19 767.23 479.06 769.52C480.631 770.733 482.433 771.615 484.355 772.112C486.276 772.61 488.279 772.713 490.242 772.414C492.205 772.116 494.087 771.423 495.774 770.378C497.462 769.332 498.919 767.955 500.06 766.33C500.838 765.208 501.726 764.166 502.71 763.22C502.96 764.56 503.13 765.37 503.13 765.37Z" fill="black"/>
<path id="Vector_23" opacity="0.1" d="M583.52 760.4V767.5C583.52 767.5 558.52 797.31 554.24 765.37C554.24 765.37 554.38 764.65 554.59 763.44C555.475 764.332 556.281 765.299 557 766.33C558.14 767.955 559.598 769.332 561.286 770.378C562.973 771.423 564.855 772.116 566.818 772.414C568.781 772.713 570.784 772.61 572.705 772.112C574.627 771.615 576.428 770.733 578 769.52C580.86 767.23 582.59 764.15 581.35 760.05C581.712 759.92 582.101 759.884 582.48 759.945C582.86 760.006 583.218 760.163 583.52 760.4V760.4Z" fill="black"/>
<path id="Vector_24" d="M475.71 761.65C475.71 761.65 470.39 759.52 472.52 772.83L474.12 780.28C474.12 780.28 468.8 770.16 461.88 788.28C454.96 806.4 479.98 820.22 491.69 821.28C494.1 821.538 496.534 821.484 498.93 821.12C499.839 820.959 500.703 820.601 501.46 820.072C502.217 819.542 502.849 818.854 503.313 818.055C503.776 817.257 504.06 816.366 504.144 815.447C504.228 814.527 504.111 813.6 503.8 812.73L502.87 810.12C502.87 810.12 507.66 794.12 502.34 787.76C502.34 787.76 509.26 765.93 505.53 763.27C505.53 763.27 503.66 763 500.11 767.96C498.97 769.585 497.512 770.962 495.824 772.008C494.137 773.053 492.255 773.746 490.292 774.044C488.329 774.343 486.327 774.24 484.405 773.742C482.483 773.245 480.682 772.363 479.11 771.15C476.2 768.83 474.46 765.73 475.71 761.65Z" fill="#2D2E34"/>
<path id="Vector_25" d="M590.4 582.27C587.24 594.45 583.89 611.52 585.09 625.89C585.09 625.89 584.03 634.41 587.22 651.44C590.41 668.47 590.95 717.44 583.49 740.35V767.5C583.49 767.5 558.49 797.31 554.21 765.37C554.21 765.37 554.32 764.83 554.48 763.9L554.56 763.44C555.28 758.99 556.73 748.04 554.21 743.01C551.02 736.62 548.35 700.95 548.35 700.95L547.29 661.02L541.43 638.66C541.43 638.66 537.7 624.29 539.3 612.57C540.3 605.57 538.71 595.01 537.3 587.75C536.38 582.94 535.54 579.56 535.54 579.56L595.17 566.25C595.17 566.25 592.89 572.79 590.4 582.27Z" fill="#636E7E"/>
<path id="Vector_26" opacity="0.1" d="M583.52 760.93V767.5C583.52 767.5 558.52 797.31 554.24 765.37C554.24 765.37 554.35 764.83 554.51 763.9C555.428 764.823 556.261 765.828 557 766.9C558.14 768.525 559.598 769.902 561.286 770.948C562.973 771.993 564.855 772.686 566.818 772.984C568.781 773.283 570.784 773.18 572.705 772.682C574.627 772.185 576.428 771.303 578 770.09C580.86 767.8 582.59 764.72 581.35 760.62C581.708 760.484 582.095 760.441 582.475 760.496C582.854 760.55 583.214 760.699 583.52 760.93Z" fill="black"/>
<path id="Vector_27" d="M581.12 761.65C581.12 761.65 586.44 759.52 584.31 772.83L582.71 780.28C582.71 780.28 588.03 770.16 594.95 788.28C601.87 806.4 576.85 820.22 565.14 821.28C562.73 821.538 560.296 821.484 557.9 821.12C556.988 820.959 556.123 820.601 555.364 820.07C554.605 819.54 553.971 818.85 553.507 818.048C553.044 817.247 552.76 816.354 552.678 815.432C552.595 814.51 552.716 813.581 553.03 812.71L553.96 810.1C553.96 810.1 549.17 794.1 554.49 787.74C554.49 787.74 547.57 765.91 551.3 763.25C551.3 763.25 553.17 762.98 556.72 767.94C557.86 769.565 559.318 770.942 561.006 771.988C562.693 773.033 564.575 773.726 566.538 774.024C568.501 774.323 570.504 774.22 572.425 773.722C574.347 773.225 576.148 772.343 577.72 771.13C580.63 768.83 582.4 765.73 581.12 761.65Z" fill="#2D2E34"/>
<path id="Vector_28" opacity="0.1" d="M462.14 566.27L521.77 579.58C521.77 579.58 520.97 582.8 520.08 587.43C497.57 586.28 479.08 582.43 465.91 578.43C463.86 571.06 462.14 566.27 462.14 566.27Z" fill="black"/>
<path id="Vector_29" opacity="0.1" d="M594.96 566.27C594.96 566.27 592.62 572.79 590.16 582.27C572.674 585.686 554.915 587.514 537.1 587.73C536.18 582.92 535.34 579.54 535.34 579.54L594.96 566.27Z" fill="black"/>
<path id="Vector_30" d="M454.4 301.68C454.4 301.68 439.49 323.51 437.9 336.28C436.31 349.05 429.9 368.75 429.9 368.75C429.9 368.75 417.66 388.98 429.9 410.81C442.14 432.64 462.4 419.87 462.4 419.87C462.4 419.87 458.14 445.42 456.01 455.01C453.88 464.6 452.28 484.82 452.28 484.82C452.28 484.82 446.42 559.35 443.23 564.14C440.04 568.93 510.31 600.87 608.8 575.32C608.8 575.32 602.41 537.52 608.8 525.32C615.19 513.12 585.91 429.49 585.91 429.49C585.91 429.49 603.48 438.01 616.79 423.63C619.85 420.32 622.24 417.58 624.1 415.31C626.219 412.72 627.651 409.639 628.267 406.35C628.882 403.061 628.659 399.67 627.62 396.49C622.89 381.94 614.27 353.98 614.62 344.31C615.15 331 594.92 307.04 594.92 307.04L454.4 301.68Z" fill="#E29D9D"/>
<path id="Vector_31" d="M527.09 282.43C510.546 277.357 492.701 278.684 477.09 286.15C462.97 292.88 447.82 300.29 445.88 301.95C442.15 305.14 445.88 307.81 445.88 307.81L487.94 312.6H571.52L603.46 309.94C603.46 309.94 574.18 291.31 559.27 290.24C552.21 289.73 539.01 286.1 527.09 282.43Z" fill="#F1C0C0"/>
<path id="Vector_32" opacity="0.1" d="M584.85 429.45L581.12 412.95C582.06 402.49 584.023 392.147 586.98 382.07C591.77 366.07 585.92 343.74 585.92 343.74" fill="black"/>
<path id="Vector_33" opacity="0.1" d="M462.4 343.73C462.4 343.73 459.21 355.97 462.4 362.9C465.59 369.83 462.4 384.73 462.4 384.73C462.4 384.73 461.34 409.22 464 417.2" fill="black"/>
<path id="Vector_34" opacity="0.1" d="M488.49 363.43C488.49 363.43 481.57 381.53 478.37 385.79C475.17 390.05 471.45 408.15 467.72 411.88C463.99 415.61 456.13 459.12 456.13 459.12C456.13 459.12 477.83 475.77 488.48 489.61C499.13 503.45 556.09 485.88 556.09 485.88C556.09 485.88 560.35 465.65 567.27 462.46C569.76 461.31 570.04 459.89 569.39 458.53C566.013 451.614 563.955 444.13 563.32 436.46C561.71 416.2 556.71 383.75 541.19 369.29L488.49 363.43Z" fill="black"/>
<path id="Vector_35" d="M487.96 361.31C487.96 361.31 481.04 379.41 477.84 383.67C474.64 387.93 470.92 406.03 467.19 409.76C463.46 413.49 455.6 457 455.6 457C455.6 457 477.3 473.65 487.95 487.49C498.6 501.33 555.57 483.73 555.57 483.73C555.57 483.73 559.83 463.5 566.75 460.31C569.24 459.16 569.52 457.74 568.87 456.38C565.493 449.464 563.435 441.98 562.8 434.31C561.19 414.05 556.19 381.6 540.67 367.14L487.96 361.31Z" fill="#1CC5B7"/>
<path id="Vector_36" opacity="0.1" d="M510.04 478.16C515.331 478.16 519.62 473.871 519.62 468.58C519.62 463.289 515.331 459 510.04 459C504.749 459 500.46 463.289 500.46 468.58C500.46 473.871 504.749 478.16 510.04 478.16Z" fill="black"/>
<path id="Vector_37" opacity="0.1" d="M501.8 366.1C501.8 366.1 488.49 382.1 496.48 394.85L500.21 396.45C500.21 396.45 502.34 368.77 505 367.17L501.8 366.1Z" fill="black"/>
<path id="Vector_38" opacity="0.1" d="M513.51 366.1C513.51 366.1 509.78 395.38 512.45 398.04C512.45 398.04 522.57 400.17 523.63 396.44C523.63 396.44 517.77 371.44 519.37 368.22L513.51 366.1Z" fill="black"/>
<path id="Vector_39" opacity="0.1" d="M526.29 368.49C526.29 368.49 530.55 390.32 534.29 386.59C538.03 382.86 531.63 368.49 531.63 368.49H526.29Z" fill="black"/>
<path id="Vector_40" opacity="0.1" d="M494.88 369.82C494.88 369.82 526.82 376.21 543.88 370.88C560.94 365.55 604.58 321.53 604.58 321.53L607.77 312.31C607.77 312.31 602.4 302.73 603.48 299.02C604.56 295.31 596.03 303.28 596.03 303.28L597.5 307.64C597.5 307.64 459.74 315.52 445.9 306.47L454.54 298.47L447.54 294.74C447.54 294.74 444.35 305.92 440.09 308.58C435.83 311.24 447.54 323.49 447.54 323.49C447.54 323.49 478.91 367.73 494.88 369.82Z" fill="black"/>
<path id="Vector_41" d="M494.88 368.23C494.88 368.23 526.82 374.62 543.88 369.29C560.94 363.96 604.58 319.94 604.58 319.94L607.77 310.72C607.77 310.72 602.45 301.14 603.51 297.41C604.57 293.68 596.06 301.67 596.06 301.67L597.53 306.03C597.53 306.03 459.77 313.91 445.93 304.86L454.57 296.86L447.57 293.13C447.57 293.13 444.38 304.31 440.12 306.97C435.86 309.63 447.57 321.88 447.57 321.88C447.57 321.88 478.91 366.1 494.88 368.23Z" fill="#E29D9D"/>
<path id="Vector_42" opacity="0.1" d="M450.16 313.39C450.16 313.39 456.02 311.26 470.92 315.52C485.82 319.78 503.92 315.52 503.92 315.52C503.92 315.52 584.31 313.92 590.7 314.99C597.09 316.06 607.7 310.73 607.7 310.73" fill="black"/>
<path id="Vector_43" opacity="0.1" d="M562.49 374.08C562.49 374.08 571.54 435.83 586.49 453.94C586.4 453.94 567.28 389.52 562.49 374.08Z" fill="black"/>
<path id="Vector_44" d="M531.87 259.36C550.101 259.36 564.88 244.581 564.88 226.35C564.88 208.119 550.101 193.34 531.87 193.34C513.639 193.34 498.86 208.119 498.86 226.35C498.86 244.581 513.639 259.36 531.87 259.36Z" fill="#765656"/>
<path id="Vector_45" opacity="0.1" d="M521.93 187.95C519.72 188.05 517.4 189.2 516.59 191.26C516.04 192.66 516.26 194.26 515.94 195.7C514.94 200.09 509.82 202.19 507.72 206.16C505.62 210.13 506.92 214.64 506.61 218.96C505.73 231.48 492.06 240.89 492.88 253.42C493.02 255.64 493.63 257.9 493.07 260.05C491.99 264.22 487.27 266.05 483.41 267.95C477.78 270.788 472.92 274.946 469.244 280.069C465.568 285.192 463.186 291.127 462.3 297.37C461.9 300.37 461.89 303.66 463.3 306.37C464.71 309.08 467.82 311.16 470.81 310.47C475.27 309.47 476.81 303.6 480.81 301.35C482.62 304.07 481.91 307.72 482.81 310.86C483.81 314.19 487.33 316.91 490.71 316.07C494.09 315.23 495.65 310.07 492.8 308.07C496.52 308.52 498.97 312.31 499.75 315.98C500.53 319.65 500.18 323.49 501.05 327.14C502.102 331.044 504.465 334.467 507.743 336.834C511.021 339.202 515.013 340.369 519.05 340.14C520.208 339.936 521.392 339.936 522.55 340.14C523.649 340.54 524.665 341.136 525.55 341.9C529.732 344.919 534.902 346.241 540.02 345.6C540.3 343.66 542.19 342.28 544.12 341.94C546.075 341.738 548.05 341.946 549.92 342.55L558.82 344.76C561.41 345.4 564.75 345.76 566.21 343.55C567.29 341.89 566.68 339.63 567.44 337.8C568.68 334.8 572.73 334.38 575.97 334.67C579.21 334.96 583.07 335.22 585.08 332.67C587.09 330.12 585.74 326.01 583.89 323.13C582.04 320.25 579.72 317.13 580.37 313.76C581.28 309.02 587.22 307.29 590.05 303.39C593.05 299.31 592.05 293.52 589.71 289.04C587.37 284.56 583.91 280.74 581.8 276.16C581.522 275.716 581.353 275.213 581.308 274.691C581.263 274.17 581.342 273.645 581.54 273.16C581.94 272.51 582.71 272.16 583.28 271.69C584.89 270.27 584.67 267.69 584.21 265.64C582.743 258.982 580.228 252.599 576.76 246.73C575.12 243.94 573.25 241.21 572.45 238.08C571.53 234.45 572.13 230.59 571.32 226.93C570.44 222.93 567.98 219.58 565.59 216.32L546.74 190.67C545.925 189.418 544.912 188.307 543.74 187.38C540.19 184.9 535.88 186.38 532.31 187.94C528.12 189.73 526.25 187.73 521.93 187.95Z" fill="black"/>
<path id="Vector_46" d="M521.93 186.35C519.72 186.45 517.4 187.6 516.59 189.66C516.04 191.06 516.26 192.66 515.94 194.1C514.94 198.49 509.82 200.59 507.72 204.56C505.62 208.53 506.92 213.04 506.61 217.36C505.73 229.88 492.06 239.29 492.88 251.82C493.02 254.04 493.63 256.3 493.07 258.45C491.99 262.62 487.27 264.45 483.41 266.35C477.785 269.185 472.928 273.336 469.253 278.452C465.577 283.567 463.192 289.495 462.3 295.73C461.9 298.73 461.89 302.02 463.3 304.73C464.71 307.44 467.82 309.52 470.81 308.83C475.27 307.83 476.81 301.96 480.81 299.71C482.62 302.43 481.91 306.08 482.81 309.22C483.81 312.55 487.33 315.27 490.71 314.43C494.09 313.59 495.65 308.43 492.8 306.43C496.52 306.88 498.97 310.67 499.75 314.34C500.53 318.01 500.18 321.85 501.05 325.5C502.102 329.404 504.465 332.827 507.743 335.194C511.021 337.562 515.013 338.729 519.05 338.5C520.208 338.296 521.392 338.296 522.55 338.5C523.649 338.9 524.665 339.496 525.55 340.26C529.732 343.279 534.902 344.601 540.02 343.96C540.3 342.02 542.19 340.64 544.12 340.3C546.075 340.098 548.05 340.306 549.92 340.91L558.82 343.12C561.41 343.76 564.75 344.12 566.21 341.91C567.29 340.25 566.68 337.99 567.44 336.16C568.68 333.16 572.73 332.74 575.97 333.03C579.21 333.32 583.07 333.58 585.08 331.03C587.09 328.48 585.74 324.37 583.89 321.49C582.04 318.61 579.72 315.49 580.37 312.12C581.28 307.38 587.22 305.65 590.05 301.75C593.05 297.67 592.05 291.88 589.71 287.4C587.37 282.92 583.91 279.1 581.8 274.52C581.522 274.076 581.353 273.573 581.308 273.051C581.263 272.53 581.342 272.005 581.54 271.52C581.94 270.87 582.71 270.52 583.28 270.05C584.89 268.63 584.67 266.05 584.21 264C582.762 257.368 580.275 251.006 576.84 245.15C575.2 242.36 573.33 239.63 572.53 236.5C571.61 232.87 572.21 229.01 571.4 225.35C570.52 221.35 568.06 218 565.67 214.74L546.82 189.09C546.005 187.838 544.992 186.727 543.82 185.8C540.27 183.32 535.96 184.8 532.39 186.36C528.12 188.14 526.25 186.16 521.93 186.35Z" fill="#896363"/>
<path id="Vector_47" opacity="0.1" d="M504.73 264.15C504.73 264.15 490.36 266.28 485.03 279.06C479.7 291.84 472.79 294.5 472.79 294.5" fill="black"/>
<path id="Vector_48" opacity="0.1" d="M523.4 201.86C523.4 201.86 531.4 219.96 523.93 232.21C516.46 244.46 520.74 266.81 520.74 266.81" fill="black"/>
<path id="Vector_49" opacity="0.1" d="M517.5 288.64C517.5 288.64 509.5 285.45 512.71 298.76C515.92 312.07 511.65 321.65 511.65 321.65" fill="black"/>
<path id="Vector_50" opacity="0.1" d="M540.93 286.51C540.93 286.51 526.56 285.97 531.61 304.61C536.66 323.25 530.28 332.3 530.28 332.3" fill="black"/>
<path id="Vector_51" opacity="0.1" d="M540.93 198.13C540.93 198.13 554.77 212.5 553.71 221.55C552.65 230.6 553.18 262.55 553.71 264.14" fill="black"/>
<path id="Vector_52" opacity="0.1" d="M559.03 288.1C559.03 288.1 568.61 298.22 567.03 306.73C565.45 315.24 567.03 332.28 567.03 332.28" fill="black"/>
<path id="Vector_53" opacity="0.1" d="M569.14 242.85C569.14 242.85 576.06 255.63 574.46 266.85Z" fill="black"/>
<path id="Vector_54" opacity="0.1" d="M475.29 391.86C475.29 391.86 497.29 436.1 553.71 396.18" stroke="black" stroke-width="2" stroke-miterlimit="10"/>
<path id="Vector_55" d="M568.61 456.33L586.71 428.65L588.86 438.11L568.86 458.53" fill="#636E7E"/>
<path id="Vector_56" opacity="0.1" d="M523.4 507.44C523.4 507.44 540.4 548.44 523.4 583.55Z" fill="black"/>
<path id="Vector_57" d="M737 574.46H680V590.46H737V574.46Z" fill="#A1A3B2"/>
</g>
<defs>
<linearGradient id="paint0_linear" x1="526.55" y1="821.46" x2="526.55" y2="182.46" gradientUnits="userSpaceOnUse">
<stop stop-color="#808080" stop-opacity="0.25"/>
<stop offset="0.54" stop-color="#808080" stop-opacity="0.12"/>
<stop offset="1" stop-color="#808080" stop-opacity="0.1"/>
</linearGradient>
<clipPath id="clip0">
<rect width="1086.79" height="841.46" fill="white"/>
</clipPath>
</defs>
</svg>
