<svg width="40" height="32" viewBox="0 0 40 32" fill="none" xmlns="http://www.w3.org/2000/svg">
<path d="M17.3878 31.3629C15.6965 31.3629 14.1645 30.9462 12.7919 30.1128C11.4437 29.2794 10.3775 28.0783 9.59307 26.5096C8.80869 24.9163 8.4165 23.0412 8.4165 20.8841C8.4165 17.1583 9.21314 13.7144 10.8064 10.5524C12.3997 7.36582 14.7528 4.81658 17.8658 2.90466C20.9788 0.96822 24.7169 0 29.08 0C30.2076 0 31.4086 0.0857927 32.6832 0.257376C33.9824 0.428959 35.1589 0.686332 36.213 1.0295C36.8993 1.22559 37.2425 1.71583 37.2425 2.50021C37.2425 3.13752 36.9973 3.73806 36.5071 4.30183C36.0414 4.86561 35.4899 5.14749 34.8525 5.14749C34.6565 5.14749 34.5094 5.13524 34.4113 5.11072C33.1367 4.81658 32.0459 4.60823 31.139 4.48567C30.2321 4.3386 29.2761 4.26507 28.2711 4.26507C25.1581 4.26507 22.5108 5.02493 20.3293 6.54467C18.1477 8.03989 16.5177 10.0254 15.4392 12.5011C14.3606 14.9768 13.8214 17.6485 13.8214 20.5164C13.8214 22.5999 14.2258 24.2177 15.0347 25.3698C15.8681 26.4973 16.9466 27.0611 18.2703 27.0611C19.7655 27.0611 21.0769 26.4483 22.2044 25.2227C23.332 23.9971 24.3615 22.0117 25.2929 19.2663C26.2244 16.521 27.1436 12.7952 28.0505 8.08892C28.1976 7.40258 28.4917 6.93686 28.9329 6.69174C29.3741 6.44662 29.9624 6.32406 30.6978 6.32406C32.4381 6.32406 33.3083 6.88784 33.3083 8.01538C33.3083 8.21148 33.2715 8.45659 33.198 8.75074C32.5607 11.1284 31.9724 13.7634 31.4331 16.6558C30.9184 19.5237 30.661 21.7053 30.661 23.2005C30.661 24.5241 30.8571 25.4923 31.2493 26.1051C31.6415 26.6934 32.242 26.9876 33.0509 26.9876C33.8353 26.9876 34.5829 26.7302 35.2938 26.2154C36.0046 25.6762 36.8993 24.7692 37.9778 23.4946C38.272 23.1515 38.6029 22.9799 38.9705 22.9799C39.2892 22.9799 39.5343 23.1269 39.7059 23.4211C39.902 23.7152 40 24.1197 40 24.6344C40 25.5904 39.7672 26.3503 39.3015 26.914C38.1004 28.3602 36.9238 29.4633 35.7717 30.2231C34.6197 30.983 33.2103 31.3629 31.5434 31.3629C29.8276 31.3629 28.4427 30.8727 27.3887 29.8922C26.3347 28.8872 25.6729 27.4778 25.4032 25.6639C23.5893 29.4633 20.9176 31.3629 17.3878 31.3629Z" fill="#1CC5B7"/>
<path d="M14.3027 31.8226C11.3858 31.8226 8.84878 31.2956 6.69174 30.2416C4.53469 29.1631 2.88014 27.6434 1.72809 25.6824C0.576029 23.7215 0 21.4419 0 18.8436C0 15.2404 0.674076 12.0416 2.02223 9.24722C3.39489 6.45287 5.24554 4.29582 7.57416 2.77609C9.90279 1.23184 12.4888 0.459717 15.3322 0.459717C17.9794 0.459717 19.9894 1.14605 21.3621 2.51871C22.7348 3.86687 23.4211 5.65623 23.4211 7.88681C23.4211 9.38203 23.1515 10.5831 22.6122 11.4901C22.0974 12.397 21.3498 12.8505 20.3694 12.8505C19.683 12.8505 19.1438 12.6911 18.7516 12.3725C18.3594 12.0538 18.1633 11.5881 18.1633 10.9753C18.1633 10.7547 18.2123 10.3503 18.3104 9.76197C18.4574 9.02661 18.531 8.43833 18.531 7.99711C18.531 5.76653 17.3421 4.65124 14.9645 4.65124C13.3467 4.65124 11.8025 5.17825 10.3317 6.23226C8.86104 7.28627 7.67221 8.84277 6.76527 10.9018C5.85834 12.9363 5.40486 15.3629 5.40486 18.1818C5.40486 21.1232 6.22601 23.4028 7.86831 25.0206C9.5106 26.6139 11.9373 27.4105 15.1483 27.4105C16.7416 27.4105 18.3471 27.2144 19.9649 26.8222C21.6072 26.4055 23.4211 25.7805 25.4065 24.9471C25.7742 24.8 26.0806 24.7265 26.3257 24.7265C26.7179 24.7265 27.0121 24.8735 27.2082 25.1677C27.4043 25.4618 27.5023 25.8417 27.5023 26.3075C27.5023 27.8027 26.6934 28.9057 25.0756 29.6166C23.3353 30.3764 21.5214 30.9402 19.634 31.3079C17.7711 31.6511 15.994 31.8226 14.3027 31.8226Z" fill="#CBCAEB"/>
</svg>
