<svg width="850" height="749" viewBox="0 0 850 749" fill="none" xmlns="http://www.w3.org/2000/svg">
<path d="M562.3 106.82C561.525 105.803 560.569 104.939 559.48 104.27C557.825 103.536 555.979 103.347 554.21 103.73C549.75 104.41 545.61 106.45 541.69 108.73C538.53 110.54 535.39 112.55 533.13 115.4C532.386 116.259 531.867 117.29 531.62 118.4C531.491 119.316 531.57 120.249 531.85 121.13C532.051 122.122 532.477 123.055 533.096 123.856C533.715 124.657 534.51 125.305 535.42 125.75C537.51 126.57 539.84 125.7 541.94 124.9C544.76 123.81 547.86 122.8 550.76 123.66C552.91 124.3 554.76 125.93 557.03 125.99C559.7 126.07 561.86 123.91 563.56 121.85C565.03 120.05 568.25 116.8 568.04 114.27C567.83 111.74 563.88 108.63 562.3 106.82Z" fill="#FBBEBE"/>
<path d="M596 184.65C593.553 185.302 590.993 185.408 588.5 184.96C586.98 184.68 585.12 184.32 584.15 185.51C583.838 185.951 583.629 186.457 583.54 186.99C581.05 197.18 583.33 207.99 587.54 217.64C587.593 217.803 587.69 217.948 587.82 218.06C588.09 218.26 588.46 218.12 588.77 217.99C589.789 217.581 590.742 217.025 591.6 216.34C593.52 214.6 593.93 211.77 594.02 209.18C594.11 206.59 594.07 203.85 595.41 201.63C597.09 198.88 600.6 197.54 601.98 194.63C603.09 192.26 602.51 189.45 601.53 187.03C601.2 186.19 601.07 184.03 600.29 183.62C599.51 183.21 596.89 184.41 596 184.65Z" fill="#FBBEBE"/>
<path d="M562.01 105.8C562.232 105.677 562.399 105.474 562.477 105.233C562.555 104.992 562.538 104.73 562.43 104.5C562.215 104.043 561.901 103.64 561.51 103.32C560.638 102.478 559.842 101.561 559.13 100.58C558.345 99.3664 557.465 98.2162 556.5 97.14C556.01 96.6056 555.405 96.1881 554.732 95.9181C554.059 95.6482 553.334 95.5326 552.61 95.58C551.807 95.7239 551.041 96.0301 550.36 96.48C547.64 98.0566 545.136 99.9793 542.91 102.2C542.74 102.37 542.55 102.58 542.59 102.82C542.63 103.06 542.79 103.16 542.81 103.36C542.816 103.541 542.752 103.717 542.63 103.85C541.294 105.514 539.709 106.961 537.93 108.14C535.41 110.033 532.943 112 530.53 114.04C529.02 115.114 527.829 116.575 527.08 118.27C526.569 120.245 526.793 122.338 527.71 124.16C529.38 128.08 532.29 131.32 535.16 134.47C535.641 135.112 536.313 135.585 537.08 135.82C537.686 135.902 538.3 135.752 538.8 135.4C540.55 134.25 540.8 131.85 540.95 129.76L541.11 126.87C541.106 126.681 541.143 126.493 541.22 126.32C541.37 126.1 541.583 125.93 541.83 125.83L544.55 124.39C543.718 123.037 542.535 121.936 541.126 121.203C539.717 120.47 538.135 120.134 536.55 120.23C535.825 120.402 535.063 120.299 534.41 119.94C534.095 119.612 533.919 119.175 533.919 118.72C533.919 118.265 534.095 117.828 534.41 117.5C535.073 116.87 535.885 116.419 536.77 116.19C543.94 113.56 550.42 109.34 557.38 106.19C558.142 105.804 558.986 105.609 559.84 105.62C560.54 105.67 561.36 106.08 562.01 105.8Z" fill="#F86D70"/>
<path d="M590.26 210.52C589.94 211.12 589.83 211.82 589.48 212.41C589.13 213 588.37 213.41 587.78 213.11C587.469 212.893 587.238 212.58 587.12 212.22C584.087 205.285 583.233 197.592 584.67 190.16C584.869 188.944 585.229 187.761 585.74 186.64C586.27 185.56 587.04 184.46 586.82 183.28C583.965 184.181 581.22 185.402 578.64 186.92C576.94 187.92 575.15 189.31 574.99 191.27C574.975 192.03 575.086 192.787 575.32 193.51L576.26 197.04C576.373 197.696 576.664 198.308 577.1 198.81C577.4 199.11 577.81 199.3 578.1 199.62C578.375 199.993 578.56 200.424 578.64 200.88L579.43 203.94C579.724 204.961 579.935 206.005 580.06 207.06C580.15 208.06 580.06 208.98 580.14 209.94C580.253 211.519 580.487 213.087 580.84 214.63L581.97 220.17C582.225 221.718 582.668 223.229 583.29 224.67C583.76 225.67 584.39 226.53 584.78 227.54C585.07 228.31 585.22 229.13 585.58 229.86C586.23 231.044 587.243 231.987 588.47 232.55C588.901 232.802 589.383 232.956 589.88 233C591.29 233.05 592.3 231.68 592.96 230.42C594.25 228.129 594.938 225.549 594.96 222.92C594.96 221.86 594.74 220.81 594.65 219.75C594.4 216.75 595.24 213.84 595.23 210.85C595.25 208.05 591.29 208.58 590.26 210.52Z" fill="#F86D70"/>
<path d="M655.36 196.6C650.42 196.8 645.47 196.74 640.55 197.21C637.68 197.49 634.82 197.96 631.94 198.08C628.8 198.22 625.65 197.97 622.5 198.03C614.57 198.2 606.75 200.31 599.12 202.49C596.966 197.229 595.842 191.604 595.81 185.92C595.79 185.544 595.79 185.166 595.81 184.79C595.949 183.181 596.43 181.619 597.22 180.21C604.22 178.21 611.32 176.21 618.59 176.31C620.96 176.31 623.31 176.59 625.67 176.66C632.52 176.87 639.18 173.8 645.98 174.66C646.654 174.727 647.332 174.578 647.916 174.234C648.5 173.891 648.96 173.371 649.23 172.75C649.52 172.01 649.64 171.04 650.39 170.75C650.93 170.55 651.67 170.8 652.01 170.34C652.131 170.093 652.202 169.825 652.22 169.55C652.42 168.55 653.43 168.1 654.22 167.55C656.22 166.17 657.35 163.81 658.35 161.55C658.613 161.061 658.773 160.523 658.82 159.97C658.82 159.53 658.68 159.09 658.69 158.64C658.69 157.06 660.46 156.15 661.38 154.86C662.59 153.16 662.38 150.86 662.97 148.86C663.77 146.34 665.9 144.55 666.43 142.07C666.49 141.817 666.53 141.559 666.55 141.3C664.429 143.488 662 145.354 659.34 146.84C650.46 152.31 639.84 155.58 631.55 161.91C624.97 166.91 615.33 166.76 608.13 162.69C605.415 161.029 602.852 159.131 600.47 157.02C596.81 154.02 593.11 150.95 589.28 148.09C586.613 146.09 583.85 144.16 580.99 142.3C577.527 140.01 573.942 137.91 570.25 136.01C565.67 133.69 561.06 131.39 555.96 130.84C555.305 129.502 554.941 128.039 554.892 126.55C554.844 125.061 555.113 123.578 555.68 122.2C556.845 119.459 558.423 116.913 560.36 114.65C561.81 112.524 563.624 110.672 565.72 109.18C565.953 109.032 566.224 108.954 566.5 108.954C566.776 108.954 567.047 109.032 567.28 109.18L587.1 121.35L590.81 123.62C598.94 128.62 606.94 133.97 615.07 138.94C615.22 139.51 616.01 139.58 616.58 139.43C617.15 139.28 617.8 139.04 618.29 139.37C618.53 139.53 618.7 139.83 619 139.89C619.239 139.898 619.473 139.82 619.66 139.67C623.02 137.36 624.74 132.92 628.51 131.37C630.12 130.71 632.03 130.61 633.29 129.37C634.035 128.425 634.704 127.421 635.29 126.37C636.92 124.24 640.01 123.6 641.52 121.37C642.52 119.926 643.722 118.633 645.09 117.53C647.813 115.312 650.175 112.684 652.09 109.74C653.079 108.286 653.85 106.696 654.38 105.02C654.64 104.15 654.8 103.25 655.09 102.39C656 99.77 658.09 97.76 660.18 95.94C663.97 92.62 668.06 89.47 672.86 87.94C674.534 87.5524 676.156 86.9648 677.69 86.19C679.62 85.01 681.39 82.82 683.6 83.33C684.438 83.5898 685.194 84.0657 685.79 84.71C688.501 87.3463 690.992 90.199 693.24 93.24C696.807 97.78 700.37 102.323 703.93 106.87C705.053 108.505 706.474 109.913 708.12 111.02C710.507 112.249 713.249 112.602 715.87 112.02C715.52 115.73 712.57 118.79 711.35 122.31C710.76 124.02 710.53 125.84 710.09 127.59C709.47 129.786 708.678 131.929 707.72 134C705.32 139.59 702.9 145.21 699.46 150.23C697.68 152.84 695.63 155.23 693.62 157.68C685.69 167.25 679.62 178.79 670.62 187.4C668.44 189.51 667.06 192.4 664.62 194.21C661.97 196.17 658.55 196.47 655.36 196.6Z" fill="#434175"/>
<path opacity="0.1" d="M693.04 69.72C692.158 69.763 691.3 70.0205 690.54 70.47C692.37 69.83 694.6 71.54 696.29 70.73C697.08 70.35 696.96 70.24 696.29 70.01C695.28 69.67 694.06 69.98 693.04 69.72Z" fill="black"/>
<path opacity="0.1" d="M692.14 79.48C691.462 79.2422 690.732 79.1972 690.03 79.35C688.983 79.4612 688.008 79.9394 687.28 80.7C687.473 80.7869 687.683 80.8319 687.895 80.8319C688.107 80.8319 688.317 80.7869 688.51 80.7C689.163 80.5343 689.836 80.4603 690.51 80.48C691.09 80.48 692.82 81.12 693.27 80.84C693.93 80.41 692.59 79.65 692.14 79.48Z" fill="black"/>
<path opacity="0.1" d="M656.06 175.92L595.8 184.79C595.939 183.181 596.42 181.619 597.21 180.21C604.21 178.21 611.31 176.21 618.58 176.31C620.95 176.31 623.3 176.59 625.66 176.66C632.51 176.87 639.17 173.8 645.97 174.66C646.644 174.727 647.322 174.578 647.906 174.234C648.49 173.891 648.95 173.371 649.22 172.75C649.51 172.01 649.63 171.04 650.38 170.75C650.92 170.55 651.66 170.8 652 170.34C652.121 170.093 652.192 169.825 652.21 169.55C652.41 168.55 653.42 168.1 654.21 167.55C656.21 166.17 657.34 163.81 658.34 161.55C658.603 161.061 658.763 160.523 658.81 159.97C658.81 159.53 658.67 159.09 658.68 158.64C658.68 157.06 660.45 156.15 661.37 154.86C662.58 153.16 662.37 150.86 662.96 148.86C663.76 146.34 665.89 144.55 666.42 142.07L666.68 141.73L676.94 137.73L656.06 175.92Z" fill="black"/>
<path opacity="0.1" d="M425 661.67C659.721 661.67 850 646.895 850 628.67C850 610.445 659.721 595.67 425 595.67C190.279 595.67 0 610.445 0 628.67C0 646.895 190.279 661.67 425 661.67Z" fill="#6C63FF"/>
<path d="M511.81 629.66L333.62 627.38L334.14 622.81L342.76 547.42H499.24L510.76 622.81L511.64 628.52L511.81 629.66Z" fill="#D0D2D5"/>
<path opacity="0.1" d="M511.64 628.52H422.71L333.62 627.38L334.14 622.81H510.76L511.64 628.52Z" fill="black"/>
<path d="M540.37 623.95H303.92V629.66H540.37V623.95Z" fill="#D0D2D5"/>
<path d="M765.96 94.62C765.977 92.6622 765.607 90.7203 764.872 88.9057C764.137 87.0911 763.051 85.4396 761.676 84.046C760.3 82.6523 758.664 81.5439 756.859 80.7843C755.055 80.0248 753.118 79.6291 751.16 79.62H90.84C88.8825 79.6305 86.9463 80.027 85.1424 80.787C83.3385 81.547 81.7022 82.6555 80.3274 84.0489C78.9525 85.4423 77.8661 87.0933 77.1304 88.9073C76.3947 90.7213 76.0242 92.6626 76.04 94.62V494.88H765.96V94.62Z" fill="#343F51"/>
<path d="M76.04 490.88V537.77C76.04 541.695 77.5993 545.46 80.3748 548.235C83.1503 551.011 86.9148 552.57 90.84 552.57H751.16C755.085 552.57 758.85 551.011 761.625 548.235C764.401 545.46 765.96 541.695 765.96 537.77V490.88H76.04Z" fill="#D0D2D5"/>
<path d="M740.83 104.8H104.6V464.61H740.83V104.8Z" fill="#B1C2DD"/>
<path d="M424.43 534.78C426.766 534.78 429.071 534.25 431.172 533.23C433.274 532.21 435.116 530.726 436.56 528.89C437.001 528.329 437.402 527.737 437.76 527.12L429.3 525.73L438.45 525.8C439.328 523.89 439.806 521.821 439.856 519.72C439.906 517.619 439.526 515.529 438.74 513.58L426.47 519.95L437.79 511.63C436.746 509.767 435.326 508.142 433.621 506.857C431.915 505.572 429.962 504.655 427.883 504.164C425.805 503.673 423.648 503.62 421.548 504.006C419.448 504.393 417.451 505.212 415.684 506.41C413.917 507.609 412.418 509.162 411.282 510.97C410.146 512.778 409.398 514.803 409.086 516.915C408.773 519.027 408.903 521.182 409.467 523.241C410.03 525.301 411.016 527.221 412.36 528.88C413.795 530.711 415.627 532.194 417.718 533.216C419.808 534.237 422.103 534.772 424.43 534.78Z" fill="#1CC5B7"/>
<path opacity="0.1" d="M439.85 552.56L510.94 623.95L500.03 552.56H439.85Z" fill="black"/>
</svg>
