<svg width="137" height="104" viewBox="0 0 137 104" fill="none" xmlns="http://www.w3.org/2000/svg">
<g clip-path="url(#clip0)">
<path opacity="0.1" d="M128.805 56.4533C123.989 63.0717 125.579 72.5189 128.363 80.0453C129.295 82.5648 130.354 85.2296 129.871 87.9709C129.28 91.322 126.505 93.8329 123.62 95.2004C118.361 97.6928 112.148 97.2949 107.444 94.1544C103.384 91.444 100.526 86.9397 96.3875 84.3586C89.4613 80.0404 80.4696 81.9697 72.7609 85.2666C67.3073 87.5988 61.3333 90.6025 56.0187 88.4489C52.2788 86.9335 49.7605 83.0761 48.4355 78.9525C47.7958 76.9615 47.348 74.8006 46.0735 73.2421C45.3156 72.3156 44.3142 71.67 43.2845 71.1304C33.8868 66.2023 21.7985 69.2823 12.6874 63.7838C6.53623 60.0705 2.70774 52.8644 1.11705 45.2887C-0.473643 37.713 -0.0799681 29.7159 0.553602 21.8556C1.00387 16.2696 1.71617 10.3005 5.06979 5.91075C8.61655 1.26972 14.561 -0.574617 19.8769 0.152277C25.1927 0.879171 29.9586 3.83603 34.1279 7.36577C39.3429 11.769 44.1408 17.2971 50.6266 18.969C55.0443 20.1074 59.7377 19.3016 64.3301 18.9456C72.0068 18.3517 79.6564 19.0355 87.2592 19.808C94.5373 20.5472 101.866 21.3726 108.759 23.796C113.637 25.511 117.503 28.7525 122.096 30.9676C125.089 32.4116 128.382 32.7467 131.199 34.612C134.676 36.9097 137.818 40.9803 136.798 45.8653C135.835 50.5088 131.364 52.9408 128.805 56.4533Z" fill="#1CC5B7"/>
<g opacity="0.5">
<path opacity="0.5" d="M105.184 86.6408C105.184 86.6408 105.59 74.5965 112.096 67.7908C114.827 64.935 116.621 61.3079 117.096 57.3827C117.318 55.5199 117.369 53.6406 117.249 51.7684" stroke="#535461" stroke-width="2" stroke-miterlimit="10"/>
<path opacity="0.5" d="M121.325 47.4575C120.879 48.8029 117.157 51.8928 117.157 51.8928C117.157 51.8928 116.016 47.1853 116.462 45.8411C116.567 45.5213 116.735 45.2256 116.955 44.9707C117.175 44.7159 117.443 44.5069 117.744 44.3558C118.045 44.2047 118.372 44.1143 118.708 44.0899C119.043 44.0655 119.38 44.1076 119.7 44.2136C120.019 44.3197 120.314 44.4877 120.569 44.708C120.823 44.9284 121.032 45.1968 121.183 45.4979C121.334 45.799 121.424 46.1269 121.448 46.463C121.473 46.799 121.431 47.1365 121.325 47.4563V47.4575Z" fill="#1CC5B7"/>
<path opacity="0.5" d="M122.876 56.2418C121.769 57.1289 116.971 57.6981 116.971 57.6981C116.971 57.6981 118.57 53.1261 119.677 52.2402C119.938 52.0132 120.241 51.8413 120.57 51.7348C120.898 51.6283 121.245 51.5893 121.588 51.6203C121.932 51.6513 122.266 51.7516 122.571 51.9151C122.875 52.0787 123.143 52.3021 123.358 52.5721C123.574 52.842 123.733 53.1528 123.826 53.4858C123.919 53.8188 123.943 54.1672 123.898 54.51C123.853 54.8528 123.739 55.1829 123.564 55.4805C123.388 55.7781 123.154 56.0371 122.876 56.2418Z" fill="#1CC5B7"/>
<path opacity="0.5" d="M118.487 68.912C117.087 69.119 112.654 67.1872 112.654 67.1872C112.654 67.1872 116.338 64.048 117.738 63.841C118.07 63.7917 118.41 63.8086 118.736 63.8906C119.062 63.9726 119.369 64.1182 119.639 64.3191C119.909 64.5199 120.137 64.772 120.31 65.0611C120.483 65.3502 120.597 65.6705 120.647 66.0038C120.696 66.3371 120.679 66.6768 120.597 67.0036C120.515 67.3304 120.37 67.6378 120.169 67.9083C119.969 68.1788 119.717 68.4071 119.428 68.5802C119.14 68.7532 118.82 68.8676 118.487 68.9169V68.912Z" fill="#1CC5B7"/>
<path opacity="0.5" d="M113.008 77.7505C111.664 78.1916 106.968 77.0335 106.968 77.0335C106.968 77.0335 110.069 73.3165 111.414 72.8754C112.059 72.663 112.763 72.7161 113.369 73.0231C113.976 73.33 114.435 73.8657 114.648 74.5121C114.86 75.1586 114.807 75.863 114.5 76.4703C114.194 77.0776 113.659 77.5381 113.013 77.7505H113.008Z" fill="#1CC5B7"/>
<path opacity="0.5" d="M111.777 56.2628C112.431 57.5195 116.601 59.9798 116.601 59.9798C116.601 59.9798 116.98 55.1515 116.327 53.8936C116.172 53.5948 115.959 53.3295 115.701 53.1129C115.444 52.8963 115.146 52.7327 114.825 52.6313C114.505 52.53 114.167 52.4929 113.832 52.5222C113.497 52.5515 113.171 52.6466 112.872 52.802C112.574 52.9575 112.309 53.1703 112.093 53.4283C111.876 53.6864 111.713 53.9845 111.612 54.3057C111.511 54.627 111.474 54.965 111.503 55.3006C111.532 55.6362 111.627 55.9627 111.782 56.2616L111.777 56.2628Z" fill="#1CC5B7"/>
<path opacity="0.5" d="M105.503 66.6796C106.502 67.6837 111.211 68.7826 111.211 68.7826C111.211 68.7826 110.13 64.0615 109.132 63.0574C108.652 62.5755 108.001 62.304 107.322 62.3027C106.643 62.3014 105.991 62.5705 105.509 63.0506C105.028 63.5308 104.757 64.1828 104.756 64.8631C104.755 65.5434 105.023 66.1964 105.503 66.6783V66.6796Z" fill="#1CC5B7"/>
<path opacity="0.5" d="M100.79 77.6433C101.605 78.8014 106.062 80.6827 106.062 80.6827C106.062 80.6827 105.794 75.847 104.978 74.6877C104.789 74.4003 104.545 74.1538 104.259 73.963C103.973 73.7721 103.652 73.6407 103.315 73.5767C102.977 73.5127 102.63 73.5173 102.294 73.5902C101.959 73.6632 101.641 73.803 101.361 74.0014C101.08 74.1997 100.842 74.4526 100.661 74.7449C100.48 75.0372 100.36 75.363 100.307 75.7029C100.254 76.0428 100.27 76.3899 100.354 76.7234C100.438 77.057 100.588 77.3702 100.795 77.6445L100.79 77.6433Z" fill="#1CC5B7"/>
<path opacity="0.5" d="M106.613 81.656C106.613 81.656 102.922 76.2795 103.569 71.2208C103.855 69.1007 103.445 66.9452 102.403 65.0779C101.901 64.1954 101.32 63.3607 100.666 62.5843" stroke="#535461" stroke-width="2" stroke-miterlimit="10"/>
<path opacity="0.5" d="M101.056 59.3934C101.294 60.1227 100.667 62.6681 100.667 62.6681C100.667 62.6681 98.6575 60.9851 98.4201 60.257C98.3059 59.9069 98.3353 59.5257 98.5017 59.1973C98.6682 58.8688 98.9581 58.6201 99.3077 58.5057C99.6573 58.3913 100.038 58.4207 100.366 58.5874C100.694 58.7541 100.942 59.0445 101.056 59.3946V59.3934Z" fill="#6C63FF"/>
<path opacity="0.5" d="M104.553 62.7186C104.358 63.4578 102.449 65.2553 102.449 65.2553C102.449 65.2553 101.676 62.7494 101.872 62.0077C101.966 61.6516 102.197 61.3475 102.515 61.1623C102.833 60.9771 103.212 60.926 103.567 61.0203C103.923 61.1146 104.227 61.3464 104.412 61.6649C104.597 61.9834 104.648 62.3625 104.553 62.7186Z" fill="#6C63FF"/>
<path opacity="0.5" d="M106.711 69.65C106.169 70.1908 103.616 70.776 103.616 70.776C103.616 70.776 104.212 68.222 104.755 67.6812C104.885 67.5526 105.038 67.4507 105.206 67.3814C105.375 67.3121 105.556 67.2767 105.738 67.2773C105.92 67.2779 106.1 67.3144 106.268 67.3847C106.437 67.4551 106.589 67.5579 106.718 67.6874C106.846 67.8168 106.948 67.9703 107.017 68.1391C107.086 68.3079 107.121 68.4887 107.121 68.6712C107.12 68.8536 107.084 69.0342 107.014 69.2026C106.943 69.3709 106.841 69.5238 106.711 69.6524V69.65Z" fill="#6C63FF"/>
<path opacity="0.5" d="M107.165 75.2643C106.721 75.8889 104.299 76.8955 104.299 76.8955C104.299 76.8955 104.455 74.2774 104.899 73.6528C105.005 73.5041 105.138 73.3777 105.293 73.2808C105.447 73.1838 105.619 73.1183 105.798 73.0878C105.978 73.0574 106.162 73.0627 106.339 73.1034C106.517 73.1441 106.685 73.2194 106.833 73.3251C106.982 73.4307 107.108 73.5646 107.205 73.7191C107.301 73.8736 107.367 74.0457 107.397 74.2256C107.428 74.4054 107.422 74.5895 107.382 74.7673C107.341 74.9451 107.266 75.1131 107.16 75.2618L107.165 75.2643Z" fill="#6C63FF"/>
<path opacity="0.5" d="M99.7277 66.3001C100.415 66.6377 103.02 66.3666 103.02 66.3666C103.02 66.3666 101.633 64.1416 100.946 63.8052C100.615 63.6435 100.234 63.6198 99.8865 63.7394C99.5387 63.859 99.2526 64.112 99.0911 64.4428C98.9296 64.7737 98.9059 65.1552 99.0253 65.5035C99.1447 65.8518 99.3974 66.1383 99.7277 66.3001Z" fill="#6C63FF"/>
<path opacity="0.5" d="M100.342 72.8606C101.1 72.9764 103.504 71.9378 103.504 71.9378C103.504 71.9378 101.516 70.2302 100.759 70.1194C100.396 70.064 100.025 70.1555 99.7289 70.3739C99.4326 70.5922 99.2351 70.9195 99.1798 71.2836C99.1245 71.6478 99.2159 72.019 99.434 72.3157C99.652 72.6124 99.9788 72.8101 100.342 72.8655V72.8606Z" fill="#6C63FF"/>
<path opacity="0.5" d="M101.81 79.1526C102.537 79.399 105.083 78.783 105.083 78.783C105.083 78.783 103.412 76.7637 102.685 76.521C102.336 76.4048 101.955 76.4323 101.626 76.5974C101.297 76.7624 101.047 77.0516 100.931 77.4012C100.815 77.7509 100.843 78.1323 101.007 78.4617C101.172 78.791 101.461 79.0413 101.81 79.1575V79.1526Z" fill="#6C63FF"/>
<path opacity="0.5" d="M101.056 59.3934C101.294 60.1227 100.667 62.6681 100.667 62.6681C100.667 62.6681 98.6575 60.9851 98.4201 60.257C98.3059 59.9069 98.3353 59.5257 98.5017 59.1973C98.6682 58.8688 98.9581 58.6201 99.3077 58.5057C99.6573 58.3913 100.038 58.4207 100.366 58.5874C100.694 58.7541 100.942 59.0445 101.056 59.3946V59.3934Z" fill="white"/>
<path opacity="0.5" d="M104.553 62.7186C104.358 63.4578 102.449 65.2553 102.449 65.2553C102.449 65.2553 101.676 62.7494 101.872 62.0077C101.966 61.6516 102.197 61.3475 102.515 61.1623C102.833 60.9771 103.212 60.926 103.567 61.0203C103.923 61.1146 104.227 61.3464 104.412 61.6649C104.597 61.9834 104.648 62.3625 104.553 62.7186Z" fill="white"/>
<path opacity="0.5" d="M106.711 69.65C106.169 70.1908 103.616 70.776 103.616 70.776C103.616 70.776 104.212 68.222 104.755 67.6812C104.885 67.5526 105.038 67.4507 105.206 67.3814C105.375 67.3121 105.556 67.2767 105.738 67.2773C105.92 67.2779 106.1 67.3144 106.268 67.3847C106.437 67.4551 106.589 67.5579 106.718 67.6874C106.846 67.8168 106.948 67.9703 107.017 68.1391C107.086 68.3079 107.121 68.4887 107.121 68.6712C107.12 68.8536 107.084 69.0342 107.014 69.2026C106.943 69.3709 106.841 69.5238 106.711 69.6524V69.65Z" fill="white"/>
<path opacity="0.5" d="M107.165 75.2643C106.721 75.8889 104.299 76.8955 104.299 76.8955C104.299 76.8955 104.455 74.2774 104.899 73.6528C105.005 73.5041 105.138 73.3777 105.293 73.2808C105.447 73.1838 105.619 73.1183 105.798 73.0878C105.978 73.0574 106.162 73.0627 106.339 73.1034C106.517 73.1441 106.685 73.2194 106.833 73.3251C106.982 73.4307 107.108 73.5646 107.205 73.7191C107.301 73.8736 107.367 74.0457 107.397 74.2256C107.428 74.4054 107.422 74.5895 107.382 74.7673C107.341 74.9451 107.266 75.1131 107.16 75.2618L107.165 75.2643Z" fill="white"/>
<path opacity="0.5" d="M99.7277 66.3001C100.415 66.6377 103.02 66.3666 103.02 66.3666C103.02 66.3666 101.633 64.1416 100.946 63.8052C100.615 63.6435 100.234 63.6198 99.8865 63.7394C99.5387 63.859 99.2526 64.112 99.0911 64.4428C98.9296 64.7737 98.9059 65.1552 99.0253 65.5035C99.1447 65.8518 99.3974 66.1383 99.7277 66.3001Z" fill="white"/>
<path opacity="0.5" d="M100.342 72.8606C101.1 72.9764 103.504 71.9378 103.504 71.9378C103.504 71.9378 101.516 70.2302 100.759 70.1194C100.396 70.064 100.025 70.1555 99.7289 70.3739C99.4326 70.5922 99.2351 70.9195 99.1798 71.2836C99.1245 71.6478 99.2159 72.019 99.434 72.3157C99.652 72.6124 99.9788 72.8101 100.342 72.8655V72.8606Z" fill="white"/>
<path opacity="0.5" d="M101.81 79.1526C102.537 79.399 105.083 78.783 105.083 78.783C105.083 78.783 103.412 76.7637 102.685 76.521C102.336 76.4048 101.955 76.4323 101.626 76.5974C101.297 76.7624 101.047 77.0516 100.931 77.4012C100.815 77.7509 100.843 78.1323 101.007 78.4617C101.172 78.791 101.461 79.0413 101.81 79.1575V79.1526Z" fill="white"/>
<path opacity="0.5" d="M99.7842 96.2346H110.282L112.907 80.2022H97.1602L99.7842 96.2346Z" fill="#474059"/>
<path opacity="0.1" d="M99.1691 80.2022L101.621 95.1836H110.454L110.282 96.2346H99.7842L97.1602 80.2022H99.1691Z" fill="black"/>
</g>
<path d="M101.774 4.84063H24.7617V97.8953H101.774V4.84063Z" fill="url(#paint0_linear)"/>
<path d="M100.79 6.03075H25.7461V96.7076H100.79V6.03075Z" fill="white"/>
<path d="M85.1671 16.2565H54.9033V17.735H85.1671V16.2565Z" fill="#C0BCCF"/>
<path d="M85.1671 20.9382H54.9033V22.4167H85.1671V20.9382Z" fill="#C0BCCF"/>
<path d="M77.9081 25.6199H62.1611V27.0983H77.9081V25.6199Z" fill="#F50057"/>
<path opacity="0.5" d="M85.1671 45.9483H54.9033V47.4267H85.1671V45.9483Z" fill="#C0BCCF"/>
<path opacity="0.5" d="M85.1671 50.63H54.9033V52.1084H85.1671V50.63Z" fill="#C0BCCF"/>
<path opacity="0.5" d="M77.9081 55.3117H62.1611V56.7901H77.9081V55.3117Z" fill="#F50057"/>
<path opacity="0.5" d="M85.1671 75.6401H54.9033V77.1185H85.1671V75.6401Z" fill="#C0BCCF"/>
<path opacity="0.5" d="M85.1671 80.3217H54.9033V81.8002H85.1671V80.3217Z" fill="#C0BCCF"/>
<path opacity="0.5" d="M77.9081 85.0034H62.1611V86.4819H77.9081V85.0034Z" fill="#F50057"/>
<g opacity="0.5">
<path opacity="0.5" d="M44.2479 54.1942L43.6131 53.9084C43.6228 53.8118 43.6269 53.7147 43.6254 53.6176C43.6298 53.5356 43.6298 53.4533 43.6254 53.3712C43.5627 52.7232 43.1505 52.1589 42.859 51.5663C42.592 51.0254 42.4225 50.4415 42.3583 49.8415C42.2808 49.1023 42.3583 48.336 42.0876 47.6411C41.8674 47.0805 41.4319 46.6124 40.9656 46.1984C40.4423 45.7066 39.8308 45.3182 39.1634 45.0538C38.4818 44.8074 37.6981 44.7446 37.0166 44.9959C36.4015 45.2226 35.9278 45.6748 35.4702 46.1146C35.1379 46.4078 34.8443 46.7424 34.5967 47.1101C34.3175 47.5684 34.1981 48.0957 34.1046 48.6156C33.9577 49.448 33.8567 50.2879 33.802 51.1314C33.754 51.8349 33.679 52.6333 33.0786 53.0645C32.7858 53.2751 32.3737 53.3934 32.2396 53.7125C32.2016 53.8083 32.1864 53.9117 32.1953 54.0144C32.1916 54.0998 32.1978 54.1854 32.2138 54.2694C32.2224 54.3187 32.2322 54.3667 32.2445 54.416C32.0722 54.8449 31.9276 55.2844 31.8115 55.7318C31.7217 56.0644 31.6392 56.3909 31.5654 56.7076H31.7647H31.8705L33.0171 56.7347H33.0331L34.2633 56.763H34.2695L35.4161 56.7901H35.4444L35.7753 56.8135H35.8836L40.4686 56.9195H40.4932L40.7983 56.9269H40.9054L41.8231 56.9478L43.1764 56.9786H43.1862L44.2049 57.0032H44.3131H44.5223L44.4681 55.9338C44.692 54.2965 44.2479 54.1942 44.2479 54.1942ZM39.0969 54.0636C39.0969 54.9704 38.1275 56.0805 38.1275 56.0805L37.1519 54.7499L37.1876 54.6981L38.1275 55.9794C38.1275 55.9794 39.0969 54.8706 39.0969 53.9626C39.1195 53.9164 39.1454 53.872 39.1744 53.8296L39.1966 53.8985C39.1593 53.951 39.126 54.0062 39.0969 54.0636ZM40.588 57.6217C40.588 57.5761 40.588 57.5293 40.5794 57.4837C40.5707 57.4381 40.572 57.3975 40.5658 57.3531C40.5597 57.3088 40.5547 57.2657 40.5486 57.2213C40.5424 57.177 40.5338 57.1338 40.5252 57.0895C40.5166 57.0451 40.508 57.002 40.4982 56.9577C40.4982 56.9429 40.492 56.9293 40.4883 56.9133C40.4748 56.8554 40.46 56.7975 40.444 56.7396C40.428 56.6817 40.4182 56.646 40.4034 56.6004C40.4034 56.5794 40.3911 56.5585 40.3837 56.5388C40.3764 56.5191 40.3628 56.4722 40.3518 56.439L40.3296 56.3749C40.3198 56.3466 40.3099 56.317 40.2989 56.2887C40.2804 56.2369 40.2607 56.1864 40.241 56.1347C40.2214 56.0829 40.2004 56.0324 40.1795 55.9819C40.1377 55.8784 40.0922 55.7761 40.0467 55.6727C39.8683 55.2735 39.6678 54.8805 39.4832 54.4911C39.3843 54.2874 39.2964 54.0785 39.2199 53.8653L39.1966 53.8961C39.1593 53.949 39.126 54.0046 39.0969 54.0624C39.0969 54.9692 38.1275 56.0792 38.1275 56.0792L37.1519 54.7486L36.2981 55.9807C36.1751 56.0423 36.0521 56.2517 35.9561 56.5499C35.9291 56.6299 35.9032 56.7186 35.8786 56.8111C35.8614 56.8739 35.8454 56.9342 35.8307 57.0045C35.822 57.0377 35.8147 57.071 35.8073 57.1055L35.7851 57.2102V57.2262C35.7704 57.2977 35.7556 57.3716 35.7421 57.4468C35.7285 57.5219 35.7126 57.6082 35.699 57.6932C35.6892 57.7466 35.6806 57.7995 35.6732 57.8521C35.656 57.9544 35.6412 58.0579 35.6264 58.1613C35.6178 58.2217 35.6092 58.2846 35.6018 58.34L35.5723 58.5691C35.635 58.7576 35.7052 58.9388 35.7778 59.1285C35.8239 59.2281 35.851 59.3355 35.8577 59.4451C37.3711 59.8492 38.9638 59.8492 40.4772 59.4451C40.4768 59.4414 40.4768 59.4377 40.4772 59.434C40.4546 59.3309 40.4447 59.2254 40.4477 59.1199C40.4726 58.8238 40.5136 58.5293 40.5707 58.2377C40.5889 58.0939 40.5967 57.949 40.5941 57.8041V57.7523C40.5904 57.7055 40.5892 57.6636 40.588 57.623V57.6217ZM40.588 57.6217C40.588 57.5761 40.588 57.5293 40.5794 57.4837C40.5707 57.4381 40.572 57.3975 40.5658 57.3531C40.5597 57.3088 40.5547 57.2657 40.5486 57.2213C40.5424 57.177 40.5338 57.1338 40.5252 57.0895C40.5166 57.0451 40.508 57.002 40.4982 56.9577C40.4982 56.9429 40.492 56.9293 40.4883 56.9133C40.4748 56.8554 40.46 56.7975 40.444 56.7396C40.428 56.6817 40.4182 56.646 40.4034 56.6004C40.4034 56.5794 40.3911 56.5585 40.3837 56.5388C40.3764 56.5191 40.3628 56.4722 40.3518 56.439L40.3296 56.3749C40.3198 56.3466 40.3099 56.317 40.2989 56.2887C40.2804 56.2369 40.2607 56.1864 40.241 56.1347C40.2214 56.0829 40.2004 56.0324 40.1795 55.9819C40.1377 55.8784 40.0922 55.7761 40.0467 55.6727C39.8683 55.2735 39.6678 54.8805 39.4832 54.4911C39.3843 54.2874 39.2964 54.0785 39.2199 53.8653L39.1966 53.8961C39.1593 53.949 39.126 54.0046 39.0969 54.0624C39.0969 54.9692 38.1275 56.0792 38.1275 56.0792L37.1519 54.7486L36.2981 55.9807C36.1751 56.0423 36.0521 56.2517 35.9561 56.5499C35.9291 56.6299 35.9032 56.7186 35.8786 56.8111C35.8614 56.8739 35.8454 56.9342 35.8307 57.0045C35.822 57.0377 35.8147 57.071 35.8073 57.1055L35.7851 57.2102V57.2262C35.7704 57.2977 35.7556 57.3716 35.7421 57.4468C35.7285 57.5219 35.7126 57.6082 35.699 57.6932C35.6892 57.7466 35.6806 57.7995 35.6732 57.8521C35.656 57.9544 35.6412 58.0579 35.6264 58.1613C35.6178 58.2217 35.6092 58.2846 35.6018 58.34L35.5723 58.5691C35.635 58.7576 35.7052 58.9388 35.7778 59.1285C35.8239 59.2281 35.851 59.3355 35.8577 59.4451C37.3711 59.8492 38.9638 59.8492 40.4772 59.4451C40.4768 59.4414 40.4768 59.4377 40.4772 59.434C40.4546 59.3309 40.4447 59.2254 40.4477 59.1199C40.4726 58.8238 40.5136 58.5293 40.5707 58.2377C40.5889 58.0939 40.5967 57.949 40.5941 57.8041V57.7523C40.5904 57.7055 40.5892 57.6636 40.588 57.623V57.6217ZM40.588 57.6217C40.588 57.5761 40.588 57.5293 40.5794 57.4837C40.5707 57.4381 40.572 57.3975 40.5658 57.3531C40.5597 57.3088 40.5547 57.2657 40.5486 57.2213C40.5424 57.177 40.5338 57.1338 40.5252 57.0895C40.5166 57.0451 40.508 57.002 40.4982 56.9577C40.4982 56.9429 40.492 56.9293 40.4883 56.9133C40.4748 56.8554 40.46 56.7975 40.444 56.7396C40.428 56.6817 40.4182 56.646 40.4034 56.6004C40.4034 56.5794 40.3911 56.5585 40.3837 56.5388C40.3764 56.5191 40.3628 56.4722 40.3518 56.439L40.3296 56.3749C40.3198 56.3466 40.3099 56.317 40.2989 56.2887C40.2804 56.2369 40.2607 56.1864 40.241 56.1347C40.2214 56.0829 40.2004 56.0324 40.1795 55.9819C40.1377 55.8784 40.0922 55.7761 40.0467 55.6727C39.8683 55.2735 39.6678 54.8805 39.4832 54.4911C39.3843 54.2874 39.2964 54.0785 39.2199 53.8653L39.1966 53.8961C39.1593 53.949 39.126 54.0046 39.0969 54.0624C39.0969 54.9692 38.1275 56.0792 38.1275 56.0792L37.1519 54.7486L36.2981 55.9807C36.1751 56.0423 36.0521 56.2517 35.9561 56.5499C35.9291 56.6299 35.9032 56.7186 35.8786 56.8111C35.8614 56.8739 35.8454 56.9342 35.8307 57.0045C35.822 57.0377 35.8147 57.071 35.8073 57.1055L35.7851 57.2102V57.2262C35.7704 57.2977 35.7556 57.3716 35.7421 57.4468C35.7285 57.5219 35.7126 57.6082 35.699 57.6932C35.6892 57.7466 35.6806 57.7995 35.6732 57.8521C35.656 57.9544 35.6412 58.0579 35.6264 58.1613C35.6178 58.2217 35.6092 58.2846 35.6018 58.34L35.5723 58.5691C35.635 58.7576 35.7052 58.9388 35.7778 59.1285C35.8239 59.2281 35.851 59.3355 35.8577 59.4451C37.3711 59.8492 38.9638 59.8492 40.4772 59.4451C40.4768 59.4414 40.4768 59.4377 40.4772 59.434C40.4546 59.3309 40.4447 59.2254 40.4477 59.1199C40.4726 58.8238 40.5136 58.5293 40.5707 58.2377C40.5889 58.0939 40.5967 57.949 40.5941 57.8041V57.7523C40.5904 57.7055 40.5892 57.6636 40.588 57.623V57.6217ZM40.588 57.6217C40.588 57.5761 40.588 57.5293 40.5794 57.4837C40.5707 57.4381 40.572 57.3975 40.5658 57.3531C40.5597 57.3088 40.5547 57.2657 40.5486 57.2213C40.5424 57.177 40.5338 57.1338 40.5252 57.0895C40.5166 57.0451 40.508 57.002 40.4982 56.9577C40.4982 56.9429 40.492 56.9293 40.4883 56.9133C40.4748 56.8554 40.46 56.7975 40.444 56.7396C40.428 56.6817 40.4182 56.646 40.4034 56.6004C40.4034 56.5794 40.3911 56.5585 40.3837 56.5388C40.3764 56.5191 40.3628 56.4722 40.3518 56.439L40.3296 56.3749C40.3198 56.3466 40.3099 56.317 40.2989 56.2887C40.2804 56.2369 40.2607 56.1864 40.241 56.1347C40.2214 56.0829 40.2004 56.0324 40.1795 55.9819C40.1377 55.8784 40.0922 55.7761 40.0467 55.6727C39.8683 55.2735 39.6678 54.8805 39.4832 54.4911C39.3843 54.2874 39.2964 54.0785 39.2199 53.8653L39.1966 53.8961C39.1593 53.949 39.126 54.0046 39.0969 54.0624C39.0969 54.9692 38.1275 56.0792 38.1275 56.0792L37.1519 54.7486L36.2981 55.9807C36.1751 56.0423 36.0521 56.2517 35.9561 56.5499C35.9291 56.6299 35.9032 56.7186 35.8786 56.8111C35.8614 56.8739 35.8454 56.9342 35.8307 57.0045C35.822 57.0377 35.8147 57.071 35.8073 57.1055L35.7851 57.2102V57.2262C35.7704 57.2977 35.7556 57.3716 35.7421 57.4468C35.7285 57.5219 35.7126 57.6082 35.699 57.6932C35.6892 57.7466 35.6806 57.7995 35.6732 57.8521C35.656 57.9544 35.6412 58.0579 35.6264 58.1613C35.6178 58.2217 35.6092 58.2846 35.6018 58.34L35.5723 58.5691C35.635 58.7576 35.7052 58.9388 35.7778 59.1285C35.8239 59.2281 35.851 59.3355 35.8577 59.4451C37.3711 59.8492 38.9638 59.8492 40.4772 59.4451C40.4768 59.4414 40.4768 59.4377 40.4772 59.434C40.4546 59.3309 40.4447 59.2254 40.4477 59.1199C40.4726 58.8238 40.5136 58.5293 40.5707 58.2377C40.5889 58.0939 40.5967 57.949 40.5941 57.8041V57.7523C40.5904 57.7055 40.5892 57.6636 40.588 57.623V57.6217Z" fill="url(#paint1_linear)"/>
<path opacity="0.5" d="M40.6317 49.0284H34.9727V52.8476H40.6317V49.0284Z" fill="#493545"/>
<path opacity="0.5" d="M41.5721 53.2407L39.2039 56.5819L36.7286 56.3663C36.7286 56.3663 33.4993 56.5807 35.6522 54.1031C36.6868 52.9117 37.0251 51.9187 37.0977 51.2103C37.1764 50.444 36.9439 50.0078 36.9439 50.0078L39.6344 49.685C39.513 50.0481 39.4977 50.4383 39.5901 50.8099C39.9272 52.2094 41.5721 53.2407 41.5721 53.2407Z" fill="#C77485"/>
<path opacity="0.1" d="M39.5886 50.8062C39.2377 51.0723 38.8269 51.2481 38.3924 51.3181C37.9578 51.3881 37.5127 51.3502 37.0962 51.2078C37.1749 50.4415 36.9424 50.0054 36.9424 50.0054L39.6329 49.6826C39.5117 50.0453 39.4964 50.435 39.5886 50.8062Z" fill="black"/>
<path opacity="0.5" d="M37.9669 51.2448C39.4528 51.2448 40.6574 50.0384 40.6574 48.5503C40.6574 47.0622 39.4528 45.8559 37.9669 45.8559C36.481 45.8559 35.2764 47.0622 35.2764 48.5503C35.2764 50.0384 36.481 51.2448 37.9669 51.2448Z" fill="#C77485"/>
<path opacity="0.1" d="M41.4738 53.3786L41.4111 53.1322L41.3569 52.9154L41.277 52.5951L41.2622 52.5359L41.2499 52.4866C41.2499 52.4866 41.3139 52.2932 40.8919 52.356L40.8132 52.3696C40.7467 52.3831 40.6692 52.4016 40.5807 52.4263L40.5007 52.4509L40.3949 52.4842C40.0599 52.5934 39.7544 52.778 39.5017 53.0238C39.3883 53.1324 39.288 53.254 39.2028 53.386C39.1942 53.3983 39.188 53.4094 39.1807 53.4193C39.1515 53.4651 39.1256 53.5128 39.1031 53.5622C39.1031 54.533 38.1337 55.7182 38.1337 55.7182L37.1877 54.3495L37.1692 54.3224L36.9441 53.9946L36.8641 53.8887L36.8371 53.8517L36.345 53.1901L36.2219 53.025L36.1813 52.9696L36.1211 52.8895L35.9796 52.701L35.426 53.025L34.6878 53.4562L34.2573 56.2591V56.3367L34.2708 56.5683L34.3606 58.0911V58.1121L34.2031 58.7429L34.2265 58.7552C34.5981 58.9559 34.9847 59.1273 35.3829 59.2677L35.4875 59.3047C35.6105 59.3453 35.7262 59.3823 35.8467 59.418C35.8512 59.4363 35.8545 59.4548 35.8566 59.4735C35.8566 59.4562 35.8566 59.4377 35.8566 59.4205C37.3662 59.8525 38.9665 59.8525 40.4761 59.4205L40.5044 59.4119C40.5745 59.3922 40.6459 59.3712 40.7148 59.3478L40.8267 59.3121C41.1303 59.2104 41.4277 59.0911 41.7174 58.9548L41.8207 56.7495L41.8946 55.1589V55.0677L41.4738 53.3786Z" fill="black"/>
<path opacity="0.5" d="M40.5873 57.4751C40.5873 57.4258 40.5873 57.3765 40.5787 57.3273C40.5701 57.278 40.5713 57.2349 40.5652 57.188C40.559 57.1412 40.5541 57.0944 40.548 57.0476C40.5418 57.0008 40.5332 56.954 40.5246 56.9071C40.516 56.8603 40.5074 56.8135 40.4975 56.7667C40.4975 56.7507 40.4914 56.7359 40.4877 56.7199C40.4742 56.6583 40.4594 56.5967 40.4434 56.5338C40.4274 56.471 40.4176 56.434 40.4028 56.3848C40.4028 56.3626 40.3905 56.3404 40.3831 56.3195C40.3757 56.2985 40.3622 56.248 40.3511 56.2123L40.329 56.1433C40.3191 56.1125 40.3093 56.0817 40.2982 56.0509C40.2798 55.9954 40.2601 55.9412 40.2404 55.8858C40.2207 55.8304 40.1998 55.7761 40.1789 55.7219C40.1371 55.6111 40.0916 55.5014 40.046 55.3917C39.8677 54.9655 39.6671 54.5453 39.4826 54.1289C39.3834 53.9106 39.2955 53.6873 39.2193 53.4599L39.1959 53.4932C39.1585 53.5499 39.1252 53.6092 39.0963 53.6706C39.0963 54.6402 38.1269 55.8267 38.1269 55.8267L37.1513 54.4037L36.2975 55.7182C36.1745 55.7835 36.0515 56.0078 35.9555 56.3269C35.9284 56.4131 35.9026 56.5067 35.878 56.6065C35.8608 56.6731 35.8448 56.7433 35.83 56.8135C35.8214 56.8492 35.814 56.885 35.8067 56.9219L35.7845 57.034V57.0513C35.7697 57.1277 35.755 57.2065 35.7414 57.2866C35.7279 57.3667 35.7119 57.4591 35.6984 57.5466C35.6885 57.6032 35.6799 57.6599 35.6726 57.7166C35.6553 57.8262 35.6406 57.9371 35.6258 58.0468C35.6172 58.1108 35.6086 58.17 35.6012 58.2377L35.5717 58.4841C35.6344 58.6862 35.7045 58.8858 35.7771 59.0817C35.8235 59.189 35.8506 59.3037 35.8571 59.4205C37.3667 59.8525 38.967 59.8525 40.4766 59.4205C40.4761 59.4164 40.4761 59.4122 40.4766 59.4082C40.4539 59.2976 40.444 59.1847 40.4471 59.0718C40.4719 58.7557 40.513 58.4412 40.5701 58.1293C40.5883 57.9756 40.5961 57.8208 40.5935 57.6661V57.6106C40.5898 57.5638 40.5886 57.5195 40.5873 57.4751ZM40.5873 57.4751C40.5873 57.4258 40.5873 57.3765 40.5787 57.3273C40.5701 57.278 40.5713 57.2349 40.5652 57.188C40.559 57.1412 40.5541 57.0944 40.548 57.0476C40.5418 57.0008 40.5332 56.954 40.5246 56.9071C40.516 56.8603 40.5074 56.8135 40.4975 56.7667C40.4975 56.7507 40.4914 56.7359 40.4877 56.7199C40.4742 56.6583 40.4594 56.5967 40.4434 56.5338C40.4274 56.471 40.4176 56.434 40.4028 56.3848C40.4028 56.3626 40.3905 56.3404 40.3831 56.3195C40.3757 56.2985 40.3622 56.248 40.3511 56.2123L40.329 56.1433C40.3191 56.1125 40.3093 56.0817 40.2982 56.0509C40.2798 55.9954 40.2601 55.9412 40.2404 55.8858C40.2207 55.8304 40.1998 55.7761 40.1789 55.7219C40.1371 55.6111 40.0916 55.5014 40.046 55.3917C39.8677 54.9655 39.6671 54.5453 39.4826 54.1289C39.3834 53.9106 39.2955 53.6873 39.2193 53.4599L39.1959 53.4932C39.1585 53.5499 39.1252 53.6092 39.0963 53.6706C39.0963 54.6402 38.1269 55.8267 38.1269 55.8267L37.1513 54.4037L36.2975 55.7182C36.1745 55.7835 36.0515 56.0078 35.9555 56.3269C35.9284 56.4131 35.9026 56.5067 35.878 56.6065C35.8608 56.6731 35.8448 56.7433 35.83 56.8135C35.8214 56.8492 35.814 56.885 35.8067 56.9219L35.7845 57.034V57.0513C35.7697 57.1277 35.755 57.2065 35.7414 57.2866C35.7279 57.3667 35.7119 57.4591 35.6984 57.5466C35.6885 57.6032 35.6799 57.6599 35.6726 57.7166C35.6553 57.8262 35.6406 57.9371 35.6258 58.0468C35.6172 58.1108 35.6086 58.17 35.6012 58.2377L35.5717 58.4841C35.6344 58.6862 35.7045 58.8858 35.7771 59.0817C35.8235 59.189 35.8506 59.3037 35.8571 59.4205C37.3667 59.8525 38.967 59.8525 40.4766 59.4205C40.4761 59.4164 40.4761 59.4122 40.4766 59.4082C40.4539 59.2976 40.444 59.1847 40.4471 59.0718C40.4719 58.7557 40.513 58.4412 40.5701 58.1293C40.5883 57.9756 40.5961 57.8208 40.5935 57.6661V57.6106C40.5898 57.5638 40.5886 57.5195 40.5873 57.4751ZM40.5873 57.4751C40.5873 57.4258 40.5873 57.3765 40.5787 57.3273C40.5701 57.278 40.5713 57.2349 40.5652 57.188C40.559 57.1412 40.5541 57.0944 40.548 57.0476C40.5418 57.0008 40.5332 56.954 40.5246 56.9071C40.516 56.8603 40.5074 56.8135 40.4975 56.7667C40.4975 56.7507 40.4914 56.7359 40.4877 56.7199C40.4742 56.6583 40.4594 56.5967 40.4434 56.5338C40.4274 56.471 40.4176 56.434 40.4028 56.3848C40.4028 56.3626 40.3905 56.3404 40.3831 56.3195C40.3757 56.2985 40.3622 56.248 40.3511 56.2123L40.329 56.1433C40.3191 56.1125 40.3093 56.0817 40.2982 56.0509C40.2798 55.9954 40.2601 55.9412 40.2404 55.8858C40.2207 55.8304 40.1998 55.7761 40.1789 55.7219C40.1371 55.6111 40.0916 55.5014 40.046 55.3917C39.8677 54.9655 39.6671 54.5453 39.4826 54.1289C39.3834 53.9106 39.2955 53.6873 39.2193 53.4599L39.1959 53.4932C39.1585 53.5499 39.1252 53.6092 39.0963 53.6706C39.0963 54.6402 38.1269 55.8267 38.1269 55.8267L37.1513 54.4037L36.2975 55.7182C36.1745 55.7835 36.0515 56.0078 35.9555 56.3269C35.9284 56.4131 35.9026 56.5067 35.878 56.6065C35.8608 56.6731 35.8448 56.7433 35.83 56.8135C35.8214 56.8492 35.814 56.885 35.8067 56.9219L35.7845 57.034V57.0513C35.7697 57.1277 35.755 57.2065 35.7414 57.2866C35.7279 57.3667 35.7119 57.4591 35.6984 57.5466C35.6885 57.6032 35.6799 57.6599 35.6726 57.7166C35.6553 57.8262 35.6406 57.9371 35.6258 58.0468C35.6172 58.1108 35.6086 58.17 35.6012 58.2377L35.5717 58.4841C35.6344 58.6862 35.7045 58.8858 35.7771 59.0817C35.8235 59.189 35.8506 59.3037 35.8571 59.4205C37.3667 59.8525 38.967 59.8525 40.4766 59.4205C40.4761 59.4164 40.4761 59.4122 40.4766 59.4082C40.4539 59.2976 40.444 59.1847 40.4471 59.0718C40.4719 58.7557 40.513 58.4412 40.5701 58.1293C40.5883 57.9756 40.5961 57.8208 40.5935 57.6661V57.6106C40.5898 57.5638 40.5886 57.5195 40.5873 57.4751ZM41.8914 55.1626L41.4522 53.407L41.3771 53.1063L41.3562 53.0238L41.2492 52.5951C41.2495 52.5914 41.2495 52.5877 41.2492 52.584C41.2518 52.565 41.2488 52.5458 41.2406 52.5285C41.2246 52.4965 41.184 52.4632 41.0893 52.4546C41.0532 52.452 41.0171 52.452 40.981 52.4546C40.8741 52.4652 40.7683 52.485 40.6648 52.5137C40.6144 52.5273 40.5603 52.5421 40.5024 52.5606L40.3967 52.5938H40.3868C40.1035 52.6869 39.8404 52.8333 39.6118 53.025C39.4607 53.1511 39.3282 53.298 39.2181 53.4612L39.1947 53.4944C39.1573 53.5511 39.124 53.6104 39.0951 53.6718C39.0951 54.6414 38.1256 55.8279 38.1256 55.8279L37.1501 54.4049L37.0947 54.3248L37.0849 54.3113L36.9434 54.103L36.8364 53.9601L36.8081 53.9232L36.3037 53.2493L36.1437 53.0312V53.0238L36.0884 52.9486L35.9826 52.8082L35.6135 53.0238L34.6908 53.5622L34.2652 56.3355V56.365L34.2775 56.5671L34.3685 58.1108V58.1983L34.2295 58.7539C34.6011 58.9547 34.9877 59.126 35.3859 59.2665L35.4905 59.3034C35.6135 59.3441 35.7291 59.3811 35.8497 59.4168C35.8542 59.435 35.8575 59.4535 35.8596 59.4722C35.8596 59.455 35.8596 59.4365 35.8596 59.4192C37.3692 59.8513 38.9694 59.8513 40.4791 59.4192L40.5074 59.4106C40.5775 59.3909 40.6488 59.37 40.7177 59.3466L40.8297 59.3108C41.1333 59.2091 41.4307 59.0899 41.7204 58.9535L41.8225 56.7507L41.8963 55.1774L41.8914 55.1626ZM35.8411 59.4168C35.8456 59.435 35.8489 59.4535 35.8509 59.4722C35.8509 59.455 35.8509 59.4365 35.8509 59.4192L35.8411 59.4168ZM40.5873 57.4751C40.5873 57.4258 40.5873 57.3765 40.5787 57.3273C40.5701 57.278 40.5713 57.2349 40.5652 57.188C40.559 57.1412 40.5541 57.0944 40.548 57.0476C40.5418 57.0008 40.5332 56.954 40.5246 56.9071C40.516 56.8603 40.5074 56.8135 40.4975 56.7667C40.4975 56.7507 40.4914 56.7359 40.4877 56.7199C40.4742 56.6583 40.4594 56.5967 40.4434 56.5338C40.4274 56.471 40.4176 56.434 40.4028 56.3848C40.4028 56.3626 40.3905 56.3404 40.3831 56.3195C40.3757 56.2985 40.3622 56.248 40.3511 56.2123L40.329 56.1433C40.3191 56.1125 40.3093 56.0817 40.2982 56.0509C40.2798 55.9954 40.2601 55.9412 40.2404 55.8858C40.2207 55.8304 40.1998 55.7761 40.1789 55.7219C40.1371 55.6111 40.0916 55.5014 40.046 55.3917C39.8677 54.9655 39.6671 54.5453 39.4826 54.1289C39.3834 53.9106 39.2955 53.6873 39.2193 53.4599L39.1959 53.4932C39.1585 53.5499 39.1252 53.6092 39.0963 53.6706C39.0963 54.6402 38.1269 55.8267 38.1269 55.8267L37.1513 54.4037L36.2975 55.7182C36.1745 55.7835 36.0515 56.0078 35.9555 56.3269C35.9284 56.4131 35.9026 56.5067 35.878 56.6065C35.8608 56.6731 35.8448 56.7433 35.83 56.8135C35.8214 56.8492 35.814 56.885 35.8067 56.9219L35.7845 57.034V57.0513C35.7697 57.1277 35.755 57.2065 35.7414 57.2866C35.7279 57.3667 35.7119 57.4591 35.6984 57.5466C35.6885 57.6032 35.6799 57.6599 35.6726 57.7166C35.6553 57.8262 35.6406 57.9371 35.6258 58.0468C35.6172 58.1108 35.6086 58.17 35.6012 58.2377L35.5717 58.4841C35.6344 58.6862 35.7045 58.8858 35.7771 59.0817C35.8235 59.189 35.8506 59.3037 35.8571 59.4205C37.3667 59.8525 38.967 59.8525 40.4766 59.4205C40.4761 59.4164 40.4761 59.4122 40.4766 59.4082C40.4539 59.2976 40.444 59.1847 40.4471 59.0718C40.4719 58.7557 40.513 58.4412 40.5701 58.1293C40.5883 57.9756 40.5961 57.8208 40.5935 57.6661V57.6106C40.5898 57.5638 40.5886 57.5195 40.5873 57.4751ZM40.5873 57.4751C40.5873 57.4258 40.5873 57.3765 40.5787 57.3273C40.5701 57.278 40.5713 57.2349 40.5652 57.188C40.559 57.1412 40.5541 57.0944 40.548 57.0476C40.5418 57.0008 40.5332 56.954 40.5246 56.9071C40.516 56.8603 40.5074 56.8135 40.4975 56.7667C40.4975 56.7507 40.4914 56.7359 40.4877 56.7199C40.4742 56.6583 40.4594 56.5967 40.4434 56.5338C40.4274 56.471 40.4176 56.434 40.4028 56.3848C40.4028 56.3626 40.3905 56.3404 40.3831 56.3195C40.3757 56.2985 40.3622 56.248 40.3511 56.2123L40.329 56.1433C40.3191 56.1125 40.3093 56.0817 40.2982 56.0509C40.2798 55.9954 40.2601 55.9412 40.2404 55.8858C40.2207 55.8304 40.1998 55.7761 40.1789 55.7219C40.1371 55.6111 40.0916 55.5014 40.046 55.3917C39.8677 54.9655 39.6671 54.5453 39.4826 54.1289C39.3834 53.9106 39.2955 53.6873 39.2193 53.4599L39.1959 53.4932C39.1585 53.5499 39.1252 53.6092 39.0963 53.6706C39.0963 54.6402 38.1269 55.8267 38.1269 55.8267L37.1513 54.4037L36.2975 55.7182C36.1745 55.7835 36.0515 56.0078 35.9555 56.3269C35.9284 56.4131 35.9026 56.5067 35.878 56.6065C35.8608 56.6731 35.8448 56.7433 35.83 56.8135C35.8214 56.8492 35.814 56.885 35.8067 56.9219L35.7845 57.034V57.0513C35.7697 57.1277 35.755 57.2065 35.7414 57.2866C35.7279 57.3667 35.7119 57.4591 35.6984 57.5466C35.6885 57.6032 35.6799 57.6599 35.6726 57.7166C35.6553 57.8262 35.6406 57.9371 35.6258 58.0468C35.6172 58.1108 35.6086 58.17 35.6012 58.2377L35.5717 58.4841C35.6344 58.6862 35.7045 58.8858 35.7771 59.0817C35.8235 59.189 35.8506 59.3037 35.8571 59.4205C37.3667 59.8525 38.967 59.8525 40.4766 59.4205C40.4761 59.4164 40.4761 59.4122 40.4766 59.4082C40.4539 59.2976 40.444 59.1847 40.4471 59.0718C40.4719 58.7557 40.513 58.4412 40.5701 58.1293C40.5883 57.9756 40.5961 57.8208 40.5935 57.6661V57.6106C40.5898 57.5638 40.5886 57.5195 40.5873 57.4751ZM40.5873 57.4751C40.5873 57.4258 40.5873 57.3765 40.5787 57.3273C40.5701 57.278 40.5713 57.2349 40.5652 57.188C40.559 57.1412 40.5541 57.0944 40.548 57.0476C40.5418 57.0008 40.5332 56.954 40.5246 56.9071C40.516 56.8603 40.5074 56.8135 40.4975 56.7667C40.4975 56.7507 40.4914 56.7359 40.4877 56.7199C40.4742 56.6583 40.4594 56.5967 40.4434 56.5338C40.4274 56.471 40.4176 56.434 40.4028 56.3848C40.4028 56.3626 40.3905 56.3404 40.3831 56.3195C40.3757 56.2985 40.3622 56.248 40.3511 56.2123L40.329 56.1433C40.3191 56.1125 40.3093 56.0817 40.2982 56.0509C40.2798 55.9954 40.2601 55.9412 40.2404 55.8858C40.2207 55.8304 40.1998 55.7761 40.1789 55.7219C40.1371 55.6111 40.0916 55.5014 40.046 55.3917C39.8677 54.9655 39.6671 54.5453 39.4826 54.1289C39.3834 53.9106 39.2955 53.6873 39.2193 53.4599L39.1959 53.4932C39.1585 53.5499 39.1252 53.6092 39.0963 53.6706C39.0963 54.6402 38.1269 55.8267 38.1269 55.8267L37.1513 54.4037L36.2975 55.7182C36.1745 55.7835 36.0515 56.0078 35.9555 56.3269C35.9284 56.4131 35.9026 56.5067 35.878 56.6065C35.8608 56.6731 35.8448 56.7433 35.83 56.8135C35.8214 56.8492 35.814 56.885 35.8067 56.9219L35.7845 57.034V57.0513C35.7697 57.1277 35.755 57.2065 35.7414 57.2866C35.7279 57.3667 35.7119 57.4591 35.6984 57.5466C35.6885 57.6032 35.6799 57.6599 35.6726 57.7166C35.6553 57.8262 35.6406 57.9371 35.6258 58.0468C35.6172 58.1108 35.6086 58.17 35.6012 58.2377L35.5717 58.4841C35.6344 58.6862 35.7045 58.8858 35.7771 59.0817C35.8235 59.189 35.8506 59.3037 35.8571 59.4205C37.3667 59.8525 38.967 59.8525 40.4766 59.4205C40.4761 59.4164 40.4761 59.4122 40.4766 59.4082C40.4539 59.2976 40.444 59.1847 40.4471 59.0718C40.4719 58.7557 40.513 58.4412 40.5701 58.1293C40.5883 57.9756 40.5961 57.8208 40.5935 57.6661V57.6106C40.5898 57.5638 40.5886 57.5195 40.5873 57.4751ZM40.5873 57.4751C40.5873 57.4258 40.5873 57.3765 40.5787 57.3273C40.5701 57.278 40.5713 57.2349 40.5652 57.188C40.559 57.1412 40.5541 57.0944 40.548 57.0476C40.5418 57.0008 40.5332 56.954 40.5246 56.9071C40.516 56.8603 40.5074 56.8135 40.4975 56.7667C40.4975 56.7507 40.4914 56.7359 40.4877 56.7199C40.4742 56.6583 40.4594 56.5967 40.4434 56.5338C40.4274 56.471 40.4176 56.434 40.4028 56.3848C40.4028 56.3626 40.3905 56.3404 40.3831 56.3195C40.3757 56.2985 40.3622 56.248 40.3511 56.2123L40.329 56.1433C40.3191 56.1125 40.3093 56.0817 40.2982 56.0509C40.2798 55.9954 40.2601 55.9412 40.2404 55.8858C40.2207 55.8304 40.1998 55.7761 40.1789 55.7219C40.1371 55.6111 40.0916 55.5014 40.046 55.3917C39.8677 54.9655 39.6671 54.5453 39.4826 54.1289C39.3834 53.9106 39.2955 53.6873 39.2193 53.4599L39.1959 53.4932C39.1585 53.5499 39.1252 53.6092 39.0963 53.6706C39.0963 54.6402 38.1269 55.8267 38.1269 55.8267L37.1513 54.4037L36.2975 55.7182C36.1745 55.7835 36.0515 56.0078 35.9555 56.3269C35.9284 56.4131 35.9026 56.5067 35.878 56.6065C35.8608 56.6731 35.8448 56.7433 35.83 56.8135C35.8214 56.8492 35.814 56.885 35.8067 56.9219L35.7845 57.034V57.0513C35.7697 57.1277 35.755 57.2065 35.7414 57.2866C35.7279 57.3667 35.7119 57.4591 35.6984 57.5466C35.6885 57.6032 35.6799 57.6599 35.6726 57.7166C35.6553 57.8262 35.6406 57.9371 35.6258 58.0468C35.6172 58.1108 35.6086 58.17 35.6012 58.2377L35.5717 58.4841C35.6344 58.6862 35.7045 58.8858 35.7771 59.0817C35.8235 59.189 35.8506 59.3037 35.8571 59.4205C37.3667 59.8525 38.967 59.8525 40.4766 59.4205C40.4761 59.4164 40.4761 59.4122 40.4766 59.4082C40.4539 59.2976 40.444 59.1847 40.4471 59.0718C40.4719 58.7557 40.513 58.4412 40.5701 58.1293C40.5883 57.9756 40.5961 57.8208 40.5935 57.6661V57.6106C40.5898 57.5638 40.5886 57.5195 40.5873 57.4751ZM40.5873 57.4751C40.5873 57.4258 40.5873 57.3765 40.5787 57.3273C40.5701 57.278 40.5713 57.2349 40.5652 57.188C40.559 57.1412 40.5541 57.0944 40.548 57.0476C40.5418 57.0008 40.5332 56.954 40.5246 56.9071C40.516 56.8603 40.5074 56.8135 40.4975 56.7667C40.4975 56.7507 40.4914 56.7359 40.4877 56.7199C40.4742 56.6583 40.4594 56.5967 40.4434 56.5338C40.4274 56.471 40.4176 56.434 40.4028 56.3848C40.4028 56.3626 40.3905 56.3404 40.3831 56.3195C40.3757 56.2985 40.3622 56.248 40.3511 56.2123L40.329 56.1433C40.3191 56.1125 40.3093 56.0817 40.2982 56.0509C40.2798 55.9954 40.2601 55.9412 40.2404 55.8858C40.2207 55.8304 40.1998 55.7761 40.1789 55.7219C40.1371 55.6111 40.0916 55.5014 40.046 55.3917C39.8677 54.9655 39.6671 54.5453 39.4826 54.1289C39.3834 53.9106 39.2955 53.6873 39.2193 53.4599L39.1959 53.4932C39.1585 53.5499 39.1252 53.6092 39.0963 53.6706C39.0963 54.6402 38.1269 55.8267 38.1269 55.8267L37.1513 54.4037L36.2975 55.7182C36.1745 55.7835 36.0515 56.0078 35.9555 56.3269C35.9284 56.4131 35.9026 56.5067 35.878 56.6065C35.8608 56.6731 35.8448 56.7433 35.83 56.8135C35.8214 56.8492 35.814 56.885 35.8067 56.9219L35.7845 57.034V57.0513C35.7697 57.1277 35.755 57.2065 35.7414 57.2866C35.7279 57.3667 35.7119 57.4591 35.6984 57.5466C35.6885 57.6032 35.6799 57.6599 35.6726 57.7166C35.6553 57.8262 35.6406 57.9371 35.6258 58.0468C35.6172 58.1108 35.6086 58.17 35.6012 58.2377L35.5717 58.4841C35.6344 58.6862 35.7045 58.8858 35.7771 59.0817C35.8235 59.189 35.8506 59.3037 35.8571 59.4205C37.3667 59.8525 38.967 59.8525 40.4766 59.4205C40.4761 59.4164 40.4761 59.4122 40.4766 59.4082C40.4539 59.2976 40.444 59.1847 40.4471 59.0718C40.4719 58.7557 40.513 58.4412 40.5701 58.1293C40.5883 57.9756 40.5961 57.8208 40.5935 57.6661V57.6106C40.5898 57.5638 40.5886 57.5195 40.5873 57.4751ZM40.5873 57.4751C40.5873 57.4258 40.5873 57.3765 40.5787 57.3273C40.5701 57.278 40.5713 57.2349 40.5652 57.188C40.559 57.1412 40.5541 57.0944 40.548 57.0476C40.5418 57.0008 40.5332 56.954 40.5246 56.9071C40.516 56.8603 40.5074 56.8135 40.4975 56.7667C40.4975 56.7507 40.4914 56.7359 40.4877 56.7199C40.4742 56.6583 40.4594 56.5967 40.4434 56.5338C40.4274 56.471 40.4176 56.434 40.4028 56.3848C40.4028 56.3626 40.3905 56.3404 40.3831 56.3195C40.3757 56.2985 40.3622 56.248 40.3511 56.2123L40.329 56.1433C40.3191 56.1125 40.3093 56.0817 40.2982 56.0509C40.2798 55.9954 40.2601 55.9412 40.2404 55.8858C40.2207 55.8304 40.1998 55.7761 40.1789 55.7219C40.1371 55.6111 40.0916 55.5014 40.046 55.3917C39.8677 54.9655 39.6671 54.5453 39.4826 54.1289C39.3834 53.9106 39.2955 53.6873 39.2193 53.4599L39.1959 53.4932C39.1585 53.5499 39.1252 53.6092 39.0963 53.6706C39.0963 54.6402 38.1269 55.8267 38.1269 55.8267L37.1513 54.4037L36.2975 55.7182C36.1745 55.7835 36.0515 56.0078 35.9555 56.3269C35.9284 56.4131 35.9026 56.5067 35.878 56.6065C35.8608 56.6731 35.8448 56.7433 35.83 56.8135C35.8214 56.8492 35.814 56.885 35.8067 56.9219L35.7845 57.034V57.0513C35.7697 57.1277 35.755 57.2065 35.7414 57.2866C35.7279 57.3667 35.7119 57.4591 35.6984 57.5466C35.6885 57.6032 35.6799 57.6599 35.6726 57.7166C35.6553 57.8262 35.6406 57.9371 35.6258 58.0468C35.6172 58.1108 35.6086 58.17 35.6012 58.2377L35.5717 58.4841C35.6344 58.6862 35.7045 58.8858 35.7771 59.0817C35.8235 59.189 35.8506 59.3037 35.8571 59.4205C37.3667 59.8525 38.967 59.8525 40.4766 59.4205C40.4761 59.4164 40.4761 59.4122 40.4766 59.4082C40.4539 59.2976 40.444 59.1847 40.4471 59.0718C40.4719 58.7557 40.513 58.4412 40.5701 58.1293C40.5883 57.9756 40.5961 57.8208 40.5935 57.6661V57.6106C40.5898 57.5638 40.5886 57.5195 40.5873 57.4751ZM40.5873 57.4751C40.5873 57.4258 40.5873 57.3765 40.5787 57.3273C40.5701 57.278 40.5713 57.2349 40.5652 57.188C40.559 57.1412 40.5541 57.0944 40.548 57.0476C40.5418 57.0008 40.5332 56.954 40.5246 56.9071C40.516 56.8603 40.5074 56.8135 40.4975 56.7667C40.4975 56.7507 40.4914 56.7359 40.4877 56.7199C40.4742 56.6583 40.4594 56.5967 40.4434 56.5338C40.4274 56.471 40.4176 56.434 40.4028 56.3848C40.4028 56.3626 40.3905 56.3404 40.3831 56.3195C40.3757 56.2985 40.3622 56.248 40.3511 56.2123L40.329 56.1433C40.3191 56.1125 40.3093 56.0817 40.2982 56.0509C40.2798 55.9954 40.2601 55.9412 40.2404 55.8858C40.2207 55.8304 40.1998 55.7761 40.1789 55.7219C40.1371 55.6111 40.0916 55.5014 40.046 55.3917C39.8677 54.9655 39.6671 54.5453 39.4826 54.1289C39.3834 53.9106 39.2955 53.6873 39.2193 53.4599L39.1959 53.4932C39.1585 53.5499 39.1252 53.6092 39.0963 53.6706C39.0963 54.6402 38.1269 55.8267 38.1269 55.8267L37.1513 54.4037L36.2975 55.7182C36.1745 55.7835 36.0515 56.0078 35.9555 56.3269C35.9284 56.4131 35.9026 56.5067 35.878 56.6065C35.8608 56.6731 35.8448 56.7433 35.83 56.8135C35.8214 56.8492 35.814 56.885 35.8067 56.9219L35.7845 57.034V57.0513C35.7697 57.1277 35.755 57.2065 35.7414 57.2866C35.7279 57.3667 35.7119 57.4591 35.6984 57.5466C35.6885 57.6032 35.6799 57.6599 35.6726 57.7166C35.6553 57.8262 35.6406 57.9371 35.6258 58.0468C35.6172 58.1108 35.6086 58.17 35.6012 58.2377L35.5717 58.4841C35.6344 58.6862 35.7045 58.8858 35.7771 59.0817C35.8235 59.189 35.8506 59.3037 35.8571 59.4205C37.3667 59.8525 38.967 59.8525 40.4766 59.4205C40.4761 59.4164 40.4761 59.4122 40.4766 59.4082C40.4539 59.2976 40.444 59.1847 40.4471 59.0718C40.4719 58.7557 40.513 58.4412 40.5701 58.1293C40.5883 57.9756 40.5961 57.8208 40.5935 57.6661V57.6106C40.5898 57.5638 40.5886 57.5195 40.5873 57.4751ZM40.5873 57.4751C40.5873 57.4258 40.5873 57.3765 40.5787 57.3273C40.5701 57.278 40.5713 57.2349 40.5652 57.188C40.559 57.1412 40.5541 57.0944 40.548 57.0476C40.5418 57.0008 40.5332 56.954 40.5246 56.9071C40.516 56.8603 40.5074 56.8135 40.4975 56.7667C40.4975 56.7507 40.4914 56.7359 40.4877 56.7199C40.4742 56.6583 40.4594 56.5967 40.4434 56.5338C40.4274 56.471 40.4176 56.434 40.4028 56.3848C40.4028 56.3626 40.3905 56.3404 40.3831 56.3195C40.3757 56.2985 40.3622 56.248 40.3511 56.2123L40.329 56.1433C40.3191 56.1125 40.3093 56.0817 40.2982 56.0509C40.2798 55.9954 40.2601 55.9412 40.2404 55.8858C40.2207 55.8304 40.1998 55.7761 40.1789 55.7219C40.1371 55.6111 40.0916 55.5014 40.046 55.3917C39.8677 54.9655 39.6671 54.5453 39.4826 54.1289C39.3834 53.9106 39.2955 53.6873 39.2193 53.4599L39.1959 53.4932C39.1585 53.5499 39.1252 53.6092 39.0963 53.6706C39.0963 54.6402 38.1269 55.8267 38.1269 55.8267L37.1513 54.4037L36.2975 55.7182C36.1745 55.7835 36.0515 56.0078 35.9555 56.3269C35.9284 56.4131 35.9026 56.5067 35.878 56.6065C35.8608 56.6731 35.8448 56.7433 35.83 56.8135C35.8214 56.8492 35.814 56.885 35.8067 56.9219L35.7845 57.034V57.0513C35.7697 57.1277 35.755 57.2065 35.7414 57.2866C35.7279 57.3667 35.7119 57.4591 35.6984 57.5466C35.6885 57.6032 35.6799 57.6599 35.6726 57.7166C35.6553 57.8262 35.6406 57.9371 35.6258 58.0468C35.6172 58.1108 35.6086 58.17 35.6012 58.2377L35.5717 58.4841C35.6344 58.6862 35.7045 58.8858 35.7771 59.0817C35.8235 59.189 35.8506 59.3037 35.8571 59.4205C37.3667 59.8525 38.967 59.8525 40.4766 59.4205C40.4761 59.4164 40.4761 59.4122 40.4766 59.4082C40.4539 59.2976 40.444 59.1847 40.4471 59.0718C40.4719 58.7557 40.513 58.4412 40.5701 58.1293C40.5883 57.9756 40.5961 57.8208 40.5935 57.6661V57.6106C40.5898 57.5638 40.5886 57.5195 40.5873 57.4751Z" fill="white"/>
<path opacity="0.1" d="M37.1688 54.3211L37.0863 54.31C36.9619 54.2932 36.8386 54.2685 36.7173 54.2361L36.6717 54.2238C36.3716 54.1388 36.0431 53.986 35.9693 53.7174C35.9473 53.631 35.9499 53.5401 35.9767 53.455C36.018 53.3084 36.074 53.1664 36.144 53.0312V53.0238C36.1532 53.0048 36.1635 52.9863 36.1747 52.9684C36.2762 52.7697 36.4297 52.6023 36.6188 52.4842L36.4712 52.5076L35.2213 52.7109L33.2837 53.0238C33.2837 53.0238 32.9392 52.9548 32.4705 54.2484C32.4705 54.2645 32.4594 54.2792 32.4545 54.2965C32.3413 54.6131 32.222 55.0086 32.099 55.5026C32.0141 55.8451 31.9366 56.1815 31.8652 56.508C31.8443 56.6065 31.8234 56.7039 31.8037 56.8C32.0255 57.0618 32.2643 57.3087 32.5185 57.5392L32.5591 57.5774C33.0569 58.0289 33.6071 58.4189 34.1977 58.7392L34.2211 58.7515C34.5927 58.9522 34.9793 59.1236 35.3775 59.264L35.4821 59.301C35.5042 59.073 35.5289 58.8205 35.5584 58.5618C35.5584 58.5359 35.5584 58.51 35.5682 58.4841L35.5977 58.2377C35.6051 58.1749 35.6137 58.1145 35.6224 58.0468C35.6371 57.9371 35.6519 57.8262 35.6691 57.7166C35.6765 57.6599 35.6851 57.6032 35.6949 57.5466C35.7085 57.4591 35.7232 57.3716 35.738 57.2866C35.7528 57.2016 35.7663 57.1277 35.781 57.0513V57.034L35.8032 56.9219C35.8106 56.885 35.818 56.8492 35.8266 56.8135C35.8413 56.7433 35.8573 56.6731 35.8745 56.6065C35.8992 56.5067 35.925 56.4131 35.9521 56.3269C36.0505 56.0078 36.1649 55.7835 36.2941 55.7182L37.1478 54.4037L37.1835 54.3482L37.1995 54.3236L37.1688 54.3211Z" fill="black"/>
<path opacity="0.1" d="M35.615 45.5947C35.4919 45.7647 35.5018 45.9988 35.4464 46.2107C35.3148 46.6924 34.7932 46.9943 34.6738 47.4797C34.6037 47.7631 34.6849 48.0637 34.6369 48.352C34.5496 48.883 34.0649 49.2427 33.7942 49.7072C33.657 49.9465 33.5757 50.2138 33.5563 50.489C33.5369 50.7642 33.58 51.0403 33.6823 51.2965C33.7456 51.4257 33.7979 51.5601 33.8385 51.6981C33.8696 51.9039 33.8566 52.1138 33.8004 52.3142C33.7081 52.7528 33.6134 53.2357 33.825 53.6312C34.0034 53.9651 34.3737 54.1609 34.7464 54.2226C35.1228 54.2652 35.5036 54.2477 35.8745 54.1708C36.2818 54.108 36.6988 54.0353 37.0531 53.8258L35.7208 50.6053C35.5867 50.2801 35.4489 49.9437 35.4501 49.5914C35.461 49.3315 35.5172 49.0754 35.6162 48.8349C35.8741 48.1381 36.2486 47.4902 36.7234 46.9191C36.9166 47.1434 36.9018 47.4846 37.063 47.7335C37.2054 47.9175 37.395 48.0593 37.6116 48.1438C38.2429 48.4522 38.8915 48.7237 39.5542 48.9569C39.5958 48.9621 39.6354 48.9775 39.6696 49.0018C39.7038 49.026 39.7315 49.0584 39.7502 49.0959C39.769 49.1334 39.7782 49.175 39.777 49.217C39.7759 49.2589 39.7644 49.2999 39.7436 49.3364L39.2417 51.4111C39.131 51.8682 39.0338 52.3967 39.318 52.7663C39.6022 53.1359 40.2431 53.3109 40.2468 53.7876C40.2416 53.8631 40.2416 53.9389 40.2468 54.0143C40.28 54.2373 40.5445 54.3445 40.7696 54.3556C41.1392 54.3629 41.4994 54.2384 41.7858 54.0044C42.0722 53.7704 42.2662 53.4421 42.3333 53.078C42.4563 52.2624 41.9175 51.5109 41.6923 50.7162C41.3134 49.3795 41.8153 47.8111 41.0711 46.637C40.4682 45.6846 39.3696 45.4259 38.3264 45.3076C37.5944 45.2214 36.1304 44.9134 35.615 45.5947Z" fill="black"/>
<path opacity="0.5" d="M35.615 45.4715C35.4919 45.6415 35.5018 45.8756 35.4464 46.0875C35.3148 46.5692 34.7932 46.8711 34.6738 47.3565C34.6037 47.6399 34.6849 47.9405 34.6369 48.2288C34.5496 48.7598 34.0649 49.1195 33.7942 49.584C33.657 49.8233 33.5757 50.0906 33.5563 50.3658C33.5369 50.641 33.58 50.9171 33.6823 51.1733C33.7456 51.3025 33.7979 51.4369 33.8385 51.5749C33.8696 51.7807 33.8566 51.9907 33.8004 52.191C33.7081 52.6296 33.6134 53.1125 33.825 53.508C34.0034 53.8419 34.3737 54.0378 34.7464 54.0994C35.1228 54.142 35.5036 54.1245 35.8745 54.0476C36.2818 53.9848 36.6988 53.9121 37.0531 53.7026L35.7208 50.4821C35.5867 50.1569 35.4489 49.8205 35.4501 49.4682C35.461 49.2083 35.5172 48.9522 35.6162 48.7117C35.8741 48.0149 36.2486 47.3671 36.7234 46.7959C36.9166 47.0202 36.9018 47.3614 37.063 47.6103C37.2054 47.7943 37.395 47.9361 37.6116 48.0206C38.2429 48.329 38.8915 48.6005 39.5542 48.8337C39.5958 48.8389 39.6354 48.8543 39.6696 48.8786C39.7038 48.9028 39.7315 48.9352 39.7502 48.9727C39.769 49.0102 39.7782 49.0518 39.777 49.0938C39.7759 49.1357 39.7644 49.1767 39.7436 49.2132L39.2417 51.2879C39.131 51.745 39.0338 52.2735 39.318 52.6431C39.6022 53.0127 40.2431 53.1877 40.2468 53.6645C40.2416 53.7399 40.2416 53.8157 40.2468 53.8911C40.28 54.1141 40.5445 54.2213 40.7696 54.2324C41.1392 54.2397 41.4994 54.1153 41.7858 53.8812C42.0722 53.6472 42.2662 53.3189 42.3333 52.9548C42.4563 52.1392 41.9175 51.3877 41.6923 50.593C41.3134 49.2563 41.8153 47.6879 41.0711 46.5138C40.4682 45.5614 39.3696 45.3027 38.3264 45.1844C37.5944 45.0982 36.1304 44.7902 35.615 45.4715Z" fill="#493545"/>
</g>
<g opacity="0.5">
<path opacity="0.5" d="M34.8595 78.4712C34.8706 78.884 34.5901 79.2363 34.3674 79.5801C34.1447 79.9238 33.9799 80.3932 34.2087 80.7369C34.2838 80.8503 34.3969 80.9378 34.4646 81.056C34.702 81.4688 34.3071 81.9431 34.1632 82.3965C33.9971 82.9201 34.1903 83.5053 34.5396 83.9303C34.889 84.3554 35.3713 84.6425 35.8585 84.895C36.8828 85.4417 37.9822 85.8336 39.121 86.0581C39.7165 86.1677 40.3513 86.217 40.9098 85.978C41.2973 85.7999 41.6139 85.4967 41.8086 85.1168C42.0034 84.737 42.0651 84.3027 41.9838 83.8835C41.8423 83.2355 41.3687 82.7143 41.1226 82.102C41.0652 81.9818 41.0373 81.8496 41.0414 81.7164C41.0623 81.4836 41.2407 81.3012 41.3797 81.1127C41.7284 80.5995 41.8707 79.9733 41.7783 79.3595C41.6812 78.7457 41.4465 78.1619 41.0919 77.652C40.9651 77.4405 40.7979 77.2563 40.5998 77.1099C40.3316 76.9288 39.9994 76.877 39.6796 76.8314C38.3435 76.6442 36.9595 76.4396 35.6124 76.3707C35.1867 76.3485 34.8743 76.4323 34.6639 76.8314C34.3428 77.4265 34.8435 77.8737 34.8595 78.4712Z" fill="#444176"/>
<path opacity="0.5" d="M41.7393 82.6614L39.2038 86.2724L36.7286 86.0568C36.7286 86.0568 36.6474 86.9192 35.6521 83.7936C35.0961 82.0453 36.2267 82.6527 36.4493 82.1686C36.672 81.6844 37.0644 81.2569 37.0977 80.8996C37.1764 80.1332 36.9439 79.6971 36.9439 79.6971L39.6344 79.3743C39.513 79.7374 39.4976 80.1276 39.5901 80.4992C39.9272 81.9012 41.7393 82.6614 41.7393 82.6614Z" fill="#C77485"/>
<path opacity="0.5" d="M37.9252 79.5825C39.6917 79.5825 41.1238 78.4518 41.1238 77.0569C41.1238 75.662 39.6917 74.5312 37.9252 74.5312C36.1586 74.5312 34.7266 75.662 34.7266 77.0569C34.7266 78.4518 36.1586 79.5825 37.9252 79.5825Z" fill="#444176"/>
<path opacity="0.1" d="M39.5886 80.4979C39.2377 80.764 38.8269 80.9398 38.3924 81.0099C37.9578 81.0799 37.5127 81.042 37.0962 80.8996C37.1749 80.1333 36.9424 79.6971 36.9424 79.6971L39.6329 79.3743C39.5117 79.737 39.4964 80.1268 39.5886 80.4979Z" fill="black"/>
<path opacity="0.5" d="M37.9659 80.9365C39.4518 80.9365 40.6564 79.7302 40.6564 78.2421C40.6564 76.754 39.4518 75.5477 37.9659 75.5477C36.48 75.5477 35.2754 76.754 35.2754 78.2421C35.2754 79.7302 36.48 80.9365 37.9659 80.9365Z" fill="#C77485"/>
<path opacity="0.1" d="M41.4748 83.0704L41.412 82.824L41.3579 82.6072L41.2779 82.2868L41.2632 82.2277L41.2509 82.1784C41.2509 82.1784 41.3149 81.985 40.8929 82.0478L40.8142 82.0614C40.7477 82.0749 40.6702 82.0934 40.5816 82.118L40.5017 82.1427L40.3959 82.1759C40.0609 82.2852 39.7554 82.4698 39.5027 82.7156C39.3893 82.8242 39.289 82.9458 39.2038 83.0778C39.1952 83.0901 39.189 83.1012 39.1816 83.1111C39.1525 83.1568 39.1266 83.2046 39.1041 83.254C39.1041 84.2248 38.1347 85.41 38.1347 85.41L37.1887 84.0412L37.1702 84.0141L36.9451 83.6864L36.8651 83.5805L36.838 83.5435L36.3459 82.8819L36.2229 82.7168L36.1823 82.6614L36.122 82.5813L35.9806 82.3928L35.427 82.7168L34.6888 83.148L34.2582 85.9509V86.0285L34.2718 86.2601L34.3616 87.7829V87.8038L34.2041 88.4346L34.2275 88.4469C34.599 88.6476 34.9857 88.819 35.3839 88.9594L35.4885 88.9964C35.6115 89.0371 35.7271 89.074 35.8477 89.1098C35.8522 89.128 35.8555 89.1465 35.8575 89.1652C35.8575 89.148 35.8575 89.1295 35.8575 89.1122C37.3672 89.5442 38.9674 89.5442 40.4771 89.1122L40.5054 89.1036C40.5755 89.0839 40.6468 89.0629 40.7157 89.0395L40.8277 89.0038C41.1313 88.9021 41.4287 88.7828 41.7184 88.6465L41.8217 86.4412L41.8955 84.8507V84.7595L41.4748 83.0704Z" fill="black"/>
<path opacity="0.5" d="M40.5883 87.1669C40.5883 87.1176 40.5883 87.0683 40.5797 87.019C40.5711 86.9697 40.5723 86.9266 40.5662 86.8798C40.56 86.833 40.5551 86.7862 40.5489 86.7394C40.5428 86.6925 40.5342 86.6457 40.5256 86.5989C40.517 86.5521 40.5083 86.5053 40.4985 86.4584C40.4985 86.4424 40.4924 86.4276 40.4887 86.4116C40.4751 86.35 40.4604 86.2884 40.4444 86.2256C40.4284 86.1628 40.4185 86.1258 40.4038 86.0765C40.4038 86.0543 40.3915 86.0322 40.3841 86.0112C40.3767 85.9903 40.3632 85.9398 40.3521 85.904L40.33 85.835C40.3201 85.8042 40.3103 85.7734 40.2992 85.7426C40.2808 85.6872 40.2611 85.633 40.2414 85.5775C40.2217 85.5221 40.2008 85.4679 40.1799 85.4137C40.138 85.3028 40.0925 85.1932 40.047 85.0835C39.8686 84.6572 39.6681 84.2371 39.4836 83.8207C39.3844 83.6024 39.2965 83.3791 39.2203 83.1517L39.1969 83.185C39.1595 83.2416 39.1262 83.3009 39.0973 83.3624C39.0973 84.332 38.1278 85.5184 38.1278 85.5184L37.1523 84.0954L36.2985 85.41C36.1755 85.4753 36.0524 85.6995 35.9565 86.0186C35.9294 86.1049 35.9036 86.1985 35.879 86.2983C35.8618 86.3648 35.8458 86.435 35.831 86.5053C35.8224 86.541 35.815 86.5767 35.8076 86.6137L35.7855 86.7258V86.743C35.7707 86.8194 35.756 86.8983 35.7424 86.9784C35.7289 87.0584 35.7129 87.1508 35.6994 87.2383C35.6895 87.295 35.6809 87.3517 35.6735 87.4083C35.6563 87.518 35.6415 87.6289 35.6268 87.7385C35.6182 87.8026 35.6096 87.8617 35.6022 87.9295L35.5727 88.1759C35.6354 88.3779 35.7055 88.5775 35.7781 88.7734C35.8245 88.8808 35.8515 88.9954 35.8581 89.1122C37.3677 89.5442 38.968 89.5442 40.4776 89.1122C40.477 89.1081 40.477 89.104 40.4776 89.0999C40.4549 88.9893 40.445 88.8764 40.4481 88.7636C40.4729 88.4475 40.514 88.1329 40.5711 87.8211C40.5893 87.6673 40.5971 87.5126 40.5945 87.3578V87.3024C40.5908 87.2556 40.5895 87.2112 40.5883 87.1669ZM40.5883 87.1669C40.5883 87.1176 40.5883 87.0683 40.5797 87.019C40.5711 86.9697 40.5723 86.9266 40.5662 86.8798C40.56 86.833 40.5551 86.7862 40.5489 86.7394C40.5428 86.6925 40.5342 86.6457 40.5256 86.5989C40.517 86.5521 40.5083 86.5053 40.4985 86.4584C40.4985 86.4424 40.4924 86.4276 40.4887 86.4116C40.4751 86.35 40.4604 86.2884 40.4444 86.2256C40.4284 86.1628 40.4185 86.1258 40.4038 86.0765C40.4038 86.0543 40.3915 86.0322 40.3841 86.0112C40.3767 85.9903 40.3632 85.9398 40.3521 85.904L40.33 85.835C40.3201 85.8042 40.3103 85.7734 40.2992 85.7426C40.2808 85.6872 40.2611 85.633 40.2414 85.5775C40.2217 85.5221 40.2008 85.4679 40.1799 85.4137C40.138 85.3028 40.0925 85.1932 40.047 85.0835C39.8686 84.6572 39.6681 84.2371 39.4836 83.8207C39.3844 83.6024 39.2965 83.3791 39.2203 83.1517L39.1969 83.185C39.1595 83.2416 39.1262 83.3009 39.0973 83.3624C39.0973 84.332 38.1278 85.5184 38.1278 85.5184L37.1523 84.0954L36.2985 85.41C36.1755 85.4753 36.0524 85.6995 35.9565 86.0186C35.9294 86.1049 35.9036 86.1985 35.879 86.2983C35.8618 86.3648 35.8458 86.435 35.831 86.5053C35.8224 86.541 35.815 86.5767 35.8076 86.6137L35.7855 86.7258V86.743C35.7707 86.8194 35.756 86.8983 35.7424 86.9784C35.7289 87.0584 35.7129 87.1508 35.6994 87.2383C35.6895 87.295 35.6809 87.3517 35.6735 87.4083C35.6563 87.518 35.6415 87.6289 35.6268 87.7385C35.6182 87.8026 35.6096 87.8617 35.6022 87.9295L35.5727 88.1759C35.6354 88.3779 35.7055 88.5775 35.7781 88.7734C35.8245 88.8808 35.8515 88.9954 35.8581 89.1122C37.3677 89.5442 38.968 89.5442 40.4776 89.1122C40.477 89.1081 40.477 89.104 40.4776 89.0999C40.4549 88.9893 40.445 88.8764 40.4481 88.7636C40.4729 88.4475 40.514 88.1329 40.5711 87.8211C40.5893 87.6673 40.5971 87.5126 40.5945 87.3578V87.3024C40.5908 87.2556 40.5895 87.2112 40.5883 87.1669ZM40.5883 87.1669C40.5883 87.1176 40.5883 87.0683 40.5797 87.019C40.5711 86.9697 40.5723 86.9266 40.5662 86.8798C40.56 86.833 40.5551 86.7862 40.5489 86.7394C40.5428 86.6925 40.5342 86.6457 40.5256 86.5989C40.517 86.5521 40.5083 86.5053 40.4985 86.4584C40.4985 86.4424 40.4924 86.4276 40.4887 86.4116C40.4751 86.35 40.4604 86.2884 40.4444 86.2256C40.4284 86.1628 40.4185 86.1258 40.4038 86.0765C40.4038 86.0543 40.3915 86.0322 40.3841 86.0112C40.3767 85.9903 40.3632 85.9398 40.3521 85.904L40.33 85.835C40.3201 85.8042 40.3103 85.7734 40.2992 85.7426C40.2808 85.6872 40.2611 85.633 40.2414 85.5775C40.2217 85.5221 40.2008 85.4679 40.1799 85.4137C40.138 85.3028 40.0925 85.1932 40.047 85.0835C39.8686 84.6572 39.6681 84.2371 39.4836 83.8207C39.3844 83.6024 39.2965 83.3791 39.2203 83.1517L39.1969 83.185C39.1595 83.2416 39.1262 83.3009 39.0973 83.3624C39.0973 84.332 38.1278 85.5184 38.1278 85.5184L37.1523 84.0954L36.2985 85.41C36.1755 85.4753 36.0524 85.6995 35.9565 86.0186C35.9294 86.1049 35.9036 86.1985 35.879 86.2983C35.8618 86.3648 35.8458 86.435 35.831 86.5053C35.8224 86.541 35.815 86.5767 35.8076 86.6137L35.7855 86.7258V86.743C35.7707 86.8194 35.756 86.8983 35.7424 86.9784C35.7289 87.0584 35.7129 87.1508 35.6994 87.2383C35.6895 87.295 35.6809 87.3517 35.6735 87.4083C35.6563 87.518 35.6415 87.6289 35.6268 87.7385C35.6182 87.8026 35.6096 87.8617 35.6022 87.9295L35.5727 88.1759C35.6354 88.3779 35.7055 88.5775 35.7781 88.7734C35.8245 88.8808 35.8515 88.9954 35.8581 89.1122C37.3677 89.5442 38.968 89.5442 40.4776 89.1122C40.477 89.1081 40.477 89.104 40.4776 89.0999C40.4549 88.9893 40.445 88.8764 40.4481 88.7636C40.4729 88.4475 40.514 88.1329 40.5711 87.8211C40.5893 87.6673 40.5971 87.5126 40.5945 87.3578V87.3024C40.5908 87.2556 40.5895 87.2112 40.5883 87.1669ZM41.8924 84.8544L41.4532 83.0987L41.3781 82.7981L41.3572 82.7156L41.2502 82.2868C41.2504 82.2831 41.2504 82.2794 41.2502 82.2757C41.2527 82.2568 41.2497 82.2375 41.2416 82.2203C41.2256 82.1883 41.185 82.155 41.0902 82.1464C41.0542 82.1438 41.018 82.1438 40.982 82.1464C40.8751 82.157 40.7693 82.1768 40.6658 82.2055C40.6154 82.2191 40.5612 82.2338 40.5034 82.2523L40.3976 82.2856H40.3878C40.1044 82.3787 39.8414 82.5251 39.6127 82.7168C39.4617 82.8429 39.3292 82.9897 39.2191 83.1529L39.1957 83.1862C39.1583 83.2429 39.125 83.3022 39.096 83.3636C39.096 84.3332 38.1266 85.5196 38.1266 85.5196L37.151 84.0967L37.0957 84.0166L37.0858 84.003L36.9444 83.7948L36.8373 83.6519L36.809 83.6149L36.3046 82.941L36.1447 82.723V82.7156L36.0893 82.6404L35.9836 82.5L35.6145 82.7156L34.6918 83.254L34.2661 86.0272V86.0568L34.2784 86.2589L34.3695 87.8026V87.8901L34.2305 88.4457C34.602 88.6464 34.9887 88.8178 35.3869 88.9582L35.4915 88.9952C35.6145 89.0358 35.7301 89.0728 35.8507 89.1085C35.8552 89.1268 35.8584 89.1453 35.8605 89.164C35.8605 89.1467 35.8605 89.1282 35.8605 89.111C37.3702 89.543 38.9704 89.543 40.4801 89.111L40.5083 89.1024C40.5785 89.0827 40.6498 89.0617 40.7187 89.0383L40.8307 89.0026C41.1342 88.9009 41.4316 88.7816 41.7214 88.6453L41.8235 86.4424L41.8973 84.8691L41.8924 84.8544ZM35.8421 89.1085C35.8465 89.1268 35.8498 89.1453 35.8519 89.164C35.8519 89.1467 35.8519 89.1282 35.8519 89.111L35.8421 89.1085ZM40.5883 87.1669C40.5883 87.1176 40.5883 87.0683 40.5797 87.019C40.5711 86.9697 40.5723 86.9266 40.5662 86.8798C40.56 86.833 40.5551 86.7862 40.5489 86.7394C40.5428 86.6925 40.5342 86.6457 40.5256 86.5989C40.517 86.5521 40.5083 86.5053 40.4985 86.4584C40.4985 86.4424 40.4924 86.4276 40.4887 86.4116C40.4751 86.35 40.4604 86.2884 40.4444 86.2256C40.4284 86.1628 40.4185 86.1258 40.4038 86.0765C40.4038 86.0543 40.3915 86.0322 40.3841 86.0112C40.3767 85.9903 40.3632 85.9398 40.3521 85.904L40.33 85.835C40.3201 85.8042 40.3103 85.7734 40.2992 85.7426C40.2808 85.6872 40.2611 85.633 40.2414 85.5775C40.2217 85.5221 40.2008 85.4679 40.1799 85.4137C40.138 85.3028 40.0925 85.1932 40.047 85.0835C39.8686 84.6572 39.6681 84.2371 39.4836 83.8207C39.3844 83.6024 39.2965 83.3791 39.2203 83.1517L39.1969 83.185C39.1595 83.2416 39.1262 83.3009 39.0973 83.3624C39.0973 84.332 38.1278 85.5184 38.1278 85.5184L37.1523 84.0954L36.2985 85.41C36.1755 85.4753 36.0524 85.6995 35.9565 86.0186C35.9294 86.1049 35.9036 86.1985 35.879 86.2983C35.8618 86.3648 35.8458 86.435 35.831 86.5053C35.8224 86.541 35.815 86.5767 35.8076 86.6137L35.7855 86.7258V86.743C35.7707 86.8194 35.756 86.8983 35.7424 86.9784C35.7289 87.0584 35.7129 87.1508 35.6994 87.2383C35.6895 87.295 35.6809 87.3517 35.6735 87.4083C35.6563 87.518 35.6415 87.6289 35.6268 87.7385C35.6182 87.8026 35.6096 87.8617 35.6022 87.9295L35.5727 88.1759C35.6354 88.3779 35.7055 88.5775 35.7781 88.7734C35.8245 88.8808 35.8515 88.9954 35.8581 89.1122C37.3677 89.5442 38.968 89.5442 40.4776 89.1122C40.477 89.1081 40.477 89.104 40.4776 89.0999C40.4549 88.9893 40.445 88.8764 40.4481 88.7636C40.4729 88.4475 40.514 88.1329 40.5711 87.8211C40.5893 87.6673 40.5971 87.5126 40.5945 87.3578V87.3024C40.5908 87.2556 40.5895 87.2112 40.5883 87.1669ZM40.5883 87.1669C40.5883 87.1176 40.5883 87.0683 40.5797 87.019C40.5711 86.9697 40.5723 86.9266 40.5662 86.8798C40.56 86.833 40.5551 86.7862 40.5489 86.7394C40.5428 86.6925 40.5342 86.6457 40.5256 86.5989C40.517 86.5521 40.5083 86.5053 40.4985 86.4584C40.4985 86.4424 40.4924 86.4276 40.4887 86.4116C40.4751 86.35 40.4604 86.2884 40.4444 86.2256C40.4284 86.1628 40.4185 86.1258 40.4038 86.0765C40.4038 86.0543 40.3915 86.0322 40.3841 86.0112C40.3767 85.9903 40.3632 85.9398 40.3521 85.904L40.33 85.835C40.3201 85.8042 40.3103 85.7734 40.2992 85.7426C40.2808 85.6872 40.2611 85.633 40.2414 85.5775C40.2217 85.5221 40.2008 85.4679 40.1799 85.4137C40.138 85.3028 40.0925 85.1932 40.047 85.0835C39.8686 84.6572 39.6681 84.2371 39.4836 83.8207C39.3844 83.6024 39.2965 83.3791 39.2203 83.1517L39.1969 83.185C39.1595 83.2416 39.1262 83.3009 39.0973 83.3624C39.0973 84.332 38.1278 85.5184 38.1278 85.5184L37.1523 84.0954L36.2985 85.41C36.1755 85.4753 36.0524 85.6995 35.9565 86.0186C35.9294 86.1049 35.9036 86.1985 35.879 86.2983C35.8618 86.3648 35.8458 86.435 35.831 86.5053C35.8224 86.541 35.815 86.5767 35.8076 86.6137L35.7855 86.7258V86.743C35.7707 86.8194 35.756 86.8983 35.7424 86.9784C35.7289 87.0584 35.7129 87.1508 35.6994 87.2383C35.6895 87.295 35.6809 87.3517 35.6735 87.4083C35.6563 87.518 35.6415 87.6289 35.6268 87.7385C35.6182 87.8026 35.6096 87.8617 35.6022 87.9295L35.5727 88.1759C35.6354 88.3779 35.7055 88.5775 35.7781 88.7734C35.8245 88.8808 35.8515 88.9954 35.8581 89.1122C37.3677 89.5442 38.968 89.5442 40.4776 89.1122C40.477 89.1081 40.477 89.104 40.4776 89.0999C40.4549 88.9893 40.445 88.8764 40.4481 88.7636C40.4729 88.4475 40.514 88.1329 40.5711 87.8211C40.5893 87.6673 40.5971 87.5126 40.5945 87.3578V87.3024C40.5908 87.2556 40.5895 87.2112 40.5883 87.1669ZM40.5883 87.1669C40.5883 87.1176 40.5883 87.0683 40.5797 87.019C40.5711 86.9697 40.5723 86.9266 40.5662 86.8798C40.56 86.833 40.5551 86.7862 40.5489 86.7394C40.5428 86.6925 40.5342 86.6457 40.5256 86.5989C40.517 86.5521 40.5083 86.5053 40.4985 86.4584C40.4985 86.4424 40.4924 86.4276 40.4887 86.4116C40.4751 86.35 40.4604 86.2884 40.4444 86.2256C40.4284 86.1628 40.4185 86.1258 40.4038 86.0765C40.4038 86.0543 40.3915 86.0322 40.3841 86.0112C40.3767 85.9903 40.3632 85.9398 40.3521 85.904L40.33 85.835C40.3201 85.8042 40.3103 85.7734 40.2992 85.7426C40.2808 85.6872 40.2611 85.633 40.2414 85.5775C40.2217 85.5221 40.2008 85.4679 40.1799 85.4137C40.138 85.3028 40.0925 85.1932 40.047 85.0835C39.8686 84.6572 39.6681 84.2371 39.4836 83.8207C39.3844 83.6024 39.2965 83.3791 39.2203 83.1517L39.1969 83.185C39.1595 83.2416 39.1262 83.3009 39.0973 83.3624C39.0973 84.332 38.1278 85.5184 38.1278 85.5184L37.1523 84.0954L36.2985 85.41C36.1755 85.4753 36.0524 85.6995 35.9565 86.0186C35.9294 86.1049 35.9036 86.1985 35.879 86.2983C35.8618 86.3648 35.8458 86.435 35.831 86.5053C35.8224 86.541 35.815 86.5767 35.8076 86.6137L35.7855 86.7258V86.743C35.7707 86.8194 35.756 86.8983 35.7424 86.9784C35.7289 87.0584 35.7129 87.1508 35.6994 87.2383C35.6895 87.295 35.6809 87.3517 35.6735 87.4083C35.6563 87.518 35.6415 87.6289 35.6268 87.7385C35.6182 87.8026 35.6096 87.8617 35.6022 87.9295L35.5727 88.1759C35.6354 88.3779 35.7055 88.5775 35.7781 88.7734C35.8245 88.8808 35.8515 88.9954 35.8581 89.1122C37.3677 89.5442 38.968 89.5442 40.4776 89.1122C40.477 89.1081 40.477 89.104 40.4776 89.0999C40.4549 88.9893 40.445 88.8764 40.4481 88.7636C40.4729 88.4475 40.514 88.1329 40.5711 87.8211C40.5893 87.6673 40.5971 87.5126 40.5945 87.3578V87.3024C40.5908 87.2556 40.5895 87.2112 40.5883 87.1669ZM40.5883 87.1669C40.5883 87.1176 40.5883 87.0683 40.5797 87.019C40.5711 86.9697 40.5723 86.9266 40.5662 86.8798C40.56 86.833 40.5551 86.7862 40.5489 86.7394C40.5428 86.6925 40.5342 86.6457 40.5256 86.5989C40.517 86.5521 40.5083 86.5053 40.4985 86.4584C40.4985 86.4424 40.4924 86.4276 40.4887 86.4116C40.4751 86.35 40.4604 86.2884 40.4444 86.2256C40.4284 86.1628 40.4185 86.1258 40.4038 86.0765C40.4038 86.0543 40.3915 86.0322 40.3841 86.0112C40.3767 85.9903 40.3632 85.9398 40.3521 85.904L40.33 85.835C40.3201 85.8042 40.3103 85.7734 40.2992 85.7426C40.2808 85.6872 40.2611 85.633 40.2414 85.5775C40.2217 85.5221 40.2008 85.4679 40.1799 85.4137C40.138 85.3028 40.0925 85.1932 40.047 85.0835C39.8686 84.6572 39.6681 84.2371 39.4836 83.8207C39.3844 83.6024 39.2965 83.3791 39.2203 83.1517L39.1969 83.185C39.1595 83.2416 39.1262 83.3009 39.0973 83.3624C39.0973 84.332 38.1278 85.5184 38.1278 85.5184L37.1523 84.0954L36.2985 85.41C36.1755 85.4753 36.0524 85.6995 35.9565 86.0186C35.9294 86.1049 35.9036 86.1985 35.879 86.2983C35.8618 86.3648 35.8458 86.435 35.831 86.5053C35.8224 86.541 35.815 86.5767 35.8076 86.6137L35.7855 86.7258V86.743C35.7707 86.8194 35.756 86.8983 35.7424 86.9784C35.7289 87.0584 35.7129 87.1508 35.6994 87.2383C35.6895 87.295 35.6809 87.3517 35.6735 87.4083C35.6563 87.518 35.6415 87.6289 35.6268 87.7385C35.6182 87.8026 35.6096 87.8617 35.6022 87.9295L35.5727 88.1759C35.6354 88.3779 35.7055 88.5775 35.7781 88.7734C35.8245 88.8808 35.8515 88.9954 35.8581 89.1122C37.3677 89.5442 38.968 89.5442 40.4776 89.1122C40.477 89.1081 40.477 89.104 40.4776 89.0999C40.4549 88.9893 40.445 88.8764 40.4481 88.7636C40.4729 88.4475 40.514 88.1329 40.5711 87.8211C40.5893 87.6673 40.5971 87.5126 40.5945 87.3578V87.3024C40.5908 87.2556 40.5895 87.2112 40.5883 87.1669ZM40.5883 87.1669C40.5883 87.1176 40.5883 87.0683 40.5797 87.019C40.5711 86.9697 40.5723 86.9266 40.5662 86.8798C40.56 86.833 40.5551 86.7862 40.5489 86.7394C40.5428 86.6925 40.5342 86.6457 40.5256 86.5989C40.517 86.5521 40.5083 86.5053 40.4985 86.4584C40.4985 86.4424 40.4924 86.4276 40.4887 86.4116C40.4751 86.35 40.4604 86.2884 40.4444 86.2256C40.4284 86.1628 40.4185 86.1258 40.4038 86.0765C40.4038 86.0543 40.3915 86.0322 40.3841 86.0112C40.3767 85.9903 40.3632 85.9398 40.3521 85.904L40.33 85.835C40.3201 85.8042 40.3103 85.7734 40.2992 85.7426C40.2808 85.6872 40.2611 85.633 40.2414 85.5775C40.2217 85.5221 40.2008 85.4679 40.1799 85.4137C40.138 85.3028 40.0925 85.1932 40.047 85.0835C39.8686 84.6572 39.6681 84.2371 39.4836 83.8207C39.3844 83.6024 39.2965 83.3791 39.2203 83.1517L39.1969 83.185C39.1595 83.2416 39.1262 83.3009 39.0973 83.3624C39.0973 84.332 38.1278 85.5184 38.1278 85.5184L37.1523 84.0954L36.2985 85.41C36.1755 85.4753 36.0524 85.6995 35.9565 86.0186C35.9294 86.1049 35.9036 86.1985 35.879 86.2983C35.8618 86.3648 35.8458 86.435 35.831 86.5053C35.8224 86.541 35.815 86.5767 35.8076 86.6137L35.7855 86.7258V86.743C35.7707 86.8194 35.756 86.8983 35.7424 86.9784C35.7289 87.0584 35.7129 87.1508 35.6994 87.2383C35.6895 87.295 35.6809 87.3517 35.6735 87.4083C35.6563 87.518 35.6415 87.6289 35.6268 87.7385C35.6182 87.8026 35.6096 87.8617 35.6022 87.9295L35.5727 88.1759C35.6354 88.3779 35.7055 88.5775 35.7781 88.7734C35.8245 88.8808 35.8515 88.9954 35.8581 89.1122C37.3677 89.5442 38.968 89.5442 40.4776 89.1122C40.477 89.1081 40.477 89.104 40.4776 89.0999C40.4549 88.9893 40.445 88.8764 40.4481 88.7636C40.4729 88.4475 40.514 88.1329 40.5711 87.8211C40.5893 87.6673 40.5971 87.5126 40.5945 87.3578V87.3024C40.5908 87.2556 40.5895 87.2112 40.5883 87.1669ZM40.5883 87.1669C40.5883 87.1176 40.5883 87.0683 40.5797 87.019C40.5711 86.9697 40.5723 86.9266 40.5662 86.8798C40.56 86.833 40.5551 86.7862 40.5489 86.7394C40.5428 86.6925 40.5342 86.6457 40.5256 86.5989C40.517 86.5521 40.5083 86.5053 40.4985 86.4584C40.4985 86.4424 40.4924 86.4276 40.4887 86.4116C40.4751 86.35 40.4604 86.2884 40.4444 86.2256C40.4284 86.1628 40.4185 86.1258 40.4038 86.0765C40.4038 86.0543 40.3915 86.0322 40.3841 86.0112C40.3767 85.9903 40.3632 85.9398 40.3521 85.904L40.33 85.835C40.3201 85.8042 40.3103 85.7734 40.2992 85.7426C40.2808 85.6872 40.2611 85.633 40.2414 85.5775C40.2217 85.5221 40.2008 85.4679 40.1799 85.4137C40.138 85.3028 40.0925 85.1932 40.047 85.0835C39.8686 84.6572 39.6681 84.2371 39.4836 83.8207C39.3844 83.6024 39.2965 83.3791 39.2203 83.1517L39.1969 83.185C39.1595 83.2416 39.1262 83.3009 39.0973 83.3624C39.0973 84.332 38.1278 85.5184 38.1278 85.5184L37.1523 84.0954L36.2985 85.41C36.1755 85.4753 36.0524 85.6995 35.9565 86.0186C35.9294 86.1049 35.9036 86.1985 35.879 86.2983C35.8618 86.3648 35.8458 86.435 35.831 86.5053C35.8224 86.541 35.815 86.5767 35.8076 86.6137L35.7855 86.7258V86.743C35.7707 86.8194 35.756 86.8983 35.7424 86.9784C35.7289 87.0584 35.7129 87.1508 35.6994 87.2383C35.6895 87.295 35.6809 87.3517 35.6735 87.4083C35.6563 87.518 35.6415 87.6289 35.6268 87.7385C35.6182 87.8026 35.6096 87.8617 35.6022 87.9295L35.5727 88.1759C35.6354 88.3779 35.7055 88.5775 35.7781 88.7734C35.8245 88.8808 35.8515 88.9954 35.8581 89.1122C37.3677 89.5442 38.968 89.5442 40.4776 89.1122C40.477 89.1081 40.477 89.104 40.4776 89.0999C40.4549 88.9893 40.445 88.8764 40.4481 88.7636C40.4729 88.4475 40.514 88.1329 40.5711 87.8211C40.5893 87.6673 40.5971 87.5126 40.5945 87.3578V87.3024C40.5908 87.2556 40.5895 87.2112 40.5883 87.1669ZM40.5883 87.1669C40.5883 87.1176 40.5883 87.0683 40.5797 87.019C40.5711 86.9697 40.5723 86.9266 40.5662 86.8798C40.56 86.833 40.5551 86.7862 40.5489 86.7394C40.5428 86.6925 40.5342 86.6457 40.5256 86.5989C40.517 86.5521 40.5083 86.5053 40.4985 86.4584C40.4985 86.4424 40.4924 86.4276 40.4887 86.4116C40.4751 86.35 40.4604 86.2884 40.4444 86.2256C40.4284 86.1628 40.4185 86.1258 40.4038 86.0765C40.4038 86.0543 40.3915 86.0322 40.3841 86.0112C40.3767 85.9903 40.3632 85.9398 40.3521 85.904L40.33 85.835C40.3201 85.8042 40.3103 85.7734 40.2992 85.7426C40.2808 85.6872 40.2611 85.633 40.2414 85.5775C40.2217 85.5221 40.2008 85.4679 40.1799 85.4137C40.138 85.3028 40.0925 85.1932 40.047 85.0835C39.8686 84.6572 39.6681 84.2371 39.4836 83.8207C39.3844 83.6024 39.2965 83.3791 39.2203 83.1517L39.1969 83.185C39.1595 83.2416 39.1262 83.3009 39.0973 83.3624C39.0973 84.332 38.1278 85.5184 38.1278 85.5184L37.1523 84.0954L36.2985 85.41C36.1755 85.4753 36.0524 85.6995 35.9565 86.0186C35.9294 86.1049 35.9036 86.1985 35.879 86.2983C35.8618 86.3648 35.8458 86.435 35.831 86.5053C35.8224 86.541 35.815 86.5767 35.8076 86.6137L35.7855 86.7258V86.743C35.7707 86.8194 35.756 86.8983 35.7424 86.9784C35.7289 87.0584 35.7129 87.1508 35.6994 87.2383C35.6895 87.295 35.6809 87.3517 35.6735 87.4083C35.6563 87.518 35.6415 87.6289 35.6268 87.7385C35.6182 87.8026 35.6096 87.8617 35.6022 87.9295L35.5727 88.1759C35.6354 88.3779 35.7055 88.5775 35.7781 88.7734C35.8245 88.8808 35.8515 88.9954 35.8581 89.1122C37.3677 89.5442 38.968 89.5442 40.4776 89.1122C40.477 89.1081 40.477 89.104 40.4776 89.0999C40.4549 88.9893 40.445 88.8764 40.4481 88.7636C40.4729 88.4475 40.514 88.1329 40.5711 87.8211C40.5893 87.6673 40.5971 87.5126 40.5945 87.3578V87.3024C40.5908 87.2556 40.5895 87.2112 40.5883 87.1669ZM40.5883 87.1669C40.5883 87.1176 40.5883 87.0683 40.5797 87.019C40.5711 86.9697 40.5723 86.9266 40.5662 86.8798C40.56 86.833 40.5551 86.7862 40.5489 86.7394C40.5428 86.6925 40.5342 86.6457 40.5256 86.5989C40.517 86.5521 40.5083 86.5053 40.4985 86.4584C40.4985 86.4424 40.4924 86.4276 40.4887 86.4116C40.4751 86.35 40.4604 86.2884 40.4444 86.2256C40.4284 86.1628 40.4185 86.1258 40.4038 86.0765C40.4038 86.0543 40.3915 86.0322 40.3841 86.0112C40.3767 85.9903 40.3632 85.9398 40.3521 85.904L40.33 85.835C40.3201 85.8042 40.3103 85.7734 40.2992 85.7426C40.2808 85.6872 40.2611 85.633 40.2414 85.5775C40.2217 85.5221 40.2008 85.4679 40.1799 85.4137C40.138 85.3028 40.0925 85.1932 40.047 85.0835C39.8686 84.6572 39.6681 84.2371 39.4836 83.8207C39.3844 83.6024 39.2965 83.3791 39.2203 83.1517L39.1969 83.185C39.1595 83.2416 39.1262 83.3009 39.0973 83.3624C39.0973 84.332 38.1278 85.5184 38.1278 85.5184L37.1523 84.0954L36.2985 85.41C36.1755 85.4753 36.0524 85.6995 35.9565 86.0186C35.9294 86.1049 35.9036 86.1985 35.879 86.2983C35.8618 86.3648 35.8458 86.435 35.831 86.5053C35.8224 86.541 35.815 86.5767 35.8076 86.6137L35.7855 86.7258V86.743C35.7707 86.8194 35.756 86.8983 35.7424 86.9784C35.7289 87.0584 35.7129 87.1508 35.6994 87.2383C35.6895 87.295 35.6809 87.3517 35.6735 87.4083C35.6563 87.518 35.6415 87.6289 35.6268 87.7385C35.6182 87.8026 35.6096 87.8617 35.6022 87.9295L35.5727 88.1759C35.6354 88.3779 35.7055 88.5775 35.7781 88.7734C35.8245 88.8808 35.8515 88.9954 35.8581 89.1122C37.3677 89.5442 38.968 89.5442 40.4776 89.1122C40.477 89.1081 40.477 89.104 40.4776 89.0999C40.4549 88.9893 40.445 88.8764 40.4481 88.7636C40.4729 88.4475 40.514 88.1329 40.5711 87.8211C40.5893 87.6673 40.5971 87.5126 40.5945 87.3578V87.3024C40.5908 87.2556 40.5895 87.2112 40.5883 87.1669Z" fill="#444176"/>
<path opacity="0.1" d="M37.1707 84.0129L37.0883 84.0018C36.9638 83.9849 36.8406 83.9602 36.7192 83.9279L36.6737 83.9156C36.3735 83.8305 36.045 83.6778 35.9712 83.4092C35.9493 83.3227 35.9518 83.2319 35.9786 83.1468C36.0199 83.0002 36.076 82.8582 36.1459 82.723V82.7156C36.1552 82.6965 36.1654 82.678 36.1767 82.6601C36.2782 82.4614 36.4317 82.2941 36.6208 82.1759L36.4732 82.1994L35.2233 82.4026L33.2856 82.7156C33.2856 82.7156 32.9412 82.6466 32.4725 83.9402C32.4725 83.9562 32.4614 83.971 32.4565 83.9883C32.3433 84.3049 32.2239 84.7004 32.1009 85.1944C32.016 85.5369 31.9385 85.8732 31.8672 86.1997C31.8463 86.2983 31.8253 86.3956 31.8057 86.4917C32.0275 86.7536 32.2662 87.0005 32.5204 87.2309L32.561 87.2691C33.0589 87.7206 33.609 88.1107 34.1997 88.4309L34.2231 88.4432C34.5946 88.644 34.9813 88.8153 35.3795 88.9558L35.4841 88.9927C35.5062 88.7648 35.5308 88.5122 35.5603 88.2535C35.5603 88.2276 35.5603 88.2018 35.5702 88.1759L35.5997 87.9295C35.6071 87.8667 35.6157 87.8063 35.6243 87.7385C35.6391 87.6289 35.6538 87.518 35.6711 87.4083C35.6784 87.3517 35.6871 87.295 35.6969 87.2383C35.7104 87.1509 35.7252 87.0634 35.74 86.9784C35.7547 86.8934 35.7682 86.8194 35.783 86.7431V86.7258L35.8052 86.6137C35.8125 86.5767 35.8199 86.541 35.8285 86.5053C35.8433 86.435 35.8593 86.3648 35.8765 86.2983C35.9011 86.1985 35.9269 86.1049 35.954 86.0186C36.0524 85.6995 36.1668 85.4753 36.296 85.41L37.1498 84.0954L37.1855 84.04L37.2015 84.0154L37.1707 84.0129Z" fill="black"/>
<path opacity="0.1" d="M37.3749 77.4536C37.7587 77.3883 38.145 77.2479 38.5264 77.3304C38.8462 77.3969 39.1132 77.6101 39.406 77.7579C39.6887 77.9003 39.9979 77.9821 40.3139 77.9982C40.4292 78.0133 40.5462 77.9904 40.6473 77.9329C40.7998 77.8269 40.822 77.6101 40.7961 77.4253C40.7223 76.9004 40.3951 76.4495 40.058 76.0405C39.9235 75.8657 39.7681 75.7081 39.5954 75.5711C39.1538 75.2446 38.5694 75.1891 38.022 75.2138C37.397 75.2421 36.7622 75.3629 36.2197 75.677C35.8506 75.8889 35.0042 76.5567 35.2982 77.0396C35.607 77.5448 36.8914 77.5362 37.3749 77.4536Z" fill="black"/>
<path opacity="0.5" d="M37.3749 77.3304C37.7587 77.2651 38.145 77.1246 38.5264 77.2072C38.8462 77.2737 39.1132 77.4868 39.406 77.6347C39.6887 77.7771 39.9979 77.8589 40.3139 77.8749C40.4292 77.8901 40.5462 77.8672 40.6473 77.8096C40.7998 77.7037 40.822 77.4868 40.7961 77.302C40.7223 76.7772 40.3951 76.3263 40.058 75.9173C39.9235 75.7425 39.7681 75.5849 39.5954 75.4479C39.1538 75.1214 38.5694 75.0659 38.022 75.0906C37.397 75.1189 36.7622 75.2396 36.2197 75.5538C35.8506 75.7657 35.0042 76.4335 35.2982 76.9164C35.607 77.4215 36.8914 77.4129 37.3749 77.3304Z" fill="#444176"/>
</g>
<path d="M71.1574 71.2972H71.1758C71.2029 72.1226 71.3198 72.8692 71.5449 73.0762C72.0813 73.569 74.3056 72.5834 74.153 71.9871C74.1222 71.8639 74.0706 71.6618 74.0054 71.4068C74.6057 71.3317 75.1187 71.1604 75.3229 70.8081L75.7092 72.0007L75.7363 72.0857H75.7437H75.7658C76.0205 74.5029 76.5975 79.5222 77.0588 80.1948C77.6739 81.0856 78.3813 84.9455 78.3813 84.9455L79.7038 92.8637C79.7038 92.8637 80.2131 97.4222 80.5182 97.915C80.607 98.0091 80.7249 98.0703 80.8528 98.0887C80.6745 98.6234 80.4186 99.2481 80.1147 99.5967C79.4996 100.289 78.6901 101.675 77.9778 101.577C77.2655 101.478 77.0625 102.963 78.385 103.16C79.117 103.269 80.2845 103.136 81.1813 102.996C81.1813 103.393 81.4569 103.848 82.1495 103.952C83.472 104.15 86.2191 103.556 86.2191 103.556C86.2191 103.556 88.5566 102.571 88.6611 101.873C88.735 101.368 88.377 99.3405 88.1777 98.2772C88.5467 97.6846 88.1531 92.5705 88.1531 92.5705L87.4407 82.7722C87.4407 82.7722 87.848 77.3291 87.4407 76.3386C87.1861 75.7226 87.0914 72.8889 87.0557 70.8623L87.5478 70.8943C87.5758 70.8605 87.6012 70.8246 87.6241 70.7871L87.7471 70.7957C87.7471 70.7957 88.3622 70.1033 87.8492 69.0142C87.4715 68.2048 87.5429 64.5506 87.6031 62.7309L87.6757 61.8685C87.7027 61.8423 87.7233 61.8103 87.736 61.7749C88.6902 61.6458 89.6176 61.3646 90.4831 60.942C90.7442 60.8333 90.9873 60.6854 91.204 60.5034C91.7133 60.0106 91.407 57.039 90.3896 52.5852C89.3722 48.1314 88.4569 48.5269 88.4569 48.5269C88.4569 48.5269 86.0149 48.3286 84.8954 46.844C83.7759 45.3594 83.0242 45.3791 83.0242 45.3791C82.9959 45.1844 82.9762 45.0009 82.9627 44.8296C82.9627 44.7656 82.9529 44.7064 82.9492 44.6424C83.3298 44.2879 83.62 43.8473 83.7956 43.3574C84.0244 43.2342 84.3061 43.1935 84.5251 43.0383C84.5809 42.9976 84.6317 42.9505 84.6764 42.8978C84.8959 42.695 85.0352 42.42 85.0689 42.1229C85.1038 41.7984 85.0884 41.4705 85.0233 41.1508C84.9458 40.6777 84.8314 40.1935 84.5559 39.8214C84.2803 39.4494 83.8682 39.2251 83.4708 39.0169C82.3947 38.451 81.3158 37.8909 80.234 37.3365C80.0227 37.2071 79.7869 37.1232 79.5414 37.0901C79.1084 37.0654 78.7196 37.3623 78.3702 37.6445C78.2308 37.7543 78.0974 37.8715 77.9704 37.9956C77.8625 38.0914 77.764 38.1975 77.6764 38.3122C77.2679 38.8605 77.0945 39.8929 77.2741 40.5779C77.3307 40.7947 77.4525 40.8576 77.6026 40.8551C77.3799 41.2985 77.264 41.788 77.2643 42.2843C77.2667 42.8277 77.4055 43.3617 77.668 43.8373C77.9305 44.3129 78.3082 44.7147 78.7664 45.0058C78.7664 45.0748 78.7664 45.1426 78.7725 45.2078C78.7776 45.4607 78.7693 45.7136 78.7479 45.9655C78.7479 45.9655 76.0414 47.4304 75.7375 48.1228C75.4337 48.8152 74.3129 49.3105 74.3129 49.3105C74.3129 49.3105 72.176 50.3996 72.176 54.2595L71.0565 59.7026L70.8535 70.0947C70.8535 70.0947 70.9938 69.9715 71.2226 69.7966C71.2152 69.8656 71.209 69.937 71.2029 70.0097C71.1724 70.4069 71.1622 70.8053 71.1721 71.2035L71.1574 71.2972ZM84.8253 98.1935C84.7834 98.3524 84.7219 98.5631 84.6444 98.8095C84.61 98.6049 84.5755 98.4029 84.5411 98.2107C84.6297 98.2021 84.7244 98.1971 84.8253 98.1935Z" fill="url(#paint2_linear)"/>
<path d="M81.1307 96.9171C81.1307 96.9171 80.7383 98.6838 80.1465 99.3701C79.5548 100.056 78.7797 101.431 78.0957 101.333C77.4117 101.234 77.2136 102.706 78.4882 102.902C79.7627 103.098 82.4015 102.51 82.4015 102.51C82.4015 102.51 84.6553 101.525 84.7525 100.842C84.8497 100.16 84.1645 96.6227 84.1645 96.6227L81.1307 96.9171Z" fill="#202024"/>
<path opacity="0.05" d="M81.1307 96.9171C81.1307 96.9171 80.7383 98.6838 80.1465 99.3701C79.5548 100.056 78.7797 101.431 78.0957 101.333C77.4117 101.234 77.2136 102.706 78.4882 102.902C79.7627 103.098 82.4015 102.51 82.4015 102.51C82.4015 102.51 84.6553 101.525 84.7525 100.842C84.8497 100.16 84.1645 96.6227 84.1645 96.6227L81.1307 96.9171Z" fill="black"/>
<path d="M84.7557 97.7019C84.7557 97.7019 84.3633 99.4686 83.7716 100.155C83.1798 100.841 82.4011 102.216 81.7183 102.117C81.0355 102.019 80.8362 103.491 82.1107 103.687C83.3853 103.883 86.0303 103.294 86.0303 103.294C86.0303 103.294 88.2841 102.308 88.3813 101.626C88.4785 100.943 87.7932 97.4062 87.7932 97.4062L84.7557 97.7019Z" fill="#1E1E22"/>
<path d="M75.8389 70.8179C75.8389 70.8179 76.6225 79.256 77.2106 80.1394C77.7986 81.0228 78.4839 84.8494 78.4839 84.8494L79.7572 92.6986C79.7572 92.6986 80.2493 97.2128 80.5408 97.7031C80.8324 98.1934 84.469 97.9828 84.469 97.9828L82.2078 71.9945L75.8389 70.8179Z" fill="#202024"/>
<path opacity="0.05" d="M75.8389 70.8179C75.8389 70.8179 76.6225 79.256 77.2106 80.1394C77.7986 81.0228 78.4839 84.8494 78.4839 84.8494L79.7572 92.6986C79.7572 92.6986 80.2493 97.2128 80.5408 97.7031C80.8324 98.1934 84.469 97.9828 84.469 97.9828L82.2078 71.9945L75.8389 70.8179Z" fill="#202024"/>
<path d="M74.2725 66.7929L74.5284 67.6073L75.9124 72.0068L75.9394 72.0906H75.9468C76.1326 72.1325 80.0546 73.0356 80.901 73.3128C80.9466 73.3269 80.9914 73.3438 81.0351 73.3633C81.4275 73.5592 81.9171 80.6236 81.9171 80.6236C81.9171 80.6236 82.2112 87.2962 82.4092 87.7866C82.6073 88.2769 83.3934 98.382 83.8794 98.0888C84.3653 97.7955 87.8961 98.0888 87.8961 98.0888C88.2885 97.6957 87.8961 92.398 87.8961 92.398L87.1998 82.686C87.1998 82.686 87.5922 77.2897 87.1998 76.3078C86.8073 75.3259 86.8073 68.753 86.8073 68.753L78.7874 67.4976L78.0124 67.3744L74.2725 66.7929Z" fill="#202024"/>
<path opacity="0.02" d="M74.5283 67.6085L75.9123 72.0081L75.9455 72.0943C76.1313 72.1362 80.0533 73.0393 80.8997 73.3165H80.9846L78.7935 67.4988L78.7308 67.3313L78.0185 67.3769L74.5283 67.6085Z" fill="black"/>
<path opacity="0.1" d="M83.6775 47.1705C83.6775 47.1705 80.052 51.0957 77.7982 47.8567L75.6428 49.329L76.0353 51.586L74.7607 68.6582C74.7607 68.6582 78.0922 68.5596 80.4432 69.3444C81.098 69.577 81.8055 69.6175 82.4824 69.461C83.1594 69.3045 83.7776 68.9575 84.2643 68.4611L83.8768 53.4501L84.7588 48.8386L83.6775 47.1705Z" fill="black"/>
<path d="M83.6775 46.876C83.6775 46.876 80.052 50.8012 77.7982 47.5623L75.6428 49.0345L76.0353 51.2916L74.7607 68.3637C74.7607 68.3637 78.0922 68.2652 80.4432 69.05C81.098 69.2826 81.8055 69.323 82.4824 69.1665C83.1594 69.01 83.7776 68.6631 84.2643 68.1666L83.8768 53.1556L84.7588 48.5442L83.6775 46.876Z" fill="#202024"/>
<path d="M76.4407 64.356V64.9744H76.2439V64.5629H75.5242V64.9744H75.3262V64.3572L76.4407 64.356Z" fill="#E82127"/>
<path d="M76.2648 64.1564H75.5045C75.4547 64.1444 75.4091 64.1191 75.3727 64.083C75.3362 64.0469 75.3104 64.0016 75.2979 63.9519H76.4703C76.4576 64.0015 76.4317 64.0468 76.3953 64.0829C76.3589 64.1189 76.3133 64.1443 76.2636 64.1564" fill="#E82127"/>
<path d="M83.1393 63.9593C83.1263 64.0084 83.1004 64.0532 83.0643 64.089C83.0282 64.1247 82.9831 64.1501 82.9339 64.1625H82.614L82.598 64.1687V64.9769H82.4012V64.1687L82.3827 64.1625H82.0629C82.0138 64.1498 81.9689 64.1243 81.9328 64.0886C81.8968 64.0529 81.8708 64.0083 81.8574 63.9593H83.1393Z" fill="#E82127"/>
<path d="M76.1331 67.1871C76.1331 67.1871 76.1331 69.7387 75.545 70.8179C74.957 71.8972 71.5283 71.3107 71.5283 71.3107L72.2136 67.68L76.1331 67.1871Z" fill="#D6DBE6"/>
<path d="M71.9005 73.0762C72.4172 73.569 74.559 72.5834 74.4114 71.997C74.308 71.5818 73.9463 70.0959 73.7409 69.2532L73.5982 68.6606C73.5982 68.6606 72.3433 68.2676 71.9005 68.6606C71.7393 68.8036 71.6261 69.3666 71.5732 70.0467C71.4822 71.2282 71.5744 72.7633 71.9005 73.0762Z" fill="#FDC2CC"/>
<path d="M76.6191 48.6415L80.0478 51.2904C80.0478 51.2904 85.1422 50.9959 83.8689 48.5429C83.3145 47.4641 82.9799 46.2856 82.8847 45.076C82.8433 44.6298 82.8433 44.1806 82.8847 43.7344C82.8847 43.7344 78.1815 39.4223 78.7696 44.3233C78.8159 44.6995 78.843 45.0778 78.8508 45.4567C78.9209 49.1356 76.6191 48.6415 76.6191 48.6415Z" fill="#FDC2CC"/>
<path opacity="0.1" d="M78.7794 44.3245C78.8258 44.7007 78.8528 45.079 78.8606 45.4579C79.3884 45.808 80.0077 45.9941 80.6408 45.9926C81.5179 45.9926 82.1638 45.1376 82.747 44.5697C82.6818 43.7553 82.8934 43.7356 82.8934 43.7356C82.8934 43.7356 78.1914 39.4186 78.7794 44.3245Z" fill="black"/>
<path d="M80.6413 45.7968C82.4268 45.7968 83.8743 44.3472 83.8743 42.559C83.8743 40.7708 82.4268 39.3213 80.6413 39.3213C78.8557 39.3213 77.4082 40.7708 77.4082 42.559C77.4082 44.3472 78.8557 45.7968 80.6413 45.7968Z" fill="#FDC2CC"/>
<path opacity="0.1" d="M82.9423 45.6489C82.9423 45.6489 83.4811 45.6982 84.5588 47.1692C85.6365 48.6403 87.9875 48.8374 87.9875 48.8374C87.9875 48.8374 88.8696 48.4444 89.8488 52.86C90.8281 57.2755 91.1221 60.2188 90.6325 60.7092C90.1428 61.1995 88.1831 61.8882 87.1989 61.8882C87.1989 61.8882 86.9049 68.0693 87.3945 69.1485C87.8841 70.2278 87.2961 70.9153 87.2961 70.9153L82.9903 70.6208C82.9903 70.6208 81.5201 68.7567 81.2261 65.519C80.9321 62.2812 79.9528 53.0571 80.4425 51.9778C80.9321 50.8986 83.0875 48.1512 82.9903 47.8567C82.8931 47.5623 82.9423 45.6489 82.9423 45.6489Z" fill="black"/>
<path d="M82.9533 45.6193C82.9533 45.6193 83.6779 45.5996 84.7556 47.0719C85.8333 48.5442 88.1831 48.7401 88.1831 48.7401C88.1831 48.7401 89.0651 48.347 90.0444 52.7626C91.0237 57.1782 91.3177 60.1215 90.8281 60.6118C90.3384 61.1022 88.3787 61.7896 87.3994 61.7896C87.3994 61.7896 87.1054 67.9707 87.595 69.05C88.0846 70.1292 87.4966 70.8167 87.4966 70.8167L83.1907 70.5222C83.1907 70.5222 81.7206 68.6582 81.4266 65.4204C81.1326 62.1827 80.1508 52.9597 80.6405 51.8854C81.1301 50.8111 83.2855 48.0588 83.1883 47.7643C83.0911 47.4698 82.9533 45.6193 82.9533 45.6193Z" fill="#D6DBE6"/>
<path opacity="0.1" d="M71.5752 70.0454C72.0439 69.6869 72.9285 69.1288 73.7429 69.252L73.6002 68.6594C73.6002 68.6594 72.3453 68.2664 71.9024 68.6594C71.7388 68.8023 71.6269 69.3641 71.5752 70.0454Z" fill="black"/>
<path opacity="0.1" d="M78.8331 46.2378C78.8331 46.2378 76.3345 47.8567 76.0405 48.5442C75.7465 49.2316 74.6688 49.722 74.6688 49.722C74.6688 49.722 72.6119 50.8012 72.6119 54.6279L71.5342 60.0242L76.433 66.8927C76.433 66.8927 77.021 60.0242 77.315 58.356C77.6091 56.6878 78.0003 53.5511 78.0003 53.5511C78.0003 53.5511 79.4704 51.6871 79.2736 51.1967C79.0767 50.7064 78.8331 46.2378 78.8331 46.2378Z" fill="black"/>
<path d="M78.8328 46.2083C78.8328 46.2083 76.2272 47.6608 75.9344 48.3471C75.6416 49.0333 74.5627 49.5249 74.5627 49.5249C74.5627 49.5249 72.5057 50.6041 72.5057 54.4308L71.428 59.827L71.2324 70.1292C71.2324 70.1292 72.9966 68.4611 74.2699 69.2459C75.5432 70.0307 76.3268 66.6943 76.3268 66.6943C76.3268 66.6943 76.9149 59.8258 77.2089 58.1577C77.5029 56.4895 77.8941 53.3528 77.8941 53.3528C77.8941 53.3528 79.3643 51.4887 79.1674 50.9984C78.9706 50.508 78.8328 46.2083 78.8328 46.2083Z" fill="#D6DBE6"/>
<path opacity="0.1" d="M77.8024 38.6202C77.9683 38.4089 78.1601 38.2193 78.3733 38.056C78.7103 37.7751 79.0831 37.4818 79.5014 37.5065C79.738 37.538 79.9653 37.6195 80.1682 37.7455C81.2098 38.295 82.2485 38.8502 83.2843 39.4112C83.6669 39.6182 84.0618 39.8375 84.3288 40.2095C84.5958 40.5816 84.704 41.0596 84.7791 41.5278C84.8419 41.8449 84.8568 42.1697 84.8234 42.4912C84.7928 42.8065 84.64 43.0971 84.3977 43.3007C84.1184 43.504 83.7358 43.5052 83.5021 43.7713C83.3668 43.9253 83.3077 44.1409 83.2118 44.3282C83.1158 44.5155 82.9497 44.6978 82.7603 44.6645C82.5708 44.6313 82.4564 44.4304 82.4293 44.2272C82.4173 44.0211 82.4292 43.8144 82.465 43.6111C82.5019 43.2415 82.4552 42.8498 82.2411 42.575C82.0935 42.3878 81.8819 42.2744 81.7392 42.0822C81.3972 41.619 81.5534 40.8502 81.1782 40.4153C81.0692 40.3016 80.9321 40.2189 80.7808 40.1756C80.6295 40.1323 80.4695 40.13 80.317 40.1689C80.0132 40.2329 79.7351 40.398 79.4559 40.5385C79.0786 40.7291 78.6834 40.8818 78.2761 40.9943C77.9341 41.088 77.5379 41.3122 77.4211 40.8564C77.2427 40.1874 77.4088 39.1635 77.8024 38.6202Z" fill="black"/>
<path d="M77.9006 38.5229C78.0665 38.3116 78.2583 38.122 78.4715 37.9586C78.8085 37.6777 79.1813 37.3845 79.5996 37.4091C79.8362 37.4407 80.0635 37.5222 80.2664 37.6482C81.3072 38.1976 82.172 37.6777 83.3826 39.3139C83.6409 39.6637 84.1601 39.7401 84.4271 40.1122C84.694 40.4843 84.8023 40.9623 84.8773 41.4305C84.9401 41.7476 84.9551 42.0724 84.9216 42.3939C84.8911 42.7092 84.7383 42.9998 84.496 43.2034C84.2167 43.4066 83.8341 43.4079 83.6003 43.674C83.465 43.828 83.406 44.0436 83.31 44.2309C83.214 44.4181 83.048 44.6005 82.8585 44.5672C82.669 44.5339 82.5546 44.3331 82.5276 44.1298C82.5155 43.9238 82.5275 43.7171 82.5632 43.5138C82.6001 43.1442 82.5534 42.7524 82.3393 42.4777C82.1917 42.2904 81.9801 42.1771 81.8374 41.9849C81.4954 41.5216 81.6516 40.7529 81.2764 40.318C81.1675 40.2043 81.0303 40.1216 80.8791 40.0783C80.7278 40.035 80.5677 40.0327 80.4152 40.0715C80.1114 40.1356 79.8333 40.3007 79.5541 40.4412C79.1768 40.6318 78.7816 40.7845 78.3743 40.897C78.0323 40.9906 77.6361 41.2149 77.5193 40.759C77.3396 40.09 77.507 39.065 77.9006 38.5229Z" fill="#865A61"/>
<path opacity="0.1" d="M86.7317 53.4981C86.7317 53.4981 88.0382 56.8344 87.0577 58.2081L84.9023 57.7153C84.9023 57.7153 86.8621 58.3042 86.5681 57.1264C86.2741 55.9486 86.7317 53.4981 86.7317 53.4981Z" fill="black"/>
<path opacity="0.1" d="M87.4448 61.7416C87.4448 61.7416 84.603 61.9375 83.8193 61.3486C84.8513 62.1375 86.07 62.6447 87.3563 62.8208L87.4448 61.7416Z" fill="black"/>
<path opacity="0.1" d="M75.2026 55.4583C75.2026 55.4583 73.7325 59.9724 73.8309 60.6587C73.9293 61.3449 74.1249 68.9009 74.1249 68.9009L74.4189 68.8023L74.3205 60.5601L75.2026 55.4583Z" fill="black"/>
<path d="M87.7913 60.9753L54.2059 33.8708C54.0104 33.6751 53.7783 33.52 53.5229 33.4143C53.2674 33.3085 52.9937 33.2543 52.7173 33.2548H51.2902C54.142 29.5949 55.4925 24.9835 55.0663 20.3608C54.6401 15.7382 52.4693 11.4524 48.9966 8.37731C45.5238 5.30224 41.0107 3.66948 36.3773 3.81193C31.7439 3.95438 27.3392 5.86133 24.0614 9.14394C20.7835 12.4266 18.8793 16.8376 18.7371 21.4778C18.5949 26.1179 20.2252 30.6376 23.2959 34.1154C26.3665 37.5932 30.646 39.7672 35.262 40.194C39.8779 40.6208 44.4826 39.2684 48.1372 36.4124V37.8403C48.1367 38.1171 48.1909 38.3913 48.2964 38.6471C48.402 38.9029 48.5569 39.1353 48.7523 39.3311L82.3376 66.4356C82.5321 66.6319 82.7634 66.7877 83.0182 66.8941C83.2731 67.0004 83.5464 67.0551 83.8225 67.0551C84.0986 67.0551 84.372 67.0004 84.6268 66.8941C84.8817 66.7877 85.113 66.6319 85.3074 66.4356L87.7826 63.9592C88.1776 63.564 88.4002 63.0282 88.4018 62.469C88.4035 61.9099 88.1839 61.3728 87.7913 60.9753ZM36.9248 33.2548C34.7072 33.2548 32.5394 32.5962 30.6956 31.3624C28.8517 30.1286 27.4146 28.3749 26.566 26.3231C25.7173 24.2714 25.4953 22.0136 25.9279 19.8355C26.3605 17.6573 27.4284 15.6566 28.9965 14.0862C30.5646 12.5159 32.5624 11.4465 34.7374 11.0132C36.9124 10.5799 39.1668 10.8023 41.2156 11.6522C43.2644 12.502 45.0155 13.9412 46.2475 15.7878C47.4796 17.6343 48.1372 19.8053 48.1372 22.0261C48.1383 23.5011 47.8491 24.9619 47.286 26.3248C46.723 27.6878 45.8972 28.9263 44.8558 29.9694C43.8145 31.0125 42.578 31.8397 41.2171 32.4039C39.8562 32.9681 38.3977 33.258 36.9248 33.2572V33.2548Z" fill="url(#paint3_linear)"/>
<path d="M88.0374 60.7289L54.452 33.6244C54.2565 33.4287 54.0244 33.2736 53.769 33.1678C53.5135 33.0621 53.2398 33.0079 52.9634 33.0084H51.5363C54.3881 29.3485 55.7386 24.7371 55.3124 20.1144C54.8862 15.4918 52.7154 11.206 49.2427 8.13091C45.7699 5.05584 41.2568 3.42307 36.6234 3.56552C31.99 3.70798 27.5853 5.61492 24.3075 8.89753C21.0296 12.1801 19.1254 16.5912 18.9832 21.2314C18.8409 25.8715 20.4713 30.3912 23.5419 33.869C26.6125 37.3468 30.8921 39.5208 35.5081 39.9476C40.124 40.3744 44.7287 39.022 48.3833 36.166V37.5939C48.3828 37.8707 48.437 38.1449 48.5425 38.4007C48.6481 38.6565 48.803 38.8889 48.9984 39.0847L82.5837 66.1892C82.7782 66.3855 83.0095 66.5413 83.2643 66.6477C83.5192 66.754 83.7925 66.8087 84.0686 66.8087C84.3447 66.8087 84.6181 66.754 84.8729 66.6477C85.1278 66.5413 85.3591 66.3855 85.5535 66.1892L88.0288 63.7128C88.4237 63.3176 88.6463 62.7818 88.6479 62.2226C88.6496 61.6635 88.43 61.1264 88.0374 60.7289ZM37.1709 33.0084C34.9533 33.0084 32.7855 32.3498 30.9417 31.116C29.0978 29.8822 27.6607 28.1285 26.812 26.0767C25.9634 24.0249 25.7414 21.7672 26.174 19.5891C26.6066 17.4109 27.6745 15.4102 29.2426 13.8398C30.8107 12.2695 32.8085 11.2001 34.9835 10.7668C37.1585 10.3335 39.4129 10.5559 41.4617 11.4058C43.5105 12.2556 45.2616 13.6948 46.4936 15.5414C47.7257 17.3879 48.3833 19.5589 48.3833 21.7797C48.3844 23.2547 48.0952 24.7155 47.5321 26.0784C46.9691 27.4414 46.1433 28.6799 45.1019 29.723C44.0606 30.7661 42.8241 31.5933 41.4632 32.1575C40.1023 32.7217 38.6438 33.0116 37.1709 33.0108V33.0084Z" fill="#1CC5B7"/>
<path d="M85.5397 58.2575C85.5397 58.2575 80.6372 52.6271 81.3261 56.4907C81.8182 59.2382 83.6771 60.7104 84.5592 61.0049C85.4413 61.2993 85.5397 58.2575 85.5397 58.2575Z" fill="#FDC2CC"/>
<path d="M86.7155 53.0571C86.7155 53.0571 86.8139 56.6878 87.3035 57.1782C87.7931 57.6685 87.0095 58.2574 87.0095 58.2574L85.0497 57.7646C85.0497 57.7646 85.5418 61.0024 83.4824 60.6106C83.4824 60.6106 84.8541 61.8858 86.2258 62.0829C87.5975 62.28 87.4991 61.7884 87.4991 61.7884L89.5561 59.3355L86.7155 53.0571Z" fill="#D6DBE6"/>
<path d="M87.2576 61.8414L89.2457 61.404L88.9799 60.4862L87.7497 59.9934L86.1504 60.7326L87.2576 61.8414Z" fill="#D6DBE6"/>
<path d="M38.3977 26.433L41.0439 24.3891C41.0439 24.3891 39.2711 24.7698 39.3216 21.9325C39.3209 21.923 39.3209 21.9136 39.3216 21.9041C39.3216 21.6479 39.3462 21.367 39.3831 21.0577C39.837 17.2717 36.2078 20.6031 36.2078 20.6031C36.2391 20.9383 36.2391 21.2757 36.2078 21.6109C36.2078 21.6195 36.2078 21.6294 36.2078 21.638C36.1361 22.571 35.8793 23.4803 35.4525 24.3127C34.4671 26.2051 38.3977 26.433 38.3977 26.433Z" fill="#FDC2CC"/>
<path opacity="0.1" d="M36.5449 21.0848C36.9939 21.5222 37.2683 22.3169 37.9437 22.3169C38.4323 22.3179 38.9104 22.1743 39.3178 21.9041C39.3178 21.6479 39.3424 21.367 39.3793 21.0577C39.8333 17.2717 36.2041 20.6031 36.2041 20.6031C36.2041 20.6031 36.5929 20.4688 36.5449 21.0848Z" fill="black"/>
<path d="M37.9441 22.1937C39.322 22.1937 40.439 21.075 40.439 19.6951C40.439 18.3152 39.322 17.1966 37.9441 17.1966C36.5662 17.1966 35.4492 18.3152 35.4492 19.6951C35.4492 21.075 36.5662 22.1937 37.9441 22.1937Z" fill="#FDC2CC"/>
<path opacity="0.1" d="M40.3363 16.4956C40.1933 16.3145 40.0279 16.1522 39.8442 16.0126C39.5564 15.7724 39.2365 15.5198 38.8785 15.542C38.6759 15.569 38.4814 15.6387 38.3077 15.7465C37.4158 16.2171 36.6764 15.7724 35.6393 17.1719C35.4179 17.4713 34.9737 17.5416 34.7449 17.8557C34.5161 18.1699 34.4238 18.5826 34.3586 18.9843C34.3047 19.2559 34.2919 19.5342 34.3205 19.8097C34.3478 20.0801 34.4804 20.3289 34.6896 20.5021C34.9282 20.6758 35.2567 20.677 35.4572 20.905C35.5581 21.0534 35.6407 21.2135 35.7033 21.3818C35.7845 21.5419 35.9272 21.6935 36.0896 21.6701C36.252 21.6467 36.3491 21.4705 36.3725 21.3005C36.3827 21.1245 36.3724 20.9479 36.3418 20.7744C36.311 20.4627 36.3504 20.1226 36.5337 19.8873C36.6567 19.7259 36.8412 19.6298 36.963 19.466C37.2558 19.0705 37.123 18.4064 37.4441 18.0393C37.538 17.9427 37.6557 17.8728 37.7854 17.8367C37.9151 17.8005 38.052 17.7995 38.1822 17.8335C38.4408 17.9075 38.6889 18.0143 38.9203 18.1514C39.2433 18.3147 39.5816 18.4455 39.9304 18.542C40.2232 18.622 40.5627 18.8142 40.6624 18.4188C40.8186 17.8372 40.6722 16.96 40.3363 16.4956Z" fill="black"/>
<path d="M40.3363 16.3724C40.1933 16.1913 40.0279 16.029 39.8442 15.8894C39.5564 15.6492 39.2365 15.3966 38.8785 15.4188C38.6759 15.4458 38.4814 15.5155 38.3077 15.6233C37.4158 16.0939 36.6764 15.6492 35.6393 17.0487C35.4179 17.3481 34.9737 17.4183 34.7449 17.7325C34.5161 18.0467 34.4238 18.4594 34.3586 18.861C34.3047 19.1327 34.2919 19.411 34.3205 19.6865C34.3478 19.9569 34.4804 20.2057 34.6896 20.3789C34.9282 20.5526 35.2567 20.5538 35.4572 20.7818C35.5581 20.9302 35.6407 21.0903 35.7033 21.2586C35.7845 21.4187 35.9272 21.5703 36.0896 21.5469C36.252 21.5234 36.3491 21.3473 36.3725 21.1772C36.3827 21.0013 36.3724 20.8247 36.3418 20.6512C36.311 20.3395 36.3504 19.9994 36.5337 19.7641C36.6567 19.6027 36.8412 19.5066 36.963 19.3428C37.2558 18.9473 37.123 18.2832 37.4441 17.9161C37.538 17.8195 37.6557 17.7496 37.7854 17.7135C37.9151 17.6773 38.052 17.6762 38.1822 17.7103C38.4408 17.7843 38.6889 17.8911 38.9203 18.0282C39.2433 18.1915 39.5816 18.3223 39.9304 18.4187C40.2232 18.4988 40.5627 18.691 40.6624 18.2955C40.8186 17.714 40.6722 16.8368 40.3363 16.3724Z" fill="#865A61"/>
<path opacity="0.1" d="M35.4491 27.7476L35.3999 29.6388C36.1148 29.8333 36.8525 29.9315 37.5934 29.9307C37.7164 29.9307 37.8456 29.9307 37.9711 29.9221C38.6281 29.8938 39.2794 29.7871 39.9111 29.6043H39.9234C40.0403 29.5698 40.1559 29.534 40.2704 29.4946H40.2827L40.3872 29.4577C40.7854 29.3172 41.1721 29.1458 41.5436 28.9451L41.567 28.9328C41.6076 28.9106 41.6482 28.8885 41.69 28.865L41.4994 26.316L41.8032 24.5678L40.14 23.4331C40.0466 23.5681 39.9421 23.695 39.8275 23.8125C39.6633 23.9843 39.4711 24.1268 39.2591 24.2339C38.0658 24.8228 36.7076 23.8864 36.0322 23.3074L35.8784 23.1706C35.7037 23.0117 35.6041 22.9033 35.6041 22.9033L34.7725 24.1895L35.4491 27.7476Z" fill="black"/>
<path d="M35.4491 27.8708L35.3999 29.762C36.1148 29.9566 36.8525 30.0547 37.5934 30.054C37.7164 30.054 37.8456 30.054 37.9711 30.0453C38.6281 30.017 39.2794 29.9103 39.9111 29.7275H39.9234C40.0403 29.693 40.1559 29.6572 40.2704 29.6178H40.2827L40.3872 29.5809C40.7854 29.4404 41.1721 29.2691 41.5436 29.0683L41.567 29.056C41.6076 29.0338 41.6482 29.0117 41.69 28.9883L41.4994 26.4392L41.8032 24.691L40.14 23.5563C40.0466 23.6913 39.9421 23.8182 39.8275 23.9357C39.6633 24.1075 39.4711 24.25 39.2591 24.3571C38.0658 24.946 36.7076 24.0097 36.0322 23.4306L35.8784 23.2938C35.7037 23.1349 35.6041 23.0265 35.6041 23.0265L34.7725 24.3127L35.4491 27.8708Z" fill="#202024"/>
<path d="M40.06 28.0224C40.06 28.0224 40.151 28.748 40.2703 29.6154H40.2826L40.3872 29.5784C40.7854 29.438 41.172 29.2666 41.5436 29.0659L41.567 29.0536C41.6076 29.0314 41.6482 29.0092 41.69 28.9858C42.2354 28.6792 42.7446 28.3123 43.2081 27.8918L43.2487 27.8536C43.5029 27.6231 43.7417 27.3762 43.9635 27.1144L43.9893 27.0836C43.5501 25.5571 42.6361 25.0766 42.6361 25.0766C42.6361 25.0766 41.8044 24.6971 41.5768 24.1674C41.3492 23.6376 39.3403 22.5177 39.3403 22.5177V22.5263C39.3403 22.6212 39.3083 23.4898 39.2603 24.3633C39.2295 24.9312 39.1914 25.5016 39.1471 25.8639C39.1375 25.9815 39.1161 26.0979 39.0832 26.2113C38.9269 26.5846 40.06 28.0224 40.06 28.0224Z" fill="black"/>
</g>
<defs>
<linearGradient id="paint0_linear" x1="63.268" y1="97.8966" x2="63.268" y2="4.84063" gradientUnits="userSpaceOnUse">
<stop stop-color="#808080" stop-opacity="0.25"/>
<stop offset="0.54" stop-color="#808080" stop-opacity="0.12"/>
<stop offset="1" stop-color="#808080" stop-opacity="0.1"/>
</linearGradient>
<linearGradient id="paint1_linear" x1="4601.48" y1="7632.39" x2="4601.48" y2="5827.96" gradientUnits="userSpaceOnUse">
<stop stop-color="#808080" stop-opacity="0.25"/>
<stop offset="0.54" stop-color="#808080" stop-opacity="0.12"/>
<stop offset="1" stop-color="#808080" stop-opacity="0.1"/>
</linearGradient>
<linearGradient id="paint2_linear" x1="-21511.7" y1="58109.6" x2="-21511.7" y2="21780.8" gradientUnits="userSpaceOnUse">
<stop stop-color="#808080" stop-opacity="0.25"/>
<stop offset="0.54" stop-color="#808080" stop-opacity="0.12"/>
<stop offset="1" stop-color="#808080" stop-opacity="0.1"/>
</linearGradient>
<linearGradient id="paint3_linear" x1="33358.1" y1="35940.3" x2="33358.1" y2="3455.45" gradientUnits="userSpaceOnUse">
<stop stop-color="#808080" stop-opacity="0.25"/>
<stop offset="0.54" stop-color="#808080" stop-opacity="0.12"/>
<stop offset="1" stop-color="#808080" stop-opacity="0.1"/>
</linearGradient>
<clipPath id="clip0">
<rect width="137" height="104" fill="white"/>
</clipPath>
</defs>
</svg>
