<svg width="477" height="292" viewBox="0 0 477 292" fill="none" xmlns="http://www.w3.org/2000/svg">
<path opacity="0.1" d="M264.781 73.594C241.005 72.7553 218.361 64.9468 196.738 56.4005C175.114 47.8542 153.693 38.3927 130.505 33.8657C115.579 30.9529 98.511 30.5391 86.4837 38.6815C74.8931 46.532 71.1534 60.0439 69.155 72.5918C67.6414 82.036 66.7524 91.974 70.8962 100.813C73.7727 106.951 78.8827 112.108 82.4167 117.985C94.7126 138.439 86.0208 163.664 72.6962 183.634C66.4512 193.002 59.1992 201.938 54.3758 211.911C49.5524 221.884 47.3112 233.311 51.5213 243.486C55.7019 253.578 65.6687 261.143 76.4654 266.452C98.3936 277.271 124.223 280.372 149.428 282.111C205.202 285.995 261.276 284.314 317.2 282.63C337.894 282.007 358.683 281.374 379.044 278.106C390.352 276.297 402.021 273.426 410.229 266.498C420.652 257.704 423.233 242.811 416.249 231.784C404.539 213.285 372.167 208.688 363.971 188.837C359.465 177.91 364.09 165.738 370.641 155.605C384.687 133.864 408.235 114.791 409.473 89.9385C410.324 72.8875 399.006 55.7811 381.506 47.7047C363.157 39.2383 337.722 40.3032 324.197 54.3161C310.265 68.8023 285.772 74.3387 264.781 73.594Z" fill="#1CC5B7"/>
<path d="M420.108 281.591C420.112 277.525 393.825 274.197 361.393 274.157C328.963 274.118 302.668 277.382 302.663 281.449C302.658 285.515 328.945 288.843 361.377 288.882C393.806 288.922 420.102 285.657 420.108 281.591Z" fill="#3F3D56"/>
<path opacity="0.1" d="M404.721 281.572C404.725 278.571 385.324 276.115 361.393 276.086C337.458 276.057 318.054 278.467 318.051 281.467C318.045 284.468 337.445 286.924 361.377 286.953C385.312 286.982 404.715 284.573 404.721 281.572Z" fill="black"/>
<path d="M341.77 256.923L342.743 269.744C342.743 269.744 335.612 282.358 343.123 282.17C350.634 281.982 351.231 281.193 351.231 281.193L351.234 277.249L351.244 268.768L349.086 255.749L341.77 256.923ZM371.617 259.489C371.617 259.489 373.388 264.816 372 268.364C370.612 271.912 370.01 280.195 370.999 280.394C371.985 280.592 376.73 281.584 376.73 281.584C376.73 281.584 388.188 285.542 393.134 283.971C398.077 282.399 397.289 280.031 397.289 280.031C397.289 280.031 396.108 276.677 392.352 276.475C388.597 276.273 379.914 262.062 379.722 258.907C379.528 255.751 371.617 259.489 371.617 259.489Z" fill="#C5C4C4"/>
<path d="M347.029 96.4868C356.745 96.4868 364.621 88.6282 364.621 78.9339C364.621 69.2397 356.745 61.3807 347.029 61.3807C337.31 61.3807 329.435 69.2397 329.435 78.9339C329.435 88.6282 337.31 96.4868 347.029 96.4868Z" fill="#3D1905"/>
<path d="M340.787 90.2668C340.787 90.2668 342.36 98.9466 337.612 101.307C332.864 103.668 346.499 108.221 346.499 108.221L352.431 106.65L356.196 98.5688C356.196 98.5688 351.454 98.1687 352.647 91.0701L340.787 90.2668Z" fill="#E99E74"/>
<path opacity="0.1" d="M340.787 90.2668C340.787 90.2668 342.36 98.9466 337.612 101.307C332.864 103.668 346.499 108.221 346.499 108.221L352.431 106.65L356.196 98.5688C356.196 98.5688 351.454 98.1687 352.647 91.0701L340.787 90.2668Z" fill="black"/>
<path d="M322.564 119.828L322.146 138.762L317.166 171.1C317.166 171.1 317.342 187.865 322.482 188.857C327.62 189.849 322.504 170.91 322.504 170.91L329.956 144.147L331.46 120.825L322.564 119.828ZM346.429 94.9084C352.653 94.9084 357.697 89.8752 357.697 83.6664C357.697 77.4577 352.653 72.4247 346.429 72.4247C340.206 72.4247 335.162 77.4577 335.162 83.6664C335.162 89.8752 340.206 94.9084 346.429 94.9084Z" fill="#E99E74"/>
<path d="M364.052 139.996C366.024 143.351 365.428 147.295 363.255 147.292C361.079 147.29 331.827 143.704 331.827 143.704L333.614 137C333.614 137 331.84 134.237 333.027 132.464C334.214 130.69 331.849 125.165 331.849 125.165L327.331 103.662L329.701 102.919L333.655 101.683L338.007 100.322C338.007 100.322 340.969 104.664 348.282 103.293C348.282 103.293 352.829 103.89 355.407 97.9763C355.96 97.9854 356.513 98.0556 357.053 98.1853C357.599 98.3279 358.13 98.5672 358.372 98.9661C358.61 99.3627 359.998 99.6347 361.575 99.8161C363.917 100.085 366.671 100.159 366.671 100.159L364.47 122.049C364.47 122.049 362.08 136.641 364.052 139.996Z" fill="#1CC5B7"/>
<path d="M328.91 103.664L327.331 103.662C327.331 103.662 320.997 108.782 321.772 121.011C321.772 121.011 322.366 122.195 326.91 122.989C331.457 123.784 333.435 121.814 333.435 121.814L328.91 103.664Z" fill="#1CC5B7"/>
<path d="M358.545 118.097C358.545 118.097 333.244 116.489 333.438 119.447C333.633 122.406 331.846 129.109 332.635 130.294C333.423 131.478 334.38 136.332 333.203 138.539C332.499 139.857 331.97 141.262 331.63 142.717C331.63 142.717 330.05 142.321 328.857 147.25C327.667 152.18 321.719 166.373 324.081 173.673C326.445 180.973 334.098 227.527 334.098 227.527L339.201 258.104C339.201 258.104 347.698 259.692 350.666 256.54L347.943 220.641L346.015 181.588C346.015 181.588 359.21 219.472 361.189 220.657L369.243 260.901C369.243 260.901 378.331 264.068 381.503 258.944L377.782 229.553C377.782 229.553 375.615 223.83 376.409 220.873C377.204 217.916 375.031 215.743 375.031 215.743L366.976 174.119C366.976 174.119 364.611 169.383 366.59 165.835C368.571 162.288 363.057 146.108 363.057 146.108C363.057 146.108 359.509 137.821 360.702 133.089C361.892 128.357 358.545 118.097 358.545 118.097Z" fill="#343F51"/>
<path d="M372.584 115.353L376.51 137.644C376.51 137.644 377.097 140.998 375.313 146.518C373.526 152.038 366.593 165.244 366.593 165.244L363.041 158.928L368.995 138.818L364.084 115.343L372.584 115.353Z" fill="#E99E74"/>
<path d="M337.392 118.268L333.712 120.144L329.695 108.595L329.702 102.919L333.655 101.683L334.245 106.431L337.392 118.268ZM361.575 99.8161L358.347 118.787L353.206 118.781L357.053 98.1853C357.599 98.3279 358.13 98.5672 358.369 98.9661C358.61 99.3627 359.998 99.6347 361.575 99.8161Z" fill="#343F51"/>
<path d="M364.297 101.34L366.671 100.159C366.671 100.159 376.739 112.202 373.768 117.129C370.794 122.056 362.102 118.89 362.102 118.89L364.297 101.34Z" fill="#1CC5B7"/>
<path d="M348.829 68.8776C352.977 68.8776 356.34 65.5221 356.34 61.383C356.34 57.2439 352.977 53.8884 348.829 53.8884C344.68 53.8884 341.317 57.2439 341.317 61.383C341.317 65.5221 344.68 68.8776 348.829 68.8776Z" fill="#3D1905"/>
<path d="M356.13 72.4364C356.133 69.2776 351.799 66.7117 346.451 66.7051C341.1 66.6988 336.761 69.2541 336.758 72.4129C336.754 75.5716 341.088 78.1379 346.436 78.1442C351.787 78.1507 356.126 75.5951 356.13 72.4364Z" fill="#3D1905"/>
<path d="M335.511 121.323C335.642 121.326 335.773 121.302 335.895 121.253C336.017 121.205 336.128 121.132 336.221 121.041C336.315 120.949 336.389 120.839 336.44 120.719C336.491 120.598 336.517 120.468 336.517 120.337C336.517 120.206 336.491 120.076 336.44 119.956C336.389 119.835 336.315 119.725 336.221 119.633C336.128 119.542 336.017 119.469 335.895 119.421C335.773 119.372 335.642 119.349 335.511 119.351C334.968 119.351 334.525 119.793 334.525 120.337C334.525 120.598 334.629 120.849 334.813 121.034C334.998 121.219 335.249 121.323 335.511 121.323ZM356.663 121.349C356.795 121.351 356.925 121.327 357.047 121.279C357.169 121.23 357.28 121.158 357.374 121.066C357.467 120.975 357.542 120.865 357.593 120.744C357.643 120.623 357.67 120.494 357.67 120.363C357.67 120.232 357.643 120.102 357.593 119.981C357.542 119.86 357.467 119.751 357.374 119.659C357.28 119.567 357.169 119.495 357.047 119.447C356.925 119.398 356.795 119.374 356.663 119.377C356.404 119.381 356.157 119.487 355.976 119.672C355.794 119.856 355.693 120.104 355.693 120.363C355.693 120.621 355.794 120.869 355.976 121.054C356.157 121.238 356.404 121.344 356.663 121.349Z" fill="#1CC5B7"/>
<path d="M295.809 94.9313H99.859C95.6967 94.9313 92.3225 98.2978 92.3225 102.451V215.867C92.3225 220.02 95.6967 223.386 99.859 223.386H295.809C299.971 223.386 303.345 220.02 303.345 215.867V102.451C303.345 98.2978 299.971 94.9313 295.809 94.9313Z" fill="#343F51"/>
<g filter="url(#filter0_i)">
<path d="M226.96 124.546C226.627 124.546 226.308 124.678 226.072 124.914C225.837 125.149 225.704 125.467 225.704 125.8V172.234C225.704 173.079 224.882 173.682 224.053 173.511C222.857 173.265 221.64 173.144 220.419 173.15C212.808 173.15 206.627 178.347 206.627 185.69C206.627 193.034 212.808 198.173 220.419 198.173C228.03 198.173 234.25 192.766 234.25 184.92V151.875C234.25 151.543 234.382 151.224 234.618 150.989C234.853 150.754 235.173 150.622 235.506 150.622H273.133C273.466 150.622 273.785 150.754 274.021 150.989C274.257 151.224 274.389 151.543 274.389 151.875V172.234C274.389 173.079 273.567 173.682 272.737 173.511C271.542 173.265 270.324 173.144 269.104 173.15C261.492 173.15 255.311 178.347 255.311 185.69C255.311 193.034 261.492 198.173 269.104 198.173C276.715 198.173 282.934 192.766 282.934 184.92V125.8C282.934 125.467 282.802 125.149 282.566 124.914C282.331 124.678 282.011 124.546 281.678 124.546H226.96ZM274.391 141.7C274.391 142.032 274.258 142.351 274.023 142.586C273.787 142.821 273.468 142.953 273.134 142.953H235.507C235.174 142.953 234.855 142.821 234.619 142.586C234.384 142.351 234.251 142.032 234.251 141.7V134.046C234.251 133.353 234.813 132.793 235.507 132.793H273.134C273.468 132.793 273.787 132.925 274.023 133.16C274.258 133.395 274.391 133.713 274.391 134.046V141.7Z" fill="#1CC5B7"/>
</g>
<g filter="url(#filter1_i)">
<path d="M144.884 124.233C144.55 124.233 144.231 124.365 143.995 124.6C143.76 124.835 143.627 125.154 143.627 125.486V165.651C143.627 166.557 142.691 167.168 141.834 166.868C138.18 165.59 134.116 165.118 130.106 165.523C125.426 165.996 121.081 167.638 117.746 170.192C114.411 172.747 112.271 176.072 111.659 179.652C111.047 183.232 111.997 186.866 114.362 189.99C116.726 193.115 120.373 195.555 124.737 196.933C129.1 198.31 133.936 198.547 138.494 197.608C143.052 196.669 147.076 194.605 149.944 191.737C152.811 188.869 154.361 185.358 154.352 181.747V141.911C154.352 141.578 154.485 141.26 154.72 141.025C154.956 140.79 155.275 140.658 155.608 140.658H174.596C174.93 140.658 175.249 140.525 175.485 140.29C175.72 140.055 175.852 139.737 175.852 139.404V125.486C175.852 125.154 175.72 124.835 175.485 124.6C175.249 124.365 174.93 124.233 174.596 124.233H144.884Z" fill="#1CC5B7"/>
</g>
<path opacity="0.1" d="M441.085 171.478C444.838 171.478 447.878 168.444 447.878 164.701C447.878 160.958 444.838 157.924 441.085 157.924C437.333 157.924 434.293 160.958 434.293 164.701C434.293 168.444 437.333 171.478 441.085 171.478ZM465.381 145.843C471.668 145.843 476.764 140.758 476.764 134.486C476.764 128.214 471.668 123.129 465.381 123.129C459.094 123.129 453.998 128.214 453.998 134.486C453.998 140.758 459.094 145.843 465.381 145.843ZM11.3833 123.285C17.67 123.285 22.7666 118.2 22.7666 111.928C22.7666 105.656 17.67 100.571 11.3833 100.571C5.09658 100.571 0 105.656 0 111.928C0 118.2 5.09658 123.285 11.3833 123.285ZM208.395 13.5536C212.146 13.5536 215.187 10.5195 215.187 6.77678C215.187 3.03404 212.146 0 208.395 0C204.643 0 201.602 3.03404 201.602 6.77678C201.602 10.5195 204.643 13.5536 208.395 13.5536ZM286.307 21.3423C290.058 21.3423 293.099 18.3083 293.099 14.5655C293.099 10.8228 290.058 7.78876 286.307 7.78876C282.555 7.78876 279.514 10.8228 279.514 14.5655C279.514 18.3083 282.555 21.3423 286.307 21.3423Z" fill="#1CC5B7"/>
<path d="M89.636 287.848C88.0966 287.022 86.4391 286.437 84.7216 286.113C85.9683 285.941 87.1983 285.666 88.3988 285.289C91.5924 284.28 93.2033 282.926 91.9943 282.265C90.7853 281.604 87.2149 281.883 84.0213 282.892C82.9436 283.203 81.9135 283.659 80.9596 284.249C80.6299 283.55 79.7318 282.738 78.3312 281.971C75.505 280.404 71.6802 279.63 69.8149 280.219C67.9496 280.808 68.7378 282.544 71.5766 284.101C72.9593 284.846 74.4389 285.395 75.9729 285.734C74.953 285.852 73.9412 286.031 72.9426 286.269C69.4664 287.103 67.4566 288.359 68.4521 289.089C69.4475 289.819 73.0776 289.716 76.5539 288.889C77.8181 288.617 79.0423 288.186 80.1965 287.604C80.4823 288.325 81.3961 289.171 82.872 289.988C85.6982 291.555 89.523 292.329 91.3883 291.74C93.2536 291.151 92.4622 289.402 89.636 287.848ZM109.642 264.952C108.896 264.552 108.092 264.267 107.259 264.109C107.863 264.025 108.46 263.892 109.043 263.711C110.594 263.219 111.376 262.565 110.789 262.242C110.201 261.919 108.468 262.057 106.917 262.555C106.395 262.708 105.895 262.93 105.431 263.213C105.271 262.875 104.835 262.48 104.156 262.107C102.778 261.352 100.925 260.973 100.021 261.258C99.1164 261.543 99.4995 262.389 100.875 263.138C101.548 263.499 102.269 263.765 103.017 263.928C102.521 263.987 102.029 264.075 101.544 264.191C99.8574 264.592 98.8808 265.203 99.3644 265.554C99.848 265.905 101.61 265.867 103.296 265.456C103.91 265.323 104.506 265.112 105.067 264.83C105.205 265.178 105.648 265.594 106.364 265.986C107.743 266.741 109.592 267.123 110.5 266.838C111.407 266.553 111.021 265.707 109.642 264.952ZM55.8221 241.739C55.3516 241.489 54.8454 241.311 54.3211 241.213C54.7025 241.163 55.0787 241.079 55.4453 240.962C56.4156 240.649 56.9055 240.245 56.5381 240.044C56.1707 239.844 55.0873 239.928 54.117 240.235C53.786 240.33 53.4692 240.468 53.1749 240.646C52.9821 240.343 52.7049 240.104 52.3773 239.957C51.5169 239.484 50.3581 239.245 49.7897 239.424C49.2214 239.603 49.4757 240.129 50.3267 240.602C50.7482 240.829 51.1996 240.996 51.6676 241.097C51.3567 241.134 51.0483 241.189 50.7444 241.263C49.6892 241.514 49.0769 241.89 49.3784 242.115C49.6798 242.341 50.7852 242.306 51.8403 242.056C52.2248 241.972 52.5972 241.84 52.9488 241.664C53.1348 241.985 53.4186 242.239 53.759 242.388C54.6225 242.861 55.7813 243.099 56.3465 242.92C56.9118 242.742 56.6825 242.212 55.8221 241.739Z" fill="#1CC5B7"/>
<defs>
<filter id="filter0_i" x="206.627" y="124.546" width="80.3074" height="76.6266" filterUnits="userSpaceOnUse" color-interpolation-filters="sRGB">
<feFlood flood-opacity="0" result="BackgroundImageFix"/>
<feBlend mode="normal" in="SourceGraphic" in2="BackgroundImageFix" result="shape"/>
<feColorMatrix in="SourceAlpha" type="matrix" values="0 0 0 0 0 0 0 0 0 0 0 0 0 0 0 0 0 0 127 0" result="hardAlpha"/>
<feOffset dx="8" dy="3"/>
<feGaussianBlur stdDeviation="2"/>
<feComposite in2="hardAlpha" operator="arithmetic" k2="-1" k3="1"/>
<feColorMatrix type="matrix" values="0 0 0 0 0 0 0 0 0 0 0 0 0 0 0 0 0 0 0.25 0"/>
<feBlend mode="color-burn" in2="shape" result="effect1_innerShadow"/>
</filter>
<filter id="filter1_i" x="111.478" y="124.233" width="68.3747" height="76.9398" filterUnits="userSpaceOnUse" color-interpolation-filters="sRGB">
<feFlood flood-opacity="0" result="BackgroundImageFix"/>
<feBlend mode="normal" in="SourceGraphic" in2="BackgroundImageFix" result="shape"/>
<feColorMatrix in="SourceAlpha" type="matrix" values="0 0 0 0 0 0 0 0 0 0 0 0 0 0 0 0 0 0 127 0" result="hardAlpha"/>
<feOffset dx="8" dy="3"/>
<feGaussianBlur stdDeviation="2"/>
<feComposite in2="hardAlpha" operator="arithmetic" k2="-1" k3="1"/>
<feColorMatrix type="matrix" values="0 0 0 0 0 0 0 0 0 0 0 0 0 0 0 0 0 0 0.25 0"/>
<feBlend mode="color-burn" in2="shape" result="effect1_innerShadow"/>
</filter>
</defs>
</svg>
