<svg width="1519" height="932" viewBox="0 0 1519 932" fill="none" xmlns="http://www.w3.org/2000/svg">
<g id="start-artist-icon">
<path id="Vector" opacity="0.1" d="M843.192 234.896C767.478 232.219 695.367 207.296 626.508 180.018C557.649 152.74 489.434 122.541 415.592 108.092C368.06 98.7954 313.707 97.4737 275.406 123.463C238.496 148.52 226.587 191.647 220.223 231.697C215.403 261.841 212.572 293.561 225.768 321.772C234.928 341.364 251.201 357.824 262.455 376.583C301.611 441.868 273.932 522.38 231.5 586.121C211.613 616.02 188.519 644.542 173.159 676.373C157.799 708.205 150.662 744.679 164.069 777.155C177.382 809.364 209.121 833.51 243.503 850.458C313.333 884.989 395.587 894.885 475.852 900.438C653.462 912.833 832.031 907.469 1010.12 902.093C1076.02 900.105 1142.22 898.084 1207.06 887.655C1243.07 881.879 1280.23 872.716 1306.37 850.603C1339.56 822.536 1347.78 775 1325.54 739.803C1288.25 680.76 1185.16 666.088 1159.06 602.725C1144.71 567.85 1159.44 528.999 1180.3 496.657C1225.03 427.263 1300.02 366.387 1303.96 287.064C1306.67 232.641 1270.63 178.041 1214.9 152.263C1156.47 125.24 1075.47 128.639 1032.4 173.365C988.034 219.602 910.038 237.273 843.192 234.896Z" fill="#6C63FF"/>
<g id="start-artist">
<path id="Vector_2" d="M1337.83 898.777C1337.84 885.798 1254.13 875.175 1150.85 875.049C1047.58 874.924 963.842 885.343 963.826 898.322C963.81 911.3 1047.52 921.924 1150.8 922.049C1254.07 922.175 1337.81 911.755 1337.83 898.777Z" fill="#3F3D56"/>
<path id="Vector_3" opacity="0.1" d="M1288.83 898.717C1288.84 889.139 1227.06 881.3 1150.85 881.207C1074.63 881.114 1012.84 888.804 1012.83 898.381C1012.81 907.959 1074.59 915.799 1150.8 915.891C1227.02 915.984 1288.81 908.295 1288.83 898.717Z" fill="black"/>
<path id="Vector_4" d="M1088.36 820.043L1091.46 860.964C1091.46 860.964 1068.75 901.225 1092.67 900.624C1116.59 900.024 1118.49 897.508 1118.49 897.508L1118.5 884.918L1118.53 857.85L1111.66 816.294L1088.36 820.043Z" fill="#C5C4C4"/>
<path id="Vector_5" d="M1183.41 828.231C1183.41 828.231 1189.05 845.234 1184.63 856.56C1180.21 867.885 1178.29 894.322 1181.44 894.955C1184.58 895.589 1199.69 898.754 1199.69 898.754C1199.69 898.754 1236.18 911.389 1251.93 906.372C1267.67 901.355 1265.16 893.798 1265.16 893.798C1265.16 893.798 1261.4 883.092 1249.44 882.448C1237.48 881.804 1209.83 836.446 1209.22 826.373C1208.6 816.301 1183.41 828.231 1183.41 828.231Z" fill="#C5C4C4"/>
<path id="Vector_6" d="M1105.11 307.965C1136.05 307.965 1161.13 282.882 1161.13 251.94C1161.13 220.998 1136.05 195.914 1105.11 195.914C1074.16 195.914 1049.08 220.998 1049.08 251.94C1049.08 282.882 1074.16 307.965 1105.11 307.965Z" fill="#3D1905"/>
<path id="Vector_7" d="M1085.23 288.112C1085.23 288.112 1090.24 315.816 1075.12 323.351C1060 330.887 1103.42 345.418 1103.42 345.418L1122.31 340.405L1134.3 314.61C1134.3 314.61 1119.2 313.333 1123 290.676L1085.23 288.112Z" fill="#E99E74"/>
<path id="Vector_8" opacity="0.1" d="M1085.23 288.112C1085.23 288.112 1090.24 315.816 1075.12 323.351C1060 330.887 1103.42 345.418 1103.42 345.418L1122.31 340.405L1134.3 314.61C1134.3 314.61 1119.2 313.333 1123 290.676L1085.23 288.112Z" fill="black"/>
<path id="Vector_9" d="M1027.2 382.466L1025.87 442.897L1010.01 546.115C1010.01 546.115 1010.57 599.623 1026.94 602.791C1043.3 605.958 1027.01 545.506 1027.01 545.506L1050.74 460.087L1055.53 385.648L1027.2 382.466Z" fill="#E99E74"/>
<path id="Vector_10" d="M1103.2 302.927C1123.02 302.927 1139.08 286.862 1139.08 267.045C1139.08 247.228 1123.02 231.164 1103.2 231.164C1083.38 231.164 1067.32 247.228 1067.32 267.045C1067.32 286.862 1083.38 302.927 1103.2 302.927Z" fill="#E99E74"/>
<path id="Vector_11" d="M1159.32 446.836C1165.6 457.545 1163.7 470.133 1156.78 470.124C1149.85 470.116 1056.7 458.671 1056.7 458.671L1062.39 437.275C1062.39 437.275 1056.74 428.455 1060.52 422.795C1064.3 417.134 1056.77 399.499 1056.77 399.499L1042.38 330.866L1049.93 328.495L1062.52 324.551L1076.38 320.205C1076.38 320.205 1085.81 334.066 1109.1 329.688C1109.1 329.688 1123.58 331.594 1131.79 312.719C1133.55 312.748 1135.31 312.972 1137.03 313.386C1138.77 313.841 1140.46 314.605 1141.23 315.878C1141.99 317.144 1146.41 318.012 1151.43 318.591C1158.89 319.45 1167.66 319.687 1167.66 319.687L1160.65 389.553C1160.65 389.553 1153.04 436.127 1159.32 446.836Z" fill="#1CC5B7"/>
<path id="Vector_12" d="M1047.41 330.872L1042.38 330.866C1042.38 330.866 1022.21 347.208 1024.68 386.24C1024.68 386.24 1026.57 390.019 1041.04 392.555C1055.52 395.091 1061.82 388.803 1061.82 388.803L1047.41 330.872Z" fill="#1CC5B7"/>
<path id="Vector_13" d="M1141.78 376.94C1141.78 376.94 1061.21 371.806 1061.83 381.249C1062.45 390.692 1056.76 412.088 1059.27 415.869C1061.78 419.649 1064.83 435.141 1061.08 442.185C1058.84 446.394 1057.15 450.878 1056.07 455.523C1056.07 455.523 1051.04 454.258 1047.24 469.991C1043.45 485.724 1024.51 531.025 1032.03 554.326C1039.56 577.626 1063.93 726.218 1063.93 726.218L1080.18 823.81C1080.18 823.81 1107.24 828.879 1116.69 818.819L1108.02 704.239L1101.88 579.59C1101.88 579.59 1143.9 700.506 1150.2 704.29L1175.85 832.739C1175.85 832.739 1204.79 842.847 1214.89 826.492L1203.04 732.682C1203.04 732.682 1196.14 714.418 1198.67 704.979C1201.2 695.539 1194.28 688.606 1194.28 688.606L1168.63 555.751C1168.63 555.751 1161.1 540.633 1167.4 529.31C1173.71 517.987 1156.15 466.346 1156.15 466.346C1156.15 466.346 1144.85 439.894 1148.65 424.79C1152.44 409.687 1141.78 376.94 1141.78 376.94Z" fill="#343F51"/>
<path id="Vector_14" d="M1186.49 368.181L1198.99 439.33C1198.99 439.33 1200.86 450.034 1195.18 467.653C1189.49 485.272 1167.41 527.422 1167.41 527.422L1156.1 507.264L1175.06 443.078L1159.42 368.148L1186.49 368.181Z" fill="#E99E74"/>
<path id="Vector_15" d="M1074.42 377.487L1062.7 383.472L1049.91 346.612L1049.93 328.495L1062.52 324.551L1064.4 339.705L1074.42 377.487Z" fill="#343F51"/>
<path id="Vector_16" d="M1151.43 318.591L1141.15 379.142L1124.78 379.122L1137.03 313.386C1138.77 313.841 1140.46 314.605 1141.22 315.878C1141.99 317.144 1146.41 318.012 1151.43 318.591Z" fill="#343F51"/>
<path id="Vector_17" d="M1160.1 323.455L1167.66 319.687C1167.66 319.687 1199.72 358.125 1190.26 373.851C1180.79 389.577 1153.11 379.472 1153.11 379.472L1160.1 323.455Z" fill="#1CC5B7"/>
<path id="Vector_18" d="M1110.84 219.842C1124.05 219.842 1134.76 209.132 1134.76 195.921C1134.76 182.71 1124.05 172 1110.84 172C1097.63 172 1086.92 182.71 1086.92 195.921C1086.92 209.132 1097.63 219.842 1110.84 219.842Z" fill="#3D1905"/>
<path id="Vector_19" d="M1134.09 231.201C1134.1 221.119 1120.3 212.929 1103.27 212.908C1086.23 212.888 1072.41 221.044 1072.4 231.126C1072.39 241.208 1086.19 249.399 1103.22 249.419C1120.26 249.44 1134.08 241.283 1134.09 231.201Z" fill="#3D1905"/>
<path id="Vector_20" d="M1068.43 387.237C1070.17 387.237 1071.58 385.828 1071.58 384.09C1071.58 382.352 1070.17 380.942 1068.43 380.942C1066.7 380.942 1065.29 382.352 1065.29 384.09C1065.29 385.828 1066.7 387.237 1068.43 387.237Z" fill="#1CC5B7"/>
<path id="Vector_21" d="M1135.79 387.319C1137.53 387.319 1138.94 385.91 1138.94 384.172C1138.94 382.434 1137.53 381.024 1135.79 381.024C1134.05 381.024 1132.64 382.434 1132.64 384.172C1132.64 385.91 1134.05 387.319 1135.79 387.319Z" fill="#1CC5B7"/>
</g>
<g id="start-block-notes">
<path id="Vector_22" d="M942 303H318C304.745 303 294 313.745 294 327V689C294 702.255 304.745 713 318 713H942C955.255 713 966 702.255 966 689V327C966 313.745 955.255 303 942 303Z" fill="#343F51"/>
<g id="start-notes-one" filter="url(#filter0_i)">
<path d="M722.752 397.525C720.543 397.525 718.752 399.315 718.752 401.525V549.733C718.752 552.43 716.134 554.355 713.493 553.809C709.695 553.025 705.816 552.637 701.922 552.657C677.684 552.657 658 569.244 658 592.683C658 616.122 677.684 632.525 701.922 632.525C726.159 632.525 745.965 615.266 745.965 590.225V484.752C745.965 482.543 747.756 480.752 749.965 480.752H869.788C871.997 480.752 873.788 482.543 873.788 484.752V549.733C873.788 552.429 871.169 554.355 868.528 553.809C864.73 553.024 860.851 552.637 856.957 552.657C832.719 552.657 813.035 569.244 813.035 592.683C813.035 616.122 832.719 632.525 856.957 632.525C881.195 632.525 901 615.266 901 590.225V401.525C901 399.315 899.209 397.525 897 397.525H722.752ZM873.793 452.275C873.793 454.484 872.002 456.275 869.793 456.275H749.97C747.76 456.275 745.97 454.484 745.97 452.275V427.845C745.97 425.635 747.76 423.845 749.97 423.845H869.793C872.002 423.845 873.793 425.635 873.793 427.845V452.275Z" fill="#1CC5B7"/>
</g>
<g id="start-notes-two" filter="url(#filter1_i)">
<path d="M461.38 396.525C459.171 396.525 457.38 398.315 457.38 400.525V528.722C457.38 531.614 454.398 533.564 451.669 532.607C440.033 528.526 427.091 527.02 414.32 528.314C399.418 529.824 385.582 535.063 374.96 543.217C364.339 551.371 357.525 561.984 355.576 573.41C353.627 584.836 356.653 596.435 364.183 606.408C371.714 616.382 383.327 624.17 397.223 628.567C411.118 632.963 426.518 633.72 441.032 630.722C455.546 627.723 468.363 621.136 477.495 611.982C486.626 602.829 491.561 591.621 491.533 580.097V452.948C491.533 450.738 493.324 448.948 495.533 448.948H556C558.209 448.948 560 447.157 560 444.948V400.525C560 398.315 558.209 396.525 556 396.525H461.38Z" fill="#1CC5B7"/>
</g>
</g>
<g id="Group 1">
<path id="Vector_23" opacity="0.1" d="M1404.63 547.32C1416.58 547.32 1426.26 537.636 1426.26 525.69C1426.26 513.744 1416.58 504.06 1404.63 504.06C1392.68 504.06 1383 513.744 1383 525.69C1383 537.636 1392.68 547.32 1404.63 547.32Z" fill="#6C63FF"/>
<path id="Vector_24" opacity="0.1" d="M1482 465.5C1502.02 465.5 1518.25 449.27 1518.25 429.25C1518.25 409.23 1502.02 393 1482 393C1461.98 393 1445.75 409.23 1445.75 429.25C1445.75 449.27 1461.98 465.5 1482 465.5Z" fill="#6C63FF"/>
<path id="Vector_25" opacity="0.1" d="M36.25 393.5C56.2703 393.5 72.5 377.27 72.5 357.25C72.5 337.23 56.2703 321 36.25 321C16.2297 321 0 337.23 0 357.25C0 377.27 16.2297 393.5 36.25 393.5Z" fill="#6C63FF"/>
<path id="Vector_26" opacity="0.1" d="M663.63 43.26C675.576 43.26 685.26 33.5759 685.26 21.63C685.26 9.68408 675.576 0 663.63 0C651.684 0 642 9.68408 642 21.63C642 33.5759 651.684 43.26 663.63 43.26Z" fill="#6C63FF"/>
<path id="Vector_27" opacity="0.1" d="M911.74 68.12C923.686 68.12 933.37 58.4359 933.37 46.49C933.37 34.5441 923.686 24.86 911.74 24.86C899.794 24.86 890.11 34.5441 890.11 46.49C890.11 58.4359 899.794 68.12 911.74 68.12Z" fill="#6C63FF"/>
<path id="Vector_28" d="M285.445 918.749C280.543 916.112 275.264 914.244 269.795 913.209C273.765 912.662 277.682 911.782 281.505 910.579C291.675 907.359 296.805 903.039 292.955 900.929C289.105 898.819 277.735 899.709 267.565 902.929C264.133 903.922 260.852 905.378 257.815 907.259C256.765 905.029 253.905 902.439 249.445 899.989C240.445 894.989 228.265 892.519 222.325 894.399C216.385 896.279 218.895 901.819 227.935 906.789C232.338 909.165 237.05 910.918 241.935 911.999C238.687 912.377 235.465 912.948 232.285 913.709C221.215 916.369 214.815 920.379 217.985 922.709C221.155 925.039 232.715 924.709 243.785 922.069C247.811 921.204 251.709 919.826 255.385 917.969C256.295 920.269 259.205 922.969 263.905 925.579C272.905 930.579 285.085 933.049 291.025 931.169C296.965 929.289 294.445 923.709 285.445 918.749Z" fill="#1CC5B7"/>
<path id="Vector_29" d="M349.155 845.669C346.777 844.391 344.217 843.484 341.565 842.979C343.489 842.711 345.389 842.287 347.245 841.709C352.185 840.139 354.675 838.049 352.805 837.019C350.935 835.989 345.415 836.429 340.475 838.019C338.813 838.508 337.222 839.214 335.745 840.119C335.235 839.039 333.845 837.779 331.685 836.589C327.295 834.179 321.395 832.969 318.515 833.879C315.635 834.789 316.855 837.489 321.235 839.879C323.38 841.032 325.675 841.88 328.055 842.399C326.476 842.588 324.91 842.869 323.365 843.239C317.995 844.519 314.885 846.469 316.425 847.589C317.965 848.709 323.575 848.589 328.945 847.279C330.901 846.853 332.796 846.181 334.585 845.279C335.025 846.389 336.435 847.719 338.715 848.969C343.105 851.379 348.995 852.599 351.885 851.689C354.775 850.779 353.545 848.079 349.155 845.669Z" fill="#1CC5B7"/>
<path id="Vector_30" d="M177.765 771.579C176.267 770.779 174.655 770.212 172.985 769.899C174.199 769.739 175.397 769.471 176.565 769.099C179.655 768.099 181.215 766.809 180.045 766.169C178.875 765.529 175.425 765.799 172.335 766.779C171.281 767.08 170.272 767.521 169.335 768.089C168.721 767.123 167.838 766.359 166.795 765.889C164.055 764.379 160.365 763.619 158.555 764.189C156.745 764.759 157.555 766.439 160.265 767.949C161.607 768.673 163.044 769.205 164.535 769.529C163.545 769.646 162.563 769.823 161.595 770.059C158.235 770.859 156.285 772.059 157.245 772.779C158.205 773.499 161.725 773.389 165.085 772.589C166.309 772.322 167.495 771.902 168.615 771.339C169.207 772.364 170.111 773.173 171.195 773.649C173.945 775.159 177.635 775.919 179.435 775.349C181.235 774.779 180.505 773.089 177.765 771.579Z" fill="#1CC5B7"/>
</g>
</g>
<defs>
<filter id="filter0_i" x="658" y="397.525" width="247" height="238" filterUnits="userSpaceOnUse" color-interpolation-filters="sRGB">
<feFlood flood-opacity="0" result="BackgroundImageFix"/>
<feBlend mode="normal" in="SourceGraphic" in2="BackgroundImageFix" result="shape"/>
<feColorMatrix in="SourceAlpha" type="matrix" values="0 0 0 0 0 0 0 0 0 0 0 0 0 0 0 0 0 0 127 0" result="hardAlpha"/>
<feOffset dx="8" dy="3"/>
<feGaussianBlur stdDeviation="2"/>
<feComposite in2="hardAlpha" operator="arithmetic" k2="-1" k3="1"/>
<feColorMatrix type="matrix" values="0 0 0 0 0 0 0 0 0 0 0 0 0 0 0 0 0 0 0.25 0"/>
<feBlend mode="color-burn" in2="shape" result="effect1_innerShadow"/>
</filter>
<filter id="filter1_i" x="355" y="396.525" width="209" height="239" filterUnits="userSpaceOnUse" color-interpolation-filters="sRGB">
<feFlood flood-opacity="0" result="BackgroundImageFix"/>
<feBlend mode="normal" in="SourceGraphic" in2="BackgroundImageFix" result="shape"/>
<feColorMatrix in="SourceAlpha" type="matrix" values="0 0 0 0 0 0 0 0 0 0 0 0 0 0 0 0 0 0 127 0" result="hardAlpha"/>
<feOffset dx="8" dy="3"/>
<feGaussianBlur stdDeviation="2"/>
<feComposite in2="hardAlpha" operator="arithmetic" k2="-1" k3="1"/>
<feColorMatrix type="matrix" values="0 0 0 0 0 0 0 0 0 0 0 0 0 0 0 0 0 0 0.25 0"/>
<feBlend mode="color-burn" in2="shape" result="effect1_innerShadow"/>
</filter>
</defs>
</svg>
